<?xml version="1.0" encoding="UTF-8"?>
<svg width="16px" height="15px" viewBox="0 0 16 15" version="1.1" xmlns="http://www.w3.org/2000/svg" xmlns:xlink="http://www.w3.org/1999/xlink">
    <title>F3310076-FA9C-4A90-ACCC-EDFD5123942A</title>
    <g id="WEB" stroke="none" stroke-width="1" fill="none" fill-rule="evenodd">
        <g id="Style-Guide-TRC" transform="translate(-846, -218)" fill="#000000" fill-rule="nonzero">
            <g id="iconfinder_5026441_bag_hand-bag_ladies-purse_woman-bag-icon_handbag_icon" transform="translate(846, 218)">
                <path d="M15.9885934,11.63025 L15.3397588,3.99 C15.3401114,3.98400541 15.3401114,3.97799459 15.3397588,3.972 C15.3397588,3.963 15.3397588,3.954 15.3346209,3.945 C15.3323584,3.93505142 15.3294153,3.9252774 15.3258132,3.91575 L15.3170055,3.891 L15.302326,3.86325 C15.2979221,3.8565 15.2942523,3.849 15.2891144,3.84225 C15.282908,3.83391438 15.2762938,3.82590419 15.2692971,3.81825 C15.2643031,3.81189786 15.2589091,3.80588511 15.2531496,3.80025 C15.2455812,3.79266328 15.2374864,3.78564502 15.2289284,3.77925 L15.210579,3.765 C15.2017713,3.759 15.1914956,3.7545 15.1819539,3.74925 C15.1753305,3.7453041 15.168466,3.74179688 15.1614026,3.73875 C15.150393,3.73425 15.1386494,3.73125 15.1269058,3.7275 L15.1078224,3.72225 C15.0889774,3.71833899 15.0698019,3.71632934 15.0505723,3.71625 L10.9755382,3.71625 L10.9755382,2.59125 C10.9757329,1.90407675 10.7087232,1.24498024 10.2332687,0.759005029 C9.75781427,0.273029817 9.11287701,0 8.44038553,0 L7.37465255,0 C5.97739184,0.00247924389 4.84551977,1.15973317 4.84390373,2.5875 L4.84390373,3.7125 L0.953831591,3.7125 C0.934601972,3.71257934 0.915426496,3.71458899 0.896581473,3.7185 L0.880434003,3.7275 C0.868690389,3.7275 0.856946775,3.73425 0.845937137,3.73875 L0.825385813,3.74925 C0.815844126,3.7545 0.805568464,3.759 0.796760754,3.765 L0.778411357,3.77925 C0.769853382,3.78564502 0.76175859,3.79266328 0.754190153,3.80025 C0.74843063,3.80588511 0.743036705,3.81189786 0.738042684,3.81825 C0.731045924,3.82590419 0.724431726,3.83391438 0.718225335,3.84225 C0.713087504,3.849 0.709417624,3.8565 0.705013769,3.86325 L0.690334252,3.891 L0.681526541,3.915 C0.678020268,3.92481582 0.675079334,3.93483295 0.672718831,3.945 C0.672718831,3.954 0.669048951,3.963 0.667580999,3.972 C0.667228373,3.97799459 0.667228373,3.98400541 0.667580999,3.99 L0.0114065664,11.63025 C-0.0622326079,12.4961087 0.22307719,13.3538088 0.797848372,13.9944562 C1.37261955,14.6351037 2.18410024,15 3.0346532,15 L12.9653468,15 C13.8158998,15 14.6273804,14.6351037 15.2021516,13.9944562 C15.7769228,13.3538088 16.0622326,12.4961087 15.9885934,11.63025 Z M5.43108443,2.5875 C5.43229603,1.49093266 6.30151514,0.602065958 7.37465255,0.6 L8.44038553,0.6 C9.51409625,0.601239954 10.3842081,1.49034808 10.3854216,2.5875 L10.3854216,3.7125 L5.43108443,3.7125 L5.43108443,2.5875 Z M5.13749408,4.3125 L14.7525781,4.3125 L14.7525781,7.19025 C14.7517688,8.09123595 14.0371825,8.82142303 13.1554466,8.82225 L10.0551325,8.82225 C10.0135147,8.3573581 9.83080788,7.91736468 9.53254163,7.56375 L10.0463247,7.56375 C10.2084702,7.56375 10.3399151,7.42943542 10.3399151,7.26375 C10.3399151,7.09806458 10.2084702,6.96375 10.0463247,6.96375 L8.73984768,6.96375 C8.18140985,6.71655652 7.54775305,6.71655652 6.98931522,6.96375 L5.77238322,6.96375 C5.61023774,6.96375 5.47879287,7.09806458 5.47879287,7.26375 C5.47879287,7.42943542 5.61023774,7.56375 5.77238322,7.56375 L6.19368537,7.56375 C5.89519557,7.91729617 5.7122343,8.35728441 5.67036057,8.82225 L2.84455345,8.82225 C1.96424685,8.82142863 1.25025084,8.09352113 1.24742194,7.194 L1.24742194,4.31625 L5.13749408,4.3125 Z M6.2626791,8.82225 C6.33068861,8.28622492 6.65042464,7.81784729 7.11922895,7.5675 L8.60626407,7.5675 C9.07828075,7.81699541 9.40035092,8.28738083 9.46795175,8.826 L6.2626791,8.82225 Z M9.43418886,9.42225 C9.25852727,10.1622358 8.61012447,10.6832927 7.86494844,10.6832927 C7.1197724,10.6832927 6.47136961,10.1622358 6.29570802,9.42225 L9.43418886,9.42225 Z M14.7709275,13.5855 C14.309525,14.1066215 13.6530766,14.4027464 12.9653468,14.4000189 L3.0346532,14.4000189 C2.34855972,14.4001338 1.69392446,14.1059478 1.23031419,13.5891495 C0.766703918,13.0723512 0.536707129,12.3804151 0.596385339,11.682 L0.88997569,8.1945 C1.26067376,8.94871707 2.01565621,9.42511641 2.84161754,9.426 L5.69531575,9.426 C5.88073914,10.5014733 6.79514349,11.2856182 7.86384748,11.2856182 C8.93255146,11.2856182 9.84695581,10.5014733 10.0323792,9.426 L13.1554466,9.426 C13.9814079,9.42511641 14.7363903,8.94871707 15.1070884,8.1945 L15.4006788,11.682 C15.4642723,12.3804262 15.2348531,13.073624 14.7694595,13.58925 L14.7709275,13.5855 Z" id="Shape"></path>
            </g>
        </g>
    </g>
</svg>