<?xml version="1.0" encoding="UTF-8"?>
<svg width="32px" height="34px" viewBox="0 0 32 34" version="1.1" xmlns="http://www.w3.org/2000/svg" xmlns:xlink="http://www.w3.org/1999/xlink">
    <title>5B50253B-C9A0-46C9-B79A-556FAC60F3DB</title>
    <g id="WEB" stroke="none" stroke-width="1" fill="none" fill-rule="evenodd">
        <g id="Style-Guide-TRC" transform="translate(-316, -317)" fill-rule="nonzero">
            <g id="5964834_bowl_food_hot-soup_restaurant_soup_icon-copy" transform="translate(316, 317)">
                <g id="Group" transform="translate(0, 3)">
                    <g transform="translate(9.3427, 0)">
                        <path d="M21.8281389,0.854793435 L21.8281389,0.854793435 C21.1962511,0.204322042 20.1649493,0.214930396 19.5459198,0.878326051 L8.23411143,13.0008358 C6.39747955,11.9555394 4.16552506,12.5451995 2.4978788,14.2617357 C1.49689652,15.2920908 0.752351572,17.4243699 0.436517226,19.4712593 C0.282508713,20.4697146 0.343220797,21.6828023 0.962834744,22.3206482 C1.58244869,22.9584942 2.7609645,23.020949 3.73089667,22.8623466 C5.71934529,22.537223 7.79071596,21.7708068 8.79169823,20.740377 C10.4592714,19.0237661 11.0320545,16.7262357 10.0165335,14.8356327 L21.8053445,3.17944238 C22.4451228,2.54682589 22.4554241,1.5004836 21.8281389,0.854793435 Z" id="Path" fill="#FBAB68"></path>
                        <path d="M21.8281389,0.854793435 L21.8281389,0.854793435 C21.6998472,0.722711958 21.5546058,0.61931786 21.4001589,0.54169758 C21.6964135,1.15989567 21.588286,1.9287025 21.0773109,2.43394404 L9.55626137,13.8256726 C9.4014492,13.9787467 9.35900189,14.2142223 9.44623441,14.4157063 C10.2356376,16.2395961 9.63677246,18.37576 8.06381075,19.9949534 C7.06282847,21.0253831 4.99145781,21.7917994 3.00300919,22.116923 C2.22478401,22.2441485 1.31300685,22.228236 0.662635038,21.8879469 C0.743438366,22.0499111 0.842360342,22.1964109 0.962980862,22.3206482 C1.58259481,22.9584942 2.76111062,23.020949 3.73104279,22.8623466 C5.71949141,22.537223 7.79086207,21.7708068 8.79184435,20.740377 C10.4594176,19.0237661 11.0322006,16.7262357 10.0166796,14.8356327 L21.8053445,3.17944238 C22.4451228,2.54682589 22.455351,1.5004836 21.8281389,0.854793435 Z" id="Path" fill="#EA8E49"></path>
                        <path d="M2.84352124,23.3093916 C2.13324099,23.3093916 1.26982894,23.1666271 0.703767292,22.5839147 C-0.166439253,21.6881811 -0.0252891359,20.0680913 0.0757515535,19.4131375 C0.358417083,17.5810299 1.07505347,15.1965409 2.23873829,13.9986187 C3.99668555,12.1889231 6.28942519,11.6345246 8.15827612,12.5410159 L19.2816652,0.620363754 C19.6497368,0.226061697 20.1458078,0.00575158625 20.6786276,0.000145593833 C21.2118127,-0.00635090205 21.7116828,0.204770283 22.0873525,0.591526961 L22.0873525,0.591526961 C22.4601729,0.975295371 22.6624735,1.48457107 22.657243,2.02574653 C22.6518069,2.56684729 22.4394972,3.07193941 22.0592248,3.44793832 L10.4645317,14.9125807 C11.3466469,16.8347098 10.808713,19.1942468 9.05098486,21.0036435 C7.88678863,22.2020887 5.56928197,22.940191 3.78868639,23.2312484 C3.56534482,23.26778 3.22664299,23.3093916 2.84352124,23.3093916 Z M6.2838727,12.8621054 C5.0800054,12.8621054 3.81433012,13.4367494 2.75709237,14.5250769 C1.89945198,15.4078862 1.13021307,17.3722246 0.797429016,19.5295305 C0.662854215,20.4017315 0.703767292,21.5238264 1.22212137,22.0574565 C1.73937957,22.5898165 2.82737519,22.6318017 3.67332612,22.4935943 C5.76800263,22.1511387 7.67542875,21.359621 8.53263078,20.47726 C10.1354736,18.8272874 10.592312,16.6835034 9.69646172,15.0156759 C9.61719263,14.8679808 9.64429754,14.6843516 9.76272629,14.5672862 L21.5513912,2.91094643 C21.7900021,2.67509732 21.9231888,2.35804201 21.9266146,2.01835057 C21.9299102,1.67865912 21.8029336,1.35891437 21.5689254,1.11805991 C21.3363784,0.878699585 21.0277038,0.747365175 20.6985727,0.747365175 C20.6942622,0.747365175 20.6900979,0.747365175 20.6858604,0.747365175 C20.3519074,0.750876391 20.040895,0.888934405 19.8101745,1.13621364 L8.49843914,13.2587233 C8.38359028,13.3816906 8.20189239,13.4099297 8.05650484,13.3272294 C7.50673536,13.0143577 6.90348665,12.8621054 6.2838727,12.8621054 Z" id="Shape" fill="#333333"></path>
                    </g>
                    <g transform="translate(0, 9.4778)">
                        <path d="M15.6908958,19.3646536 L15.6908958,19.3646536 C7.22678372,19.3646536 0.365368393,12.3484228 0.365368393,3.69350013 L0.365368393,1.11806074 C0.365368393,0.706949671 0.691284891,0.373608296 1.09340199,0.373608296 L30.2883896,0.373608296 C30.6904336,0.373608296 31.0164232,0.706874965 31.0164232,1.11806074 L31.0164232,3.69350013 C31.0164232,12.3484228 24.1549348,19.3646536 15.6908958,19.3646536 Z" id="Path" fill="#F7F7F7"></path>
                        <path d="M1.67575582,3.67250755 L1.67575582,0.373608296 L1.09332894,0.373608296 C0.691284891,0.373608296 0.365295334,0.707323205 0.365295334,1.11903193 L0.365295334,3.67250755 C0.365295334,12.3390098 7.22678372,19.3646536 15.6908227,19.3646536 L15.6908227,19.3646536 C15.9104383,19.3646536 16.1286657,19.3588265 16.3460164,19.3494135 C8.18612233,18.9978437 1.67575582,12.1141425 1.67575582,3.67250755 Z" id="Path" fill="#EDEDED"></path>
                        <path d="M15.6908958,19.7381872 C11.4997163,19.7381872 7.55942165,18.0692392 4.5957806,15.0388358 C1.63213955,12.0083578 0,7.97920042 0,3.69342543 L0,1.11798603 C0,0.501506197 0.490445516,0 1.09332894,0 L30.2883165,0 C30.8911269,0 31.3816455,0.501506197 31.3816455,1.11798603 L31.3816455,3.69342543 C31.3816455,7.97912571 29.7495059,12.0083578 26.7859379,15.0387611 C23.8223699,18.0691644 19.8820753,19.7381872 15.6908958,19.7381872 Z M1.09332894,0.747141886 C0.893293211,0.747141886 0.730590669,0.913588453 0.730590669,1.11806074 L0.730590669,3.69350013 C0.730590669,12.1286357 7.44172349,18.9911948 15.6908227,18.9911948 L15.6908227,18.9911948 C23.939922,18.9911948 30.6510548,12.1287104 30.6510548,3.69350013 L30.6510548,1.11806074 C30.6510548,0.913588453 30.4883523,0.747141886 30.2883165,0.747141886 L1.09332894,0.747141886 Z" id="Shape" fill="#333333"></path>
                    </g>
                    <g transform="translate(0, 12.7768)">
                        <path d="M15.6908227,16.0656797 L15.6908227,16.0656797 C24.1549348,16.0656797 31.0163501,9.04011052 31.0163501,0.373533589 L0.365295334,0.373533589 C0.365295334,9.04003581 7.22678372,16.0656797 15.6908227,16.0656797 Z" id="Path" fill="#FFD766"></path>
                        <path d="M1.67575582,0.373533589 L0.365295334,0.373533589 C0.365295334,9.04003581 7.22678372,16.0656797 15.6908227,16.0656797 L15.6908227,16.0656797 C15.9104383,16.0656797 16.1286657,16.0598526 16.3460164,16.0504395 C8.18612233,15.6988697 1.67575582,8.8152433 1.67575582,0.373533589 Z" id="Path" fill="#FFC533"></path>
                        <path d="M15.6908958,16.4392133 L15.6908958,16.4392133 C11.4995702,16.4392133 7.55920247,14.768024 4.59563448,11.7335118 C1.63206649,8.69914906 0,4.66476217 0,0.373533589 C0,0.167193635 0.163579251,0 0.365295334,0 L31.0164232,0 C31.2181393,0 31.3817185,0.167193635 31.3817185,0.373533589 C31.3817185,4.66468747 29.749652,8.69907435 26.7861571,11.7335118 C23.8225161,14.768024 19.8821483,16.4392133 15.6908958,16.4392133 Z M0.735047272,0.747067179 C0.929238272,9.02203149 7.56365908,15.6921461 15.6908958,15.6921461 C23.8182056,15.6921461 30.4525533,9.02203149 30.6467443,0.747067179 L0.735047272,0.747067179 Z" id="Shape" fill="#333333"></path>
                    </g>
                    <g transform="translate(8.0453, 26.7762)">
                        <rect id="Rectangle" fill="#E0E0E0" x="0.365295334" y="0.373458883" width="14.5605259" height="3.47677594"></rect>
                        <rect id="Rectangle" fill="#C9C9C9" x="0.365295334" y="0.373458883" width="1.31046048" height="3.47677594"></rect>
                        <path d="M14.9257482,4.22376842 L0.365295334,4.22376842 C0.163579251,4.22376842 0,4.05657478 0,3.85023483 L0,0.373533589 C0,0.167193635 0.163579251,0 0.365295334,0 L14.9257482,0 C15.1274643,0 15.2910435,0.167193635 15.2910435,0.373533589 L15.2910435,3.85023483 C15.2910435,4.05657478 15.1275373,4.22376842 14.9257482,4.22376842 Z M0.730590669,3.47670124 L14.5604529,3.47670124 L14.5604529,0.747067179 L0.730590669,0.747067179 L0.730590669,3.47670124 Z" id="Shape" fill="#333333"></path>
                    </g>
                    <g transform="translate(5.7161, 14.8982)" fill="#333333" id="Path">
                        <path d="M14.1977876,5.1799397 C13.9960716,5.1799397 13.8324923,5.01274606 13.8324923,4.80640611 L13.8324923,4.10080116 C13.8324923,3.8944612 13.9960716,3.72726757 14.1977876,3.72726757 C14.3995037,3.72726757 14.563083,3.8944612 14.563083,4.10080116 L14.563083,4.80640611 C14.563083,5.01267136 14.3995037,5.1799397 14.1977876,5.1799397 Z"></path>
                        <path d="M9.10162549,10.3979798 C8.89990941,10.3979798 8.73633016,10.2307862 8.73633016,10.0244462 L8.73633016,9.31876658 C8.73633016,9.11242662 8.89990941,8.94523299 9.10162549,8.94523299 C9.30334158,8.94523299 9.46692083,9.11242662 9.46692083,9.31876658 L9.46692083,10.0244462 C9.46692083,10.2307862 9.30334158,10.3979798 9.10162549,10.3979798 Z"></path>
                        <path d="M0.365295334,6.67086167 C0.163579251,6.67086167 0,6.50366803 0,6.29732808 L0,5.59164842 C0,5.38530847 0.163579251,5.21811483 0.365295334,5.21811483 C0.567011418,5.21811483 0.730590669,5.38530847 0.730590669,5.59164842 L0.730590669,6.29732808 C0.730590669,6.50359333 0.567011418,6.67086167 0.365295334,6.67086167 Z"></path>
                        <path d="M4.73349694,1.45274684 C4.53178086,1.45274684 4.36820161,1.2855532 4.36820161,1.07921325 L4.36820161,0.373533589 C4.36820161,0.167193635 4.53178086,0 4.73349694,0 C4.93521303,0 5.09879228,0.167193635 5.09879228,0.373533589 L5.09879228,1.07921325 C5.09879228,1.2855532 4.93521303,1.45274684 4.73349694,1.45274684 Z"></path>
                        <path d="M19.3667897,8.16170893 C19.1650736,8.16170893 19.0014943,7.9945153 19.0014943,7.78817534 L19.0014943,7.08249568 C19.0014943,6.87615573 19.1650736,6.70896209 19.3667897,6.70896209 C19.5685058,6.70896209 19.732085,6.87615573 19.732085,7.08249568 L19.732085,7.78817534 C19.732085,7.99444059 19.5685058,8.16170893 19.3667897,8.16170893 Z"></path>
                    </g>
                    <g transform="translate(16.5014, 22.6778)">
                        <path d="M0.365295334,0.373458883 C0.365295334,1.40104979 1.18180347,2.23709267 2.18541587,2.23709267 C3.18895521,2.23709267 4.00539028,1.40104979 4.00539028,0.373458883 L0.365295334,0.373458883 Z" id="Path" fill="#9CCC65"></path>
                        <path d="M2.18541587,2.61062626 C0.980379618,2.61062626 0,1.60701621 0,0.373533589 C0,0.167193635 0.163579251,0 0.365295334,0 L4.00539028,0 C4.20710637,0 4.37068562,0.167193635 4.37068562,0.373533589 C4.37068562,1.60701621 3.39037906,2.61062626 2.18541587,2.61062626 Z M0.776837058,0.746992472 C0.939101246,1.38842435 1.50903503,1.86348437 2.18541587,1.86348437 C2.86165059,1.86348437 3.43158437,1.38842435 3.59384856,0.746992472 L0.776837058,0.746992472 Z" id="Shape" fill="#333333"></path>
                    </g>
                    <g transform="translate(9.1699, 20.5107)">
                        <path d="M1.67582888,3.05714831 C0.953201646,3.05714831 0.365368393,2.45516158 0.365368393,1.71534095 C0.365368393,0.975520322 0.953201646,0.373533589 1.67582888,0.373533589 C2.39838305,0.373533589 2.9862163,0.975445616 2.9862163,1.71534095 C2.9862163,2.45523628 2.39838305,3.05714831 1.67582888,3.05714831 Z" id="Path" fill="#ED4848"></path>
                        <path d="M1.67582888,3.4306819 C0.751777798,3.4306819 0,2.6612027 0,1.71534095 C0,0.769479194 0.751777798,0 1.67582888,0 C2.59980689,0 3.35151163,0.769479194 3.35151163,1.71534095 C3.35151163,2.6612027 2.59980689,3.4306819 1.67582888,3.4306819 Z M1.67582888,0.747141886 C1.15462549,0.747141886 0.730590669,1.18148674 0.730590669,1.71541566 C0.730590669,2.24934457 1.15462549,2.68368943 1.67582888,2.68368943 C2.1969592,2.68368943 2.62092097,2.24934457 2.62092097,1.71541566 C2.62092097,1.18148674 2.1969592,0.747141886 1.67582888,0.747141886 Z" id="Shape" fill="#333333"></path>
                    </g>
                    <g transform="translate(22.6051, 15.9579)">
                        <path d="M1.67582888,3.05714831 C0.953201646,3.05714831 0.365368393,2.45516158 0.365368393,1.71534095 C0.365368393,0.975445616 0.953274705,0.373533589 1.67582888,0.373533589 C2.39838305,0.373533589 2.9862163,0.975445616 2.9862163,1.71534095 C2.9862163,2.45516158 2.39838305,3.05714831 1.67582888,3.05714831 Z" id="Path" fill="#ED4848"></path>
                        <path d="M1.67582888,3.4306819 C0.751777798,3.4306819 0,2.661128 0,1.71526624 C0,0.769479194 0.751777798,0 1.67582888,0 C2.59980689,0 3.35151163,0.769479194 3.35151163,1.71526624 C3.35151163,2.661128 2.59980689,3.4306819 1.67582888,3.4306819 Z M1.67582888,0.747067179 C1.15462549,0.747067179 0.730590669,1.18133733 0.730590669,1.71526624 C0.730590669,2.24919516 1.15462549,2.68361472 1.67582888,2.68361472 C2.1969592,2.68361472 2.62092097,2.24926986 2.62092097,1.71526624 C2.62092097,1.18141204 2.1969592,0.747067179 1.67582888,0.747067179 Z" id="Shape" fill="#333333"></path>
                    </g>
                    <g transform="translate(4.0738, 15.2927)">
                        <path d="M1.67575582,3.05714831 C0.953128586,3.05714831 0.365295334,2.45516158 0.365295334,1.71534095 C0.365295334,0.975445616 0.953128586,0.373533589 1.67575582,0.373533589 C2.39830999,0.373533589 2.98614324,0.975445616 2.98614324,1.71534095 C2.98614324,2.45516158 2.39830999,3.05714831 1.67575582,3.05714831 Z" id="Path" fill="#ED4848"></path>
                        <path d="M1.67575582,3.4306819 C0.751777798,3.4306819 0,2.6612027 0,1.71534095 C0,0.769479194 0.751777798,0 1.67575582,0 C2.59973384,0 3.35151163,0.769479194 3.35151163,1.71534095 C3.35151163,2.6612027 2.59973384,3.4306819 1.67575582,3.4306819 Z M1.67575582,0.747067179 C1.15462549,0.747067179 0.730590669,1.18141204 0.730590669,1.71534095 C0.730590669,2.24926986 1.15462549,2.68361472 1.67575582,2.68361472 C2.19688614,2.68361472 2.62092097,2.24926986 2.62092097,1.71534095 C2.62092097,1.18141204 2.19688614,0.747067179 1.67575582,0.747067179 Z" id="Shape" fill="#333333"></path>
                    </g>
                    <g transform="translate(13.1426, 14.778)">
                        <path d="M4.48519786,1.16512597 C4.2172172,1.02490146 3.79084448,1.20143344 3.36695578,1.58318477 C3.23917547,0.875263907 2.92093017,0.373533589 2.54832893,0.373533589 C2.17572769,0.373533589 1.85755546,0.875338614 1.72970209,1.58318477 C1.30581338,1.20143344 0.879367609,1.02490146 0.611460011,1.16512597 C0.191224259,1.38506255 0.319735157,2.30007043 0.898655203,3.20895236 C1.4110915,4.01346901 2.10434898,4.27441957 2.54832893,4.23288264 C2.99230888,4.27434486 3.68556637,4.0133943 4.19800266,3.20895236 C4.77684965,2.30007043 4.90543361,1.38506255 4.48519786,1.16512597 Z" id="Path" fill="#9CCC65"></path>
                        <path d="M2.63629205,4.61030097 C2.60611866,4.61030097 2.57689503,4.60932979 2.54825587,4.60746212 C2.01200232,4.64339605 1.19147594,4.35308575 0.592464654,3.41275229 C0.117653778,2.66725395 -0.0942905748,1.88544815 0.0394075175,1.37221299 C0.103991733,1.1243361 0.244265141,0.937718723 0.445031457,0.832606371 C0.739240319,0.678486412 1.1149831,0.728166379 1.51658879,0.964239608 C1.73803082,0.357994592 2.11033983,0 2.54825587,0 C2.98617192,0 3.35855398,0.357994592 3.57999602,0.964239608 C3.98152865,0.728166379 4.35734449,0.678635825 4.65155335,0.832606371 L4.65155335,0.832606371 C4.85239273,0.937644016 4.99259307,1.1242614 5.05717729,1.37221299 C5.19087538,1.88544815 4.97893103,2.66732866 4.50404709,3.41275229 C3.93703568,4.30303224 3.17152277,4.61030097 2.63629205,4.61030097 Z M0.818509407,1.49062314 C0.799806286,1.49062314 0.78614424,1.49323788 0.777961625,1.49757087 C0.769486773,1.50205327 0.755751668,1.52476411 0.74545034,1.56443338 C0.681450597,1.8104426 0.797833691,2.36611117 1.20477269,3.00507773 C1.66906306,3.73391647 2.24681416,3.88586993 2.51516012,3.86084318 C2.53729701,3.8588261 2.55950697,3.8588261 2.58164387,3.86084318 C2.85057429,3.88699053 3.42781398,3.73391647 3.89203129,3.00507773 C4.29897029,2.36611117 4.41542645,1.8104426 4.35135364,1.56443338 C4.34097926,1.52483882 4.32731721,1.50205327 4.31891542,1.49764557 C4.31891542,1.49764557 4.31884236,1.49764557 4.31884236,1.49757087 C4.26748184,1.47112469 4.0037386,1.50758157 3.60841599,1.86348437 C3.50964014,1.95231066 3.37185074,1.98025097 3.24757726,1.9360993 C3.12330379,1.89217175 3.03168772,1.78317465 3.0077974,1.65094376 C2.89389832,1.01997082 2.64849291,0.746992472 2.54840199,0.746992472 C2.44838413,0.746992472 2.20297872,1.01997082 2.08900658,1.65101847 C2.06511626,1.78332406 1.97350019,1.89224646 1.84922672,1.93617401 C1.72495325,1.98010156 1.58709079,1.95246007 1.48838799,1.86348437 C1.15611535,1.56443338 0.91691997,1.49062314 0.818509407,1.49062314 Z" id="Shape" fill="#333333"></path>
                    </g>
                </g>
                <g id="Group" transform="translate(7, 0)">
                    <g transform="translate(6.173, 0)">
                        <path d="M1.45026313,6.12653032 L1.45026313,6.12653032 C1.52506684,5.26020031 1.29306695,4.3948582 0.787483759,3.65462835 L0.752405005,3.60325683 C-0.00941570991,2.48783135 0.460236926,1.02437788 1.76558474,0.446236497 L1.97644445,0.352808058 L2.08570741,1.00553695 C2.17708253,1.55178283 2.38987815,2.07587121 2.71131724,2.5464711 L2.89863624,2.82075837 C3.75980804,4.08176003 3.03600867,5.73383451 1.45026313,6.12653032 L1.45026313,6.12653032 Z" id="Path" fill="#F7F7F7"></path>
                        <path d="M2.22191829,5.4224299 L2.22191829,5.4224299 L2.22191829,5.4224299 C2.29672199,4.55609988 2.06472211,3.69075778 1.55913891,2.95052793 L1.52406016,2.8991564 C1.01522463,2.15412811 1.05642087,1.25413846 1.52847404,0.566056352 C0.405876473,1.20784763 0.0386723836,2.55825551 0.752405005,3.60325683 L0.787483759,3.65462835 C1.29306695,4.39492877 1.52506684,5.26027087 1.45026313,6.12653032 L1.45026313,6.12653032 L1.45026313,6.12653032 C2.0846233,5.96938143 2.58060436,5.61048639 2.89275107,5.15590481 C2.69149349,5.27071453 2.46700495,5.36174375 2.22191829,5.4224299 Z" id="Path" fill="#EDEDED"></path>
                        <path d="M1.45026313,6.47935675 C1.36105624,6.47935675 1.27347551,6.45127177 1.20316312,6.39820667 C1.10621257,6.32495991 1.05433009,6.21332562 1.06424197,6.09886873 C1.13300562,5.30253948 0.923617202,4.52180515 0.458688195,3.84106184 L0.423532005,3.78961975 C0.00436799483,3.17598402 -0.110238089,2.42651012 0.109139638,1.73334731 C0.330375843,1.03425702 0.872431647,0.4494825 1.59615358,0.128904406 L1.80709073,0.0355465322 C1.91767011,-0.0135669068 2.04737632,-0.0116616441 2.15632954,0.0404861022 C2.26528275,0.0926338486 2.34047364,0.188884899 2.35905841,0.299672398 L2.46832137,0.952401293 C2.55226258,1.45412048 2.74461496,1.92775468 3.0398805,2.36003762 L3.2271995,2.63439545 C3.7001819,3.32692317 3.78404568,4.15888789 3.45726347,4.91697076 C3.12653199,5.68408598 2.4319262,6.24910222 1.55170501,6.46714896 C1.51832986,6.47533453 1.48418034,6.47935675 1.45026313,6.47935675 Z M1.67622297,0.899689024 C1.2798253,1.14476226 0.986340802,1.50845575 0.853304821,1.92888372 C0.692314247,2.4375183 0.773157998,2.96598173 1.08112313,3.41682334 L1.11627932,3.46826543 C1.56061021,4.11887737 1.80863946,4.84640547 1.84642849,5.59898424 C2.24956314,5.38905252 2.56271652,5.06240581 2.73663899,4.65884294 C2.97305276,4.1104801 2.91226507,3.50841708 2.56984068,3.00712129 L2.38252168,2.73283402 C2.03142439,2.21883648 1.80275428,1.6555138 1.70286114,1.05867261 L1.67622297,0.899689024 Z" id="Shape" fill="#333333"></path>
                    </g>
                    <g transform="translate(0, 3.5206)">
                        <path d="M1.45010539,6.12650924 L1.45010539,6.12650924 C1.52490909,5.26017922 1.29290921,4.39483712 0.787326018,3.65460727 L0.752247264,3.60323574 C-0.0095734505,2.48781026 0.460079186,1.0243568 1.765427,0.44621541 L1.97628671,0.352786971 L2.08554967,1.00551587 C2.17692479,1.55176175 2.38972041,2.07585012 2.7111595,2.54645002 L2.8984785,2.82073728 C3.7596503,4.08173894 3.03585093,5.73381342 1.45010539,6.12650924 L1.45010539,6.12650924 Z" id="Path" fill="#F7F7F7"></path>
                        <path d="M2.22176055,5.42240881 L2.22176055,5.42240881 L2.22176055,5.42240881 C2.29656425,4.5560788 2.06456437,3.69073669 1.55898117,2.95050684 L1.52390242,2.89913532 C1.01506689,2.15410703 1.05626313,1.25411737 1.5283163,0.566035266 C0.405718732,1.20782654 0.038514643,2.55823442 0.752247264,3.60323574 L0.787326018,3.65460727 C1.29290921,4.39490768 1.52490909,5.26024978 1.45010539,6.12650924 L1.45010539,6.12650924 L1.45010539,6.12650924 C2.08446556,5.96936034 2.58036918,5.6104653 2.89259332,5.15588373 C2.69133575,5.27069345 2.46684721,5.36172267 2.22176055,5.42240881 Z" id="Path" fill="#EDEDED"></path>
                        <path d="M1.45010539,6.47940623 C1.36097593,6.47940623 1.27331776,6.45132125 1.20308282,6.39825615 C1.10605483,6.32500938 1.05424978,6.2133751 1.06416166,6.09891821 C1.13292531,5.30258896 0.923536898,4.52178407 0.458607891,3.84104075 L0.423606574,3.78981036 C0.00436512732,3.17589237 -0.110240957,2.42641847 0.109136771,1.73325566 C0.330450412,1.03423594 0.872428779,0.449461413 1.59622815,0.128883319 L1.80701042,0.0355254457 C1.91766724,-0.0134468628 2.04729602,-0.0117532959 2.15632667,0.0403944504 C2.26527989,0.0924716315 2.34054821,0.188722682 2.35913298,0.299580746 L2.46839594,0.952380206 C2.55233715,1.45402882 2.74461209,1.92766302 3.03995507,2.35994597 L3.22727407,2.63437436 C3.70025647,3.32690208 3.78412025,4.1588668 3.45733804,4.91694967 C3.12660656,5.68406489 2.43200076,6.24908114 1.55177958,6.46712787 C1.51817212,6.47531344 1.4840226,6.47940623 1.45010539,6.47940623 Z M1.67606523,0.899667938 C1.27966756,1.14481174 0.986105625,1.50843466 0.853069644,1.92879207 C0.69207907,2.43749722 0.772922821,2.96589008 1.08088795,3.41680225 L1.11588927,3.46803265 C1.56029759,4.11885628 1.80840428,4.84645495 1.84619331,5.59903372 C2.24932796,5.389102 2.56248134,5.06245529 2.73648125,4.65882185 C2.97289502,4.11045902 2.91210733,3.50846656 2.56968294,3.00717077 L2.38236394,2.73281294 C2.03126665,2.21881539 1.80259654,1.65549272 1.70278083,1.05872209 L1.67606523,0.899667938 Z" id="Shape" fill="#333333"></path>
                    </g>
                    <g transform="translate(12.3463, 3.5206)">
                        <path d="M1.45018283,6.12650924 L1.45018283,6.12650924 C1.52498653,5.26017922 1.29298665,4.39483712 0.787403455,3.65460727 L0.752324701,3.60323574 C-0.00949601396,2.48781026 0.460156622,1.0243568 1.76550443,0.44621541 L1.97636414,0.352786971 L2.08562711,1.00551587 C2.17700223,1.55176175 2.38979785,2.07585012 2.71123694,2.54645002 L2.89855594,2.82073728 C3.75972774,4.08173894 3.03592837,5.73381342 1.45018283,6.12650924 L1.45018283,6.12650924 Z" id="Path" fill="#F7F7F7"></path>
                        <path d="M2.22183799,5.42240881 L2.22183799,5.42240881 L2.22183799,5.42240881 C2.29664169,4.5560788 2.0646418,3.69073669 1.55905861,2.95050684 L1.52397986,2.89913532 C1.01514433,2.15410703 1.05634057,1.25411737 1.52839374,0.566035266 C0.405796169,1.20782654 0.0385920795,2.55823442 0.752324701,3.60323574 L0.787403455,3.65460727 C1.29298665,4.39490768 1.52498653,5.26024978 1.45018283,6.12650924 L1.45018283,6.12650924 L1.45018283,6.12650924 C2.08454299,5.96936034 2.58044662,5.6104653 2.89267076,5.15588373 C2.69141319,5.27069345 2.46692465,5.36172267 2.22183799,5.42240881 Z" id="Path" fill="#EDEDED"></path>
                        <path d="M1.45018283,6.47940623 C1.36097593,6.47940623 1.2733952,6.45132125 1.20308282,6.39825615 C1.10613227,6.32507995 1.05424978,6.2133751 1.06416166,6.09891821 C1.13292531,5.30258896 0.923536898,4.52178407 0.458607891,3.84104075 L0.423606574,3.78981036 C0.00436512732,3.17589237 -0.110240957,2.42641847 0.109136771,1.73325566 C0.330450412,1.03423594 0.872428779,0.449461413 1.59622815,0.128883319 L1.80701042,0.0355254457 C1.91766724,-0.0134468628 2.04737345,-0.0117532959 2.15632667,0.0403944504 C2.26527989,0.0924716315 2.34054821,0.188722682 2.35913298,0.299580746 L2.46839594,0.952380206 C2.55233715,1.45395826 2.74461209,1.92759246 3.03995507,2.36001653 L3.22727407,2.63437436 C3.70025647,3.32690208 3.78412025,4.1588668 3.45733804,4.91694967 C3.12660656,5.68406489 2.43200076,6.24908114 1.55177958,6.46712787 C1.51824955,6.47531344 1.48410004,6.47940623 1.45018283,6.47940623 Z M1.67614266,0.899667938 C1.279745,1.14481174 0.986183062,1.50843466 0.85314708,1.92879207 C0.692156506,2.43749722 0.773000258,2.96589008 1.08096539,3.41680225 L1.11596671,3.46803265 C1.56037503,4.11878572 1.80848172,4.84645495 1.84627075,5.59903372 C2.2494054,5.389102 2.56248134,5.06245529 2.73648125,4.65882185 C2.97289502,4.11045902 2.91210733,3.50846656 2.56968294,3.00717077 L2.38236394,2.73281294 C2.03126665,2.21874483 1.80259654,1.65542215 1.70278083,1.05872209 L1.67614266,0.899667938 Z" id="Shape" fill="#333333"></path>
                    </g>
                </g>
                <g id="Group" transform="translate(6, 9)" fill="#333333">
                    <path d="M9.38225533,1.81759417 C9.17673331,1.81759417 9.01006768,1.66369247 9.01006768,1.4737566 L9.01006768,0.343837571 C9.01006768,0.153901697 9.17673331,0 9.38225533,0 C9.58777736,0 9.75444299,0.153901697 9.75444299,0.343837571 L9.75444299,1.4737566 C9.75444299,1.66369247 9.58777736,1.81759417 9.38225533,1.81759417 Z" id="Path"></path>
                    <path d="M11.6278123,4 C11.4222903,4 11.2556247,3.8460983 11.2556247,3.65616243 L11.2556247,2.5262434 C11.2556247,2.33630753 11.4222903,2.18240583 11.6278123,2.18240583 C11.8333344,2.18240583 12,2.33630753 12,2.5262434 L12,3.65616243 C12,3.84602954 11.8333344,4 11.6278123,4 Z" id="Path"></path>
                    <path d="M0.372187657,3.73895852 C0.166665633,3.73895852 0,3.58505682 0,3.39512094 L0,2.26520192 C0,2.07526604 0.166665633,1.92136435 0.372187657,1.92136435 C0.577709681,1.92136435 0.744375314,2.07526604 0.744375314,2.26520192 L0.744375314,3.39512094 C0.744375314,3.58498805 0.577709681,3.73895852 0.372187657,3.73895852 Z" id="Path"></path>
                    <path d="M5.98931821,4 C5.78379619,4 5.61713056,3.8460983 5.61713056,3.65616243 L5.61713056,2.5262434 C5.61713056,2.33630753 5.78379619,2.18240583 5.98931821,2.18240583 C6.19484024,2.18240583 6.36150587,2.33630753 6.36150587,2.5262434 L6.36150587,3.65616243 C6.36150587,3.84602954 6.19484024,4 5.98931821,4 Z" id="Path"></path>
                </g>
            </g>
        </g>
    </g>
</svg>