<?xml version="1.0" encoding="UTF-8"?>
<svg width="25px" height="22px" viewBox="0 0 25 22" version="1.1" xmlns="http://www.w3.org/2000/svg" xmlns:xlink="http://www.w3.org/1999/xlink">
    <title>CCF82D4D-81F4-4522-A747-E2C188F461F9</title>
    <g id="WEB" stroke="none" stroke-width="1" fill="none" fill-rule="evenodd">
        <g id="HOMEPAGE" transform="translate(-1349.000000, -30.000000)" fill="#FFFFFF" fill-rule="nonzero">
            <g id="Group-5" transform="translate(1255.000000, 29.000000)">
                <g id="ICON/cart-Copy-2" transform="translate(94.679933, 1.000000)">
                    <path d="M0.436539561,1.10087358 L2.47611459,1.55729831 L3.00024139,4.09856475 C3.00043162,4.10166573 3.00100235,4.10166573 3.00138281,4.10379771 L5.60063682,16.0964081 C5.65580601,16.350882 5.87743733,16.5322528 6.13333511,16.5322528 L20.8543729,16.5322528 C21.5924947,16.5431409 21.5924947,15.4095383 20.8543729,15.4208011 L6.57164967,15.4208011 L5.60063682,11.8285617 L21.8545182,11.8285617 C22.1103916,11.8285617 22.3720064,11.4860057 22.4273899,11.2315318 L23.9869584,4.10350002 C24.062105,3.75657714 23.8029977,3.42788306 23.4542601,3.42788306 C16.9613605,3.42807686 10.4684609,3.42788306 3.97604828,3.42478208 L3.47115861,0.976743536 C3.42702277,0.762775838 3.26379686,0.594935854 3.05415101,0.548034135 L0.670986078,0.0150623062 C0.635601431,0.00672835738 0.599263206,0.00149538971 0.562926929,0.000332397742 C-0.104691252,-0.0207185506 -0.217679003,0.964628871 0.436539561,1.10087358 Z M9.62331068,17.70566 C8.55606344,17.70566 7.68074927,18.6010745 7.68074927,19.6891468 C7.68074927,20.7770206 8.55606344,21.6726335 9.62331068,21.6726335 C10.6905579,21.6726335 11.5658721,20.777219 11.5658721,19.6891468 C11.5658721,18.6010745 10.6905579,17.70566 9.62331068,17.70566 Z M17.4467385,17.70566 C16.3794912,17.70566 15.5041771,18.6010745 15.5041771,19.6891468 C15.5041771,20.7770206 16.3794912,21.6726335 17.4467385,21.6726335 C18.5139857,21.6726335 19.3892999,20.777219 19.3892999,19.6891468 C19.3892999,18.6010745 18.5139857,17.70566 17.4467385,17.70566 Z" id="Shape"></path>
                </g>
            </g>
        </g>
    </g>
</svg>