<?xml version="1.0" encoding="UTF-8"?>
<svg width="26px" height="35px" viewBox="0 0 26 35" version="1.1" xmlns="http://www.w3.org/2000/svg" xmlns:xlink="http://www.w3.org/1999/xlink">
    <title>29C95C10-93A6-4F37-8D80-EDAD34CC6484</title>
    <g id="WEB" stroke="none" stroke-width="1" fill="none" fill-rule="evenodd">
        <g id="Style-Guide-TRC" transform="translate(-119, -316)" fill-rule="nonzero">
            <g id="3943438_bag_christmas_gift_market_present_icon" transform="translate(119, 316)">
                <path d="M15.4761905,30.4545455 C8.90137203,30.4545455 3.57142857,25.1633652 3.57142857,18.6363636 L3.57142857,8 L2.38095238,8 C1.06598869,8 0,9.05823605 0,10.3636364 L0,31.6363636 C0,32.941764 1.06598869,34 2.38095238,34 L22.6190476,34 C23.9340113,34 25,32.941764 25,31.6363636 L25,30.4545455 L15.4761905,30.4545455 Z" id="Path" fill="#CFF09E"></path>
                <path d="M11.8719422,1.00119324 C8.00022783,1.15456404 4.95333575,4.40329892 5.00054116,8.32779341 L5.00054116,12.8182903 C5.00054116,13.4709305 5.52285542,14 6.16716272,14 L6.16716272,14 C6.81147002,14 7.33378428,13.4709305 7.33378428,12.8182903 L7.33378428,8.26279938 C7.29065049,5.72422228 9.19400758,3.58461036 11.6911158,3.36461265 C12.9813818,3.27783318 14.24935,3.73725805 15.1925473,4.63329164 C16.1357445,5.52932522 16.6695979,6.7816236 16.6667568,8.09145147 L16.6667568,12.8182903 C16.6667568,13.4709305 17.189071,14 17.8333783,14 L17.8333783,14 C18.4776856,14 19,13.4709305 19,12.8182903 L19,8.09145147 C19.0003157,6.18825798 18.2452566,4.3648405 16.9046656,3.03135856 C15.5640746,1.69787662 13.7505198,0.966301329 11.8719422,1.00119324 Z" id="Path" fill="#A8DBA8"></path>
                <path d="M9.57142857,25 L16.4285714,25 C16.7441627,25 17,25.2442083 17,25.5454545 L17,31 L9,31 L9,25.5454545 C9,25.2442083 9.25583729,25 9.57142857,25 Z" id="Path" fill="#A8DBA8"></path>
                <rect id="Rectangle" fill="#79BD9A" x="12" y="25" width="3" height="6"></rect>
                <path d="M5,27 L9,27 L9,32 L6.33333333,32 C5.59695367,32 5,31.4403559 5,30.75 L5,27 Z" id="Path" fill="#79BD9A"></path>
                <path d="M17,27 L20.4285714,27 C20.7441627,27 21,27.2984768 21,27.6666667 L21,29.6666667 C21,30.4030463 20.4883254,31 19.8571429,31 L17,31 L17,27 Z" id="Path" fill="#79BD9A"></path>
                <path d="M23.0454545,8.16737571 L20.6818182,8.16737571 L20.6818182,7.58405779 C20.688805,5.54702996 19.8595208,3.59410108 18.3831818,2.1708675 C16.9076066,0.750295574 14.919052,-0.0307088233 12.8581818,0.000924835516 C8.61569293,0.161766043 5.27346187,3.62654268 5.31818182,7.81738496 L5.31818182,8.16737571 L2.95454545,8.16737571 C1.32279506,8.16737571 0,9.47317735 0,11.0839653 L0,32.0834104 C0,33.6941984 1.32279506,35 2.95454545,35 L23.0454545,35 C24.6772049,35 26,33.6941984 26,32.0834104 L26,11.0839653 C26,9.47317735 24.6772049,8.16737571 23.0454545,8.16737571 Z M6.5,7.81738496 C6.45220203,4.26057023 9.28139406,1.31256555 12.8818182,1.16756067 C14.6261101,1.1362485 16.3099346,1.7984219 17.5546022,3.00515906 C18.7992698,4.21189622 19.5002884,5.86188947 19.5000001,7.58405779 L19.5000001,12.2506011 C19.5000001,12.5727587 19.235441,12.8339191 18.9090909,12.8339191 C18.5827408,12.8339191 18.3181818,12.5727587 18.3181818,12.2506011 L18.3181818,7.58405779 C18.3146438,6.13350768 17.7079443,4.74801134 16.64,3.75165906 C15.6573408,2.83700938 14.3565006,2.3296219 13.0059091,2.33419651 L12.6454545,2.33419651 C9.81218199,2.56680581 7.64410247,4.92360348 7.68181818,7.72988727 L7.68181818,12.2506011 C7.68181818,12.5727587 7.41725917,12.8339191 7.09090909,12.8339191 C6.76455901,12.8339191 6.5,12.5727587 6.5,12.2506011 L6.5,7.81738496 Z M17.1363742,8.16737571 L8.86363636,8.16737571 L8.86363636,7.74155363 C8.82087991,5.54656828 10.5069007,3.69359648 12.7222727,3.50083235 C13.8665784,3.42481299 14.9914912,3.82120903 15.8283677,4.59535605 C16.6652441,5.36950307 17.1389519,6.4519004 17.1363742,7.58405779 L17.1363742,8.16737571 Z M24.8181818,32.0834104 C24.8181818,33.0498832 24.0245048,33.8333642 23.0454545,33.8333642 L2.95454545,33.8333642 C1.97549522,33.8333642 1.18181818,33.0498832 1.18181818,32.0834104 L1.18181818,11.0839653 C1.18181818,10.1174925 1.97549522,9.33401155 2.95454545,9.33401155 L5.31818182,9.33401155 L5.31818182,12.2506011 C5.31818185,13.2170739 6.11185887,14.0005548 7.09090909,14.0005548 C8.06995931,14.0005548 8.86363633,13.2170739 8.86363636,12.2506011 L8.86363636,9.33401155 L17.1363636,9.33401155 L17.1363636,12.2506011 C17.1363636,13.2170739 17.9300407,14.0005549 18.9090909,14.0005549 C19.8881411,14.0005549 20.6818182,13.2170739 20.6818182,12.2506011 L20.6818182,9.33401155 L23.0454545,9.33401155 C24.0245048,9.33401155 24.8181818,10.1174925 24.8181818,11.0839653 L24.8181818,32.0834104 Z" id="Shape" fill="#3B8686"></path>
            </g>
        </g>
    </g>
</svg>