<?xml version="1.0" encoding="UTF-8"?>
<svg width="53px" height="34px" viewBox="0 0 53 34" version="1.1" xmlns="http://www.w3.org/2000/svg" xmlns:xlink="http://www.w3.org/1999/xlink">
    <title>822BB884-99DE-49C2-8033-0732893E5017</title>
    <g id="WEB" stroke="none" stroke-width="1" fill="none" fill-rule="evenodd">
        <g id="Style-Guide-TRC" transform="translate(-579, -317)">
            <g id="4698576_box_celebration_gift_package_party_icon" transform="translate(579, 317)">
                <g id="Boxes" transform="translate(4, 0)">
                    <g id="Big">
                        <g id="Bottom_84_" transform="translate(2.8085, 13.7831)" fill-rule="nonzero">
                            <rect id="Shadow_6_" fill="#D2D4E6" x="1.17021277" y="0.174472551" width="29.9081747" height="19.0424328"></rect>
                            <rect id="Shape_99_" stroke="#1E247E" fill="#DBE7FE" stroke-linecap="round" x="0" y="0.0124623251" width="29.9081747" height="19.0424328"></rect>
                            <polyline id="Stripe_6_" stroke="#1E247E" fill-opacity="0.597328453" fill="#DA867D" stroke-linecap="round" points="18.4154535 0 18.4154535 19.0424328 11.406495 19.0424328 11.406495 0"></polyline>
                        </g>
                        <g id="Top_85_">
                            <g id="Ribbon_bow_1_" transform="translate(9.0503, 0)" stroke="#1E247E" stroke-linecap="round">
                                <path d="M2.28226708,0.124386376 C3.3908897,-0.162247102 4.73355488,0.0122254497 5.95303976,1.00921146 C7.82538019,2.55453977 8.74923237,5.19655269 8.66300617,6.77926798 C8.62605208,7.43977121 4.93064334,7.11575076 2.7133981,5.98167917 C0.496152863,4.84760759 -0.57551567,2.8162486 0.311382426,1.44539284" id="Left_63_"></path>
                                <path d="M11.4591988,1.02167378 C9.58685835,2.5670021 8.66300617,5.20901502 8.74923237,6.79173031 C8.78618646,7.45223354 12.4815952,7.12821308 14.6988404,5.9941415 C16.9160857,4.86006992 17.9877542,2.82871092 17.1008561,1.45785516 C16.20164,0.0745370752 13.6148539,-0.760438707 11.4591988,1.02167378 Z" id="Right_61_"></path>
                            </g>
                            <path d="M2.64837626,13.9575672 C1.83538634,13.9575672 1.17021277,13.2846017 1.17021277,12.4620882 L1.17021277,8.00057584 C1.17021277,7.17806238 1.83538634,6.50509683 2.64837626,6.50509683 L35.2049272,6.50509683 C36.0179171,6.50509683 36.6830907,7.17806238 36.6830907,8.00057584 L36.6830907,12.4745506 C36.6830907,13.297064 36.0179171,13.9700296 35.2049272,13.9700296" id="Shadow_8_" fill="#D2D4E6" fill-rule="nonzero"></path>
                            <path d="M35.5128779,7.82610329 L35.5128779,12.300078 C35.5128779,13.1225915 34.8477044,13.795557 34.0347144,13.795557 L1.47816349,13.795557 C0.665173572,13.795557 0,13.1225915 0,12.300078 L0,7.82610329 C0,7.00358983 0.665173572,6.33062428 1.47816349,6.33062428 L34.0347144,6.33062428 C34.8477044,6.3430866 35.5128779,7.00358983 35.5128779,7.82610329 Z" id="Shape_98_" stroke="#1E247E" fill="#DBE7FE" fill-rule="nonzero" stroke-linecap="round"></path>
                            <rect id="Stripe_5_" stroke="#1E247E" fill-opacity="0.466346154" fill="#DA867D" fill-rule="nonzero" stroke-linecap="round" x="13.6114222" y="6.3929359" width="8.29003359" height="7.35277181"></rect>
                            <path d="M1.01007839,8.32459629 C1.01007839,7.91333957 1.34266517,7.57685679 1.74916013,7.57685679" id="Line:_top_left_1_" stroke="#1E247E" stroke-width="0.5" stroke-linecap="round"></path>
                            <g id="Lines_42_" transform="translate(5.8387, 9.2094)" stroke="#1E247E" stroke-linecap="round" stroke-width="0.3">
                                <line x1="0" y1="0.947136708" x2="0.985442329" y2="1.71980086" id="Bottom_83_"></line>
                                <line x1="0" y1="0" x2="1.95856663" y2="1.52040366" id="Middle_66_"></line>
                                <line x1="1.41657335" y1="0.124623251" x2="1.95856663" y2="0.548342305" id="Top_86_"></line>
                            </g>
                        </g>
                    </g>
                    <g id="Small_2_" transform="translate(22.5789, 14.1175)">
                        <g id="Bottom_81_" transform="translate(1.6013, 7.8534)">
                            <rect id="Shadow_3_" fill="#D2D4E6" fill-rule="nonzero" x="1.17021277" y="0.174472551" width="17.0481523" height="10.8546852"></rect>
                            <rect id="Shape_97_" stroke="#1E247E" fill-opacity="0.43397618" fill="#DA867D" fill-rule="nonzero" stroke-linecap="round" x="0" y="0" width="17.0481523" height="10.8546852"></rect>
                            <polyline id="Stripe_4_" stroke="#1E247E" fill="#F0C330" fill-rule="nonzero" stroke-linecap="round" points="10.5072788 0 10.5072788 10.8546852 6.5162374 10.8546852 6.5162374 0"></polyline>
                            <g id="Lines_41_" transform="translate(2.7592, 4.3743)" stroke="#1E247E" stroke-linecap="round" stroke-width="0.3">
                                <line x1="0" y1="0.947136708" x2="0.985442329" y2="1.71980086" id="Bottom_82_"></line>
                                <line x1="0" y1="0" x2="1.97088466" y2="1.52040366" id="Middle_65_"></line>
                                <line x1="1.42889138" y1="0.124623251" x2="1.97088466" y2="0.548342305" id="Top_84_"></line>
                            </g>
                        </g>
                        <g id="Top_83_">
                            <path d="M21.4210526,4.68794388 L21.4210526,7.11809728 C21.4210526,7.61659028 21.0145577,8.02784701 20.5218365,8.02784701 L2.06942889,8.02784701 C1.57670773,8.02784701 1.17021277,7.61659028 1.17021277,7.11809728 L1.17021277,4.68794388 C1.17021277,4.18945088 1.57670773,3.77819415 2.06942889,3.77819415 L20.5218365,3.77819415 C21.0145577,3.77819415 21.4210526,4.17698855 21.4210526,4.68794388 Z" id="Shadow_1_" fill="#D2D4E6" fill-rule="nonzero"></path>
                            <g id="Ribbon_bow" transform="translate(5.1432, 0)" stroke="#1E247E" stroke-linecap="round">
                                <path d="M3.39319588,0.575376599 C4.46486442,1.46020168 4.99453967,2.96814302 4.93294952,3.86543043 C4.90831346,4.23930018 2.80193049,4.0523653 1.54549152,3.4043244 C0.276734517,2.75628349 -0.326848909,1.59728726 0.178190284,0.812160776 C0.695547507,0.0394966192 2.173711,-0.434071735 3.39319588,0.575376599 Z" id="Left_62_"></path>
                                <path d="M6.54661134,0.575376599 C5.4749428,1.46020168 4.94526755,2.96814302 5.0068577,3.86543043 C5.03149376,4.23930018 7.13787673,4.0523653 8.3943157,3.4043244 C9.6630727,2.75628349 10.2666561,1.59728726 9.76161694,0.812160776 C9.24425971,0.0394966192 7.76609622,-0.434071735 6.54661134,0.575376599 Z" id="Right_60_"></path>
                            </g>
                            <path d="M20.2508399,4.51347133 L20.2508399,6.94362473 C20.2508399,7.44211773 19.8443449,7.85337446 19.3516237,7.85337446 L0.899216125,7.85337446 C0.406494961,7.85337446 0,7.44211773 0,6.94362473 L0,4.51347133 C0,4.01497833 0.406494961,3.6037216 0.899216125,3.6037216 L19.3516237,3.6037216 C19.8443449,3.6037216 20.2508399,4.01497833 20.2508399,4.51347133 Z" id="Shape_96_" stroke="#1E247E" fill-opacity="0.512319712" fill="#DA867D" fill-rule="nonzero" stroke-linecap="round"></path>
                            <rect id="Stripe_3_" stroke="#1E247E" fill="#F0C330" fill-rule="nonzero" stroke-linecap="round" x="7.74804031" y="3.6037216" width="4.73012318" height="4.18734123"></rect>
                        </g>
                    </g>
                </g>
                <g id="Bottom_line_18_" transform="translate(0, 33)" stroke="#1E247E" stroke-linecap="round" stroke-width="0.7">
                    <line x1="50.35864" y1="0.454545455" x2="53" y2="0.454545455" id="Path"></line>
                    <line x1="4.44340941" y1="0.454545455" x2="48.5072194" y2="0.454545455" id="Path"></line>
                    <line x1="0" y1="0.545454545" x2="2.64136004" y2="0.545454545" id="Path"></line>
                </g>
            </g>
        </g>
    </g>
</svg>