<?xml version="1.0" encoding="UTF-8"?>
<svg width="36px" height="36px" viewBox="0 0 36 36" version="1.1" xmlns="http://www.w3.org/2000/svg" xmlns:xlink="http://www.w3.org/1999/xlink">
    <title>53CBEDBF-6EF5-4D24-9ABE-44B9E0997074</title>
    <g id="WEB" stroke="none" stroke-width="1" fill="none" fill-rule="evenodd">
        <g id="SHOP/CHECKOUT_1.3" transform="translate(-926.000000, -302.000000)">
            <g id="Group-12" transform="translate(160.000000, 224.000000)">
                <g id="Group-15" transform="translate(24.000000, 58.000000)">
                    <g id="Group-Copy-11" transform="translate(742.000000, 20.000000)">
                        <circle id="Oval" stroke="#EDEDED" fill="#FFFFFF" cx="18" cy="18" r="17.5"></circle>
                        <path d="M22.25,13.4 L26,13.4 L26,15.1 L24.5,15.1 L24.5,26.15 C24.5,26.619442 24.1642136,27 23.75,27 L13.25,27 C12.8357864,27 12.5,26.619442 12.5,26.15 L12.5,15.1 L11,15.1 L11,13.4 L14.75,13.4 L14.75,10.85 C14.75,10.380558 15.0857864,10 15.5,10 L21.5,10 C21.9142136,10 22.25,10.380558 22.25,10.85 L22.25,13.4 Z M23.2727273,15.6666667 L13.7272727,15.6666667 L13.7272727,25.5833333 L23.2727273,25.5833333 L23.2727273,15.6666667 Z M16.4545455,17.0833333 L17.8181818,17.0833333 L17.8181818,22.75 L16.4545455,22.75 L16.4545455,17.0833333 Z M19.1818182,17.0833333 L20.5454545,17.0833333 L20.5454545,22.75 L19.1818182,22.75 L19.1818182,17.0833333 Z M16.4545455,11.4166667 L16.4545455,12.8333333 L20.5454545,12.8333333 L20.5454545,11.4166667 L16.4545455,11.4166667 Z" id="Shape" fill="#A7A7A7" fill-rule="nonzero"></path>
                    </g>
                </g>
            </g>
        </g>
    </g>
</svg>