<?xml version="1.0" encoding="UTF-8"?>
<svg width="23px" height="14px" viewBox="0 0 23 14" version="1.1" xmlns="http://www.w3.org/2000/svg" xmlns:xlink="http://www.w3.org/1999/xlink">
    <title>486996BC-6903-4977-AACD-51F7B233B54C</title>
    <g id="WEB" stroke="none" stroke-width="1" fill="none" fill-rule="evenodd">
        <g id="Style-Guide-TRC" transform="translate(-734, -218)" fill-rule="nonzero">
            <g id="Group-177" transform="translate(734, 218)">
                <path d="M22.921586,5.34294514 C22.7643163,4.79367197 22.3789507,4.32525334 21.850498,4.04101891 C21.3220452,3.75678448 20.6939254,3.68008832 20.1046973,3.82784904 L13.1429851,5.57104785 L6.26935997,0.182617826 C6.04182542,0.0163734426 5.74361547,-0.0404979172 5.46426401,0.0290786755 L3.78871724,0.446458091 C3.48074543,0.52329477 3.23741242,0.743175142 3.14557771,1.02761128 C3.053743,1.31204742 3.12649468,1.62050212 3.3378635,1.84287019 L7.80993477,6.90216169 L5.24878244,7.54146695 C4.91218773,7.62524845 4.55366256,7.52484023 4.3224485,7.28203873 L3.03097986,5.92401141 C2.79961518,5.68113442 2.44091204,5.58072769 2.10417233,5.66458319 L1.02250223,5.93460032 C0.585298595,6.04385616 0.233403819,6.34591385 0.0807989639,6.74293489 C-0.0718058912,7.13995594 -0.00571622894,7.5814568 0.257661069,7.92443242 L2.55834117,10.9246227 C3.22768565,11.7962667 4.40714851,12.1897311 5.5182528,11.9120383 L21.2948185,7.96767045 C21.8841788,7.82063066 22.3866882,7.46147361 22.6917752,6.96922785 C22.9968621,6.47698209 23.079529,5.89198011 22.921586,5.34294514 Z M21.0566048,7.13952969 L5.28051269,11.0838975 C4.53951275,11.2692188 3.75288319,11.0064714 3.30708042,10.4247381 L1.00592673,7.42454777 C0.918762484,7.31026151 0.897137192,7.16347381 0.948026702,7.0315352 C0.998916212,6.89959658 1.11588053,6.79920369 1.26118951,6.76274108 L2.34285961,6.49272396 L3.63622259,7.85295729 C4.09865997,8.33883745 4.8161128,8.53954446 5.48936406,8.37137253 L8.05098997,7.72986125 C8.35334523,7.65467804 8.59396061,7.4414903 8.68972619,7.1639343 C8.78549177,6.8863783 8.72327874,6.58250509 8.52457583,6.35727419 L4.02835168,1.27459885 L5.70058335,0.856778235 L12.5500556,6.22667767 C12.7802834,6.40710549 13.0906146,6.47135266 13.3811988,6.39874741 L20.342911,4.6555486 C20.8191975,4.5366977 21.3273642,4.66359701 21.6759896,4.98844478 C22.024615,5.31329255 22.1607345,5.78673668 22.0330733,6.23043534 C21.9054121,6.674134 21.533365,7.02067881 21.0570784,7.13952969 L21.0566048,7.13952969 Z" id="Shape" fill="#464668"></path>
                <path d="M20.5624719,13 L14.4375281,13 C14.195888,13 14,13.2238576 14,13.5 C14,13.7761424 14.195888,14 14.4375281,14 L20.5624719,14 C20.804112,14 21,13.7761424 21,13.5 C21,13.2238576 20.804112,13 20.5624719,13 L20.5624719,13 Z" id="Path" fill="#69B8E7"></path>
            </g>
        </g>
    </g>
</svg>