<?xml version="1.0" encoding="UTF-8"?>
<svg width="40px" height="36.123374px" viewBox="0 0 40 36.123374" version="1.1" xmlns="http://www.w3.org/2000/svg" xmlns:xlink="http://www.w3.org/1999/xlink">
    <title>E8FA853A-3C2B-4834-8D89-D7EF6B8E78DB</title>
    <g id="WEB" stroke="none" stroke-width="1" fill="none" fill-rule="evenodd">
        <g id="Style-Guide-TRC" transform="translate(-181, -315)">
            <g id="Group-4" transform="translate(181, 315)">
                <g id="2625483_girl_hipster_lady_woman_icon">
                    <path d="M11.95777,23.4247659 L7.0199,24.8681259 C4.34286,25.6505759 2.23203,27.5232859 1.32378,29.9216559 L0,33.4176659 C0,33.4176659 14.71614,39.4868059 30.7079,33.4456559 L29.38401,29.9496459 C28.47576,27.5512759 26.36505,25.6785659 23.68801,24.8960059 L18.75003,23.4527659" id="Path" fill-opacity="0.332359047" fill="#F43735" fill-rule="nonzero"></path>
                    <path d="M12.04636,22.3047559 L11.95673,23.4253359 L7.01506,24.8708859 C4.34815,25.6552859 2.2303,27.5266159 1.32263,29.9246459 L0.00036,33.4208859 C0.00036,33.4208859 14.71339,39.4831159 30.70376,33.4432359 L29.38148,29.9471159 C28.47393,27.5490859 26.36724,25.6777659 23.68905,24.8933359 L18.74738,23.4478159 L18.65775,22.2376259" id="Path" fill-opacity="0.302283654" fill="#F43735" fill-rule="nonzero"></path>
                    <path d="M11.9201,22.1314359 L11.9201,23.1726359 L8.05003,24.5669759 C8.05003,24.5669759 10.23383,30.8362859 15.27084,33.7732559 C15.27084,33.7732559 21.62455,29.7580359 22.91202,24.6691859 L18.75003,23.4527459 L18.65775,22.2376059 C18.65775,22.2376159 14.94119,24.8820959 11.9201,22.1314359 Z" id="Path" fill="#F9D9C0" fill-rule="nonzero"></path>
                    <circle id="Oval" fill="#FFFFFF" fill-rule="nonzero" cx="15.47075" cy="25.8271659" r="1"></circle>
                    <path d="M9.42432,15.9888459 C9.42432,15.9888459 8.72841,14.6033259 8.45917,14.1596059 C8.18993,13.7158859 7.49065,14.1899459 7.75495,15.4232459 C8.01926,16.6565459 7.98172,18.1473359 9.17623,18.1528259 C9.17623,18.1528259 9.68892,20.1218059 10.86375,21.2618559 C12.03858,22.4019059 13.82161,23.4295259 15.35395,23.3449359 C16.88629,23.2603459 18.58964,22.7790359 19.75724,21.2427259 C20.92484,19.7064159 21.30177,18.2074259 21.30177,18.2074259 C21.30177,18.2074259 22.13594,18.5769259 22.4923,17.4739059 C22.84866,16.3708859 23.44221,15.1934159 22.64796,14.0440659 C22.64796,14.0440659 21.96758,14.1855659 21.36544,16.2190459 C21.36544,16.2190459 21.37594,13.5341659 20.88789,12.6019259 C20.39984,11.6696859 19.23641,10.9523859 18.99327,10.5384059 C18.75013,10.1244259 18.68495,9.87699591 18.68495,9.87699591 C18.68495,9.87699591 16.49591,12.1543159 13.7093,12.8004859 C13.7093,12.8004859 14.34534,11.9028359 13.70424,11.5170259 C13.06314,11.1312159 11.22378,12.1406159 10.76818,12.6082759 C10.31256,13.0759259 9.36637,14.9905659 9.42432,15.9888459 Z" id="Path" fill="#F9D9C0" fill-rule="nonzero"></path>
                    <path d="M18.71213,4.58949591 C19.37696,1.92221591 17.39965,-0.0544940854 15.42233,0.00114591459 C13.44502,-0.0544940854 11.46771,1.92221591 12.13265,4.58949591" id="Path" fill="#A67358" fill-rule="nonzero"></path>
                    <path d="M8.32214,13.8646859 C6.86657,8.02548591 11.09353,3.70797591 15.42233,3.82986591 C19.75124,3.70798591 24.08004,8.03585591 22.62459,13.8750559 C21.98522,14.3239959 21.36544,16.2190559 21.36544,16.2190559 C21.56163,15.3689859 21.04783,13.3958259 20.94023,12.7993159 C20.71858,11.5711559 18.83827,10.9937659 18.68494,9.87700591 C18.68494,9.87700591 15.895,12.4584359 13.45792,12.9377559 C13.45792,12.9377559 14.67652,11.2783059 13.36173,11.5364759 C12.8515,11.6367059 11.96273,12.0113359 11.06623,12.4323959 C10.65093,12.6274259 10.31811,12.9664659 10.1422,13.3901759 C9.84129,14.1145559 9.41609,15.3010159 9.41609,16.2190559 L8.32214,13.8646859 Z" id="Path" fill="#A67358" fill-rule="nonzero"></path>
                    <g id="Group" transform="translate(7.705, 13.9832)" stroke="#30302F" stroke-linecap="round" stroke-linejoin="round" stroke-width="0.8">
                        <path d="M13.6981467,4.16936 C14.5833467,4.32615 14.8859867,3.42977 15.1436867,2.38766 C15.3902167,1.40154 15.5023067,0.28098 14.7514267,0.03445" id="Path"></path>
                        <path d="M0.602656661,0 C-0.218843339,0.15377 -0.0377433386,1.14717 0.202216661,2.18859 C0.442066661,3.23012 0.649776661,4.32327 1.47127666,4.16959" id="Path"></path>
                        <path d="M13.6604767,4.19021 C12.9010667,7.17576 10.4494767,9.3617 7.54225666,9.3617 C4.68780666,9.3617 2.27664666,7.07219 1.47127666,4.16959" id="Path"></path>
                    </g>
                    <path d="M11.95777,23.4247659 L7.0199,24.8681259 C4.34286,25.6505759 2.23203,27.5232859 1.32378,29.9216559 L0,33.4176659 C0,33.4176659 14.71614,39.4868059 30.7079,33.4456559 L29.38401,29.9496459 C28.47576,27.5512759 26.36505,25.6785659 23.68801,24.8960059 L18.75003,23.4527659" id="Path" stroke="#30302F" stroke-width="0.8" stroke-linecap="round" stroke-linejoin="round"></path>
                    <path d="M12.04636,22.3047559 L11.95673,23.4253359 L7.01506,24.8708859 C4.34815,25.6552859 2.2303,27.5266159 1.32263,29.9246459 L0.00036,33.4208859 C0.00036,33.4208859 14.71339,39.4831159 30.70376,33.4432359 L29.38148,29.9471159 C28.47393,27.5490859 26.36724,25.6777659 23.68905,24.8933359 L18.74738,23.4478159 L18.65775,22.2376259" id="Path" stroke="#30302F" stroke-width="0.8" stroke-linecap="round" stroke-linejoin="round"></path>
                    <g id="Group" transform="translate(7.705, 13.9832)" stroke="#30302F" stroke-linecap="round" stroke-linejoin="round" stroke-width="0.8">
                        <path d="M13.6981467,4.16936 C14.5833467,4.32615 14.8859867,3.42977 15.1436867,2.38766 C15.3902167,1.40154 15.5023067,0.28098 14.7514267,0.03445" id="Path"></path>
                        <path d="M0.602656661,0 C-0.218843339,0.15377 -0.0377433386,1.14717 0.202216661,2.18859 C0.442066661,3.23012 0.649776661,4.32327 1.47127666,4.16959" id="Path"></path>
                        <path d="M13.6604767,4.19021 C12.9010667,7.17576 10.4494767,9.3617 7.54225666,9.3617 C4.68780666,9.3617 2.27664666,7.07219 1.47127666,4.16959" id="Path"></path>
                    </g>
                    <path d="M8.32214,13.8646859 C6.86657,8.02548591 11.09353,3.70797591 15.42233,3.82986591 C19.75124,3.70798591 24.08004,8.03585591 22.62459,13.8750559 C21.98522,14.3239959 21.36544,16.2190559 21.36544,16.2190559 C21.56163,15.3689859 21.04783,13.3958259 20.94023,12.7993159 C20.71858,11.5711559 18.83827,10.9937659 18.68494,9.87700591 C18.68494,9.87700591 15.895,12.4584359 13.45792,12.9377559 C13.45792,12.9377559 14.67652,11.2783059 13.36173,11.5364759 C12.8515,11.6367059 11.96273,12.0113359 11.06623,12.4323959 C10.65093,12.6274259 10.31811,12.9664659 10.1422,13.3901759 C9.84129,14.1145559 9.41609,15.3010159 9.41609,16.2190559 L8.32214,13.8646859 Z" id="Path" stroke="#30302F" stroke-width="0.8" stroke-linecap="round" stroke-linejoin="round"></path>
                    <path d="M18.71213,4.58949591 C19.37696,1.92221591 17.39965,-0.0544940854 15.42233,0.00114591459 C13.44502,-0.0544940854 11.46771,1.92221591 12.13265,4.58949591" id="Path" stroke="#30302F" stroke-width="0.8" stroke-linecap="round" stroke-linejoin="round"></path>
                    <path d="M23.05452,24.7108759 C23.05452,24.7108759 21.44735,29.7523059 15.3539,33.8090059 C15.3539,33.8090059 11.04975,32.1770659 8.05003,24.5669959" id="Path" stroke="#30302F" stroke-width="0.8" stroke-linecap="round" stroke-linejoin="round"></path>
                    <path d="M18.74738,23.4478059 C18.74738,23.4478059 15.6919,26.5539759 11.95673,23.4253459" id="Path" stroke="#30302F" stroke-width="0.8" stroke-linecap="round" stroke-linejoin="round"></path>
                    <circle id="Oval" stroke="#30302F" stroke-width="0.8" stroke-linecap="round" stroke-linejoin="round" cx="15.47075" cy="25.8271659" r="1"></circle>
                    <path d="M13.92311,19.8853259 C13.92311,19.8853259 15.18237,20.6053359 16.78102,19.8853259" id="Path" stroke="#30302F" stroke-width="0.8" stroke-linecap="round" stroke-linejoin="round"></path>
                    <path d="M14.64323,18.1613459 C14.76246,18.1843859 14.88204,18.2055859 15.00185,18.2250559 C15.13963,18.2475159 15.27914,18.2675659 15.41899,18.2606559 C15.63465,18.2500559 15.84915,18.1924559 16.06089,18.1528259" id="Path" stroke="#30302F" stroke-width="0.8" stroke-linecap="round" stroke-linejoin="round"></path>
                    <g id="Group" transform="translate(11.3978, 13.5441)" stroke="#30302F" stroke-linecap="round" stroke-linejoin="round" stroke-width="0.8">
                        <path d="M0,0.355751381 C0,0.355751381 1.56581,-0.235808619 2.89685,0.810801381" id="Path"></path>
                        <path d="M8.04922,0.355751381 C8.04922,0.355751381 6.48341,-0.235808619 5.15237,0.810801381" id="Path"></path>
                        <path d="M5.50569,1.87918138 C5.50569,1.87918138 7.01851,1.46918138 7.45524,1.87918138" id="Path"></path>
                        <path d="M2.47176,1.87918138 C2.47176,1.87918138 0.95906,1.46918138 0.52233,1.87918138" id="Path"></path>
                    </g>
                </g>
                <g id="heart-rate" transform="translate(25, 13)" fill-rule="nonzero">
                    <path d="M8,13 C7.964,13 7.9088,12.9899589 7.8608,12.9397535 L2.8904,7.74349612 C2.3168,7.14103149 2,6.34025559 2,5.4892743 C2,4.63829302 2.3168,3.83751712 2.8928,3.23505249 L3.1808,2.93382017 C3.7568,2.33135555 4.5224,2 5.336,2 C6.1496,2 6.9152,2.33135555 7.4912,2.93382017 L8,3.46599726 L8.5088,2.93382017 C9.0848,2.33135555 9.8504,2 10.664,2 C11.4776,2 12.2432,2.33135555 12.8192,2.93382017 L13.1072,3.23505249 C13.6832,3.83751712 14,4.63829302 14,5.4892743 C14,6.34025559 13.6832,7.14103149 13.1072,7.74349612 L8.1392,12.9397535 C8.0912,12.9899589 8.036,13 8,13 Z" id="Path" fill-opacity="0.19692417" fill="#FF0100"></path>
                    <path d="M14.7151991,5.16849678 C14.9204588,5.22018175 15.0410489,5.42199924 14.9871682,5.61889436 C14.7896057,6.33756153 14.391915,6.99469898 13.8428452,7.52139341 L8.5317494,12.6160545 C8.27260897,12.8646346 7.93136466,13 7.56702862,13 C7.20269258,13 6.86144826,12.8646346 6.60230784,12.6160545 L5.0089791,11.0901174 C4.86016579,10.9449072 4.86016579,10.7110943 5.0089791,10.5658841 C5.16035816,10.4231352 5.4041041,10.4231352 5.55548316,10.5658841 L7.14624615,12.0942825 C7.37203186,12.3108671 7.76202537,12.3108671 7.98781108,12.0942825 L13.2989069,6.99962136 C13.753044,6.56399091 14.0788939,6.02252934 14.2431017,5.42938281 C14.2969824,5.23248769 14.5073736,5.11435062 14.7151991,5.16849678 Z M14.8537494,3.03710716 C14.9281561,3.22661871 14.8280919,3.44074214 14.6305294,3.51211662 C14.584346,3.52934495 14.5381626,3.53672851 14.4945449,3.53672851 C14.3380343,3.53672851 14.1917867,3.44566452 14.1327746,3.29799318 C14.0917226,3.18723968 14.0429734,3.07894737 13.9890927,2.97557743 C13.8941601,2.79344945 13.9711325,2.57194245 14.1635635,2.48087846 C14.3534288,2.38981446 14.584346,2.46611132 14.6767129,2.6482393 C14.7434223,2.77375994 14.8024345,2.90420295 14.8537494,3.03710716 Z M13.8428452,1.5357819 C13.9942242,1.67853086 13.9942242,1.91234381 13.8428452,2.05755396 C13.6940319,2.20030292 13.4502859,2.20030292 13.2989069,2.05755396 L12.9910173,1.76221128 C11.5721593,0.398712609 9.26042148,0.398712609 7.83899777,1.76221128 C7.68761871,1.90496024 7.44643852,1.90496024 7.29505946,1.76221128 C5.87363576,0.398712609 3.56189793,0.398712609 2.14303998,1.76221128 L1.83515037,2.05755396 C1.14753024,2.71715259 0.767799716,3.59333586 0.767799716,4.52858766 C0.767799716,5.46137827 1.14753024,6.34002272 1.83515037,6.99962136 L3.56189793,8.65600151 C3.71071124,8.79875047 3.71071124,9.03256342 3.56189793,9.17777357 C3.48492553,9.24914805 3.38742715,9.28606588 3.28992878,9.28606588 C3.18986465,9.28606588 3.09236628,9.24914805 3.01795962,9.17777357 L1.29121205,7.52139341 C-0.430404018,5.86993563 -0.430404018,3.18477849 1.29121205,1.5357819 L1.59910167,1.24043923 C3.2309166,-0.324876941 5.83514956,-0.406096176 7.56702862,0.999242711 C8.36241011,0.351950019 9.3604856,0 10.4150075,0 C11.595251,0 12.7036536,0.440552821 13.5349556,1.24043923 L13.8428452,1.5357819 Z" id="Shape" fill="#221F1F"></path>
                    <path d="M11.6087498,6.38258979 C11.8226332,6.38258979 12,6.546064 12,6.74857682 C12,6.95108965 11.8226332,7.11456386 11.6087498,7.11456386 L9.14909005,7.11456386 L7.93621436,9.30072643 C7.86839765,9.42272211 7.73276424,9.49835943 7.58930583,9.49835943 C7.56583081,9.49835943 7.54496414,9.49591952 7.52148912,9.49103969 C7.35194736,9.46420064 7.22413895,9.33732514 7.20066394,9.17873076 L6.79898038,6.24595463 L6.60857194,6.90473129 C6.56423024,7.06332568 6.40773016,7.1755617 6.23036339,7.1755617 L4.11239552,7.1755617 C3.89590373,7.1755617 3.7211453,7.00964758 3.7211453,6.80957466 C3.7211453,6.60706184 3.89590373,6.44358763 4.11239552,6.44358763 L5.93301322,6.44358763 L6.55901358,4.27206453 C6.6059636,4.1037105 6.77550536,3.98659465 6.96330547,4.00123413 C7.14849724,4.01343369 7.29978066,4.14762894 7.32325568,4.32086281 L7.81883929,7.92461517 L8.56221471,6.58022279 C8.63003142,6.46066702 8.76305649,6.38258979 8.91173158,6.38258979 L11.6087498,6.38258979 Z M5.99561326,13.3753821 C6.14689667,13.519337 6.14689667,13.7511288 5.99561326,13.8926438 C5.91736321,13.9634013 5.81824649,14 5.71912976,14 C5.61740471,14 5.51828798,13.9634013 5.44003794,13.8926438 L2.66737803,11.2990157 C2.51609461,11.1550608 2.51609461,10.923269 2.66737803,10.781754 C2.82126978,10.6377991 3.06906159,10.6377991 3.22034501,10.781754 L5.99561326,13.3753821 Z M4.59232912,9.87898595 C4.74622088,10.0229409 4.74622088,10.2547326 4.59232912,10.3962476 C4.51668741,10.4670051 4.41496236,10.5036038 4.31584563,10.5036038 C4.21672891,10.5036038 4.11500385,10.4670051 4.03936214,10.3962476 L3.83591203,10.2059344 C3.68202027,10.0644194 3.68202027,9.8326276 3.83591203,9.68867269 C3.98980378,9.54471779 4.23498725,9.54471779 4.38887901,9.68867269 L4.59232912,9.87898595 Z M1.95008596,9.59351606 C2.10397771,9.73503105 2.10397771,9.96682284 1.95008596,10.1107777 C1.87444425,10.1815352 1.77532752,10.2181339 1.67360247,10.2181339 C1.57448574,10.2181339 1.47276069,10.1815352 1.39711898,10.1107777 L1.11541882,9.84482716 C0.961527061,9.70331218 0.961527061,9.47152039 1.11541882,9.32756548 C1.26670223,9.1860505 1.51449404,9.1860505 1.6683858,9.32756548 L1.95008596,9.59351606 Z" id="Shape" fill="#242323"></path>
                </g>
            </g>
        </g>
    </g>
</svg>