<?xml version="1.0" encoding="UTF-8"?>
<svg width="25px" height="21px" viewBox="0 0 25 21" version="1.1" xmlns="http://www.w3.org/2000/svg" xmlns:xlink="http://www.w3.org/1999/xlink">
    <title>5B1BE195-8EB5-4CC7-81BE-60D736AA2BB0</title>
    <g id="WEB" stroke="none" stroke-width="1" fill="none" fill-rule="evenodd">
        <g id="HOMEPAGE" transform="translate(-1301.000000, -30.000000)" fill="#FFFFFF" fill-rule="nonzero">
            <g id="Group-5" transform="translate(1255.000000, 29.000000)">
                <g id="ICON/wishlist-Copy-2" transform="translate(46.679933, 1.000000)">
                    <path d="M1.57519092,10.6672933 C0.242245516,8.43411817 0,6.44929517 0,5.14638815 C0.0604358743,3.65749397 0.666494339,2.29266507 1.756848,1.36239699 C2.78679717,0.432084598 4.422847,-0.374516983 6.8461677,0.183666021 C11.3298195,1.17628799 11.9964004,5.14638815 11.9964004,5.14638815 C11.9964004,5.14638815 12.7841798,1.23822093 17.1466331,0.246030981 C19.5095818,-0.312163101 21.2060577,0.556282808 22.2359528,1.42476195 C23.3263281,2.35507434 23.9324288,3.78211311 23.9928008,5.20875311 C24.0532367,6.57347123 23.750631,8.49648313 22.4176099,10.7296582 C19.9942892,14.9476563 13.0262955,20.2206524 12.0567725,20.9648226 C11.9963366,20.9029462 3.9988362,14.8857345 1.57508272,10.6672933 L1.57519092,10.6672933 Z" id="Path"></path>
                </g>
            </g>
        </g>
    </g>
</svg>