<?xml version="1.0" encoding="UTF-8"?>
<svg width="28px" height="36.0127696px" viewBox="0 0 28 36.0127696" version="1.1" xmlns="http://www.w3.org/2000/svg" xmlns:xlink="http://www.w3.org/1999/xlink">
    <title>67883F3B-4407-44E2-A30F-B91F9AFFDB62</title>
    <g id="WEB" stroke="none" stroke-width="1" fill="none" fill-rule="evenodd">
        <g id="Style-Guide-TRC" transform="translate(-515, -315)">
            <g id="2388601_decoration_interior_lamp_light_icon-(1)" transform="translate(515, 315)">
                <g id="Group">
                    <ellipse id="Oval" fill="#EBF2FF" fill-rule="nonzero" cx="15.7348852" cy="27.2246184" rx="3.23794525" ry="4.64938212"></ellipse>
                    <path d="M24.5072532,11.0084807 L6.41699388,11.0084807 L8.51989854,4.21322995 C8.81025776,3.27986431 9.62854284,2.64308214 10.5524131,2.65180519 L20.4158278,2.71286649 C21.3308993,2.72158953 22.1315869,3.34092561 22.4219461,4.27429125 L24.5072532,11.0084807 Z" id="Path" fill="#FFD6C6" fill-rule="nonzero"></path>
                    <path d="M27.8331861,22.4443906 L3.10865851,22.4443906 C2.99427457,22.4443906 2.9150857,22.330991 2.95028075,22.2175915 L6.23221983,11.6190938 L24.700826,11.6190938 L27.9915639,22.2088684 C28.0267589,22.322268 27.94757,22.4443906 27.8331861,22.4443906 Z" id="Path" fill="#FFF7C3" fill-rule="nonzero"></path>
                    <path d="M20.8997599,35.9563848 L10.5700106,35.9563848 L12.4441474,33.0079961 C12.9368782,32.2403683 13.7815596,31.778047 14.7054298,31.778047 L16.676353,31.778047 C17.573827,31.778047 18.4097096,32.2229222 18.9024404,32.9643809 L20.8997599,35.9563848 Z" id="Path" fill="#FFF7C3" fill-rule="nonzero"></path>
                    <ellipse id="Oval" stroke="#000000" cx="13.5615905" cy="27.2246184" rx="3.23794525" ry="4.64938212"></ellipse>
                    <path d="M26.9357122,22.4443906 L0.178670008,22.4443906 C0.0554873079,22.4443906 -0.0325003348,22.322268 0.0114934866,22.2088684 L6.03864701,4.21322995 C6.35540253,3.27986431 7.23527895,2.64308214 8.23833808,2.65171667 L18.9112391,2.71286649 C19.8967007,2.72158953 20.7677784,3.34964866 21.0845339,4.27429125 L27.1116874,22.2175915 C27.1468825,22.322268 27.0588949,22.4443906 26.9357122,22.4443906 Z" id="Path" stroke="#000000"></path>
                    <path d="M18.7264651,35.9563848 L8.38791707,35.9563848 L10.2620539,33.0079961 C10.7547847,32.2403683 11.599466,31.778047 12.5233363,31.778047 L14.4942595,31.778047 C15.3917334,31.778047 16.227616,32.2229222 16.7203468,32.9643809 L18.7264651,35.9563848 Z" id="Path" stroke="#000000"></path>
                    <line x1="8.38791707" y1="35.9627696" x2="4.96519777" y2="35.9627696" id="Path" stroke="#000000"></line>
                    <line x1="4.17330899" y1="35.9627696" x2="2.43115366" y2="35.9627696" id="Path" stroke="#000000"></line>
                    <line x1="13.2156461" y1="2.65180519" x2="13.2156461" y2="0" id="Path" stroke="#000000" stroke-width="2"></line>
                    <line x1="2.43995243" y1="18.3945602" x2="8.84545282" y2="18.3945602" id="Path" stroke="#000000"></line>
                    <line x1="11.414692" y1="18.3945602" x2="13.2096399" y2="18.3945602" id="Path" stroke="#000000"></line>
                    <line x1="20.7589796" y1="18.3945602" x2="25.4311235" y2="18.3945602" id="Path" stroke="#000000"></line>
                    <line x1="16.2452136" y1="18.3945602" x2="18.7792577" y2="18.3945602" id="Path" stroke="#000000"></line>
                </g>
                <g id="Group" transform="translate(7, 9)" fill="#000000" fill-rule="nonzero">
                    <path d="M0.512195122,2 C1.19512195,2 1.19512195,0 0.512195122,0 C-0.170731707,0 -0.170731707,2 0.512195122,2 L0.512195122,2 Z" id="Path"></path>
                    <path d="M4.43237251,2 C5.11529933,2 5.11529933,0 4.43237251,0 C3.74944568,0 3.74944568,2 4.43237251,2 L4.43237251,2 Z" id="Path"></path>
                    <path d="M8.73392461,2 C9.41685144,2 9.41685144,0 8.73392461,0 C8.0421286,0 8.0421286,2 8.73392461,2 L8.73392461,2 Z" id="Path"></path>
                    <path d="M13.4878049,2 C14.1707317,2 14.1707317,0 13.4878049,0 C12.804878,0 12.804878,2 13.4878049,2 L13.4878049,2 Z" id="Path"></path>
                </g>
            </g>
        </g>
    </g>
</svg>