<?xml version="1.0" encoding="UTF-8"?>
<svg width="55px" height="34px" viewBox="0 0 55 34" version="1.1" xmlns="http://www.w3.org/2000/svg" xmlns:xlink="http://www.w3.org/1999/xlink">
    <title>1ADCDD0E-A089-49A0-A873-8C55415ACD91</title>
    <g id="WEB" stroke="none" stroke-width="1" fill="none" fill-rule="evenodd">
        <g id="SHOP/FILTER" transform="translate(-1433.000000, -3824.000000)">
            <g id="FOOTER/BLACK" transform="translate(-2.000000, 3230.000000)">
                <g id="Group-3" transform="translate(1307.000000, 594.000000)">
                    <g id="2629966_card_cash_checkout_credit_maestro_icon" transform="translate(128.798572, 0.000000)">
                        <path d="M51.4947368,0 L2.30526316,0 C1.34736842,0 0.747368421,0.147368421 0.421052632,0.452631579 C0.136842105,0.8 0,1.36842105 0,2.21052632 L0,5.35789474 L0,7.89473684 L0,26.0315789 L0,28.6842105 L0,31.7157895 C0,33.2210526 0.778947368,34 2.30526316,34 L51.4947368,34 C53.0947368,34 53.8947368,33.2210526 53.8947368,31.7157895 L53.8947368,28.6842105 L53.8947368,26.0315789 L53.8947368,7.88421053 L53.8947368,5.34736842 L53.8947368,2.2 C53.8947368,0.715789474 53.0947368,0 51.4947368,0 Z" id="Path" fill="#003473"></path>
                        <g id="Group" transform="translate(7.410526, 5.305263)">
                            <path d="M19.5368421,20.3684211 C21.8947368,18.2421053 23.3894737,15.1473684 23.3894737,11.7052632 C23.3894737,8.27368421 21.9052632,5.17894737 19.5368421,3.02105263 C17.4736842,1.14736842 14.7263158,0 11.7052632,0 C5.24210526,0 1.49587944e-15,5.24210526 1.49587944e-15,11.7052632 C1.49587944e-15,18.1684211 5.24210526,23.3894737 11.7052632,23.3894737 C14.7263158,23.3894737 17.4736842,22.2421053 19.5368421,20.3684211 L19.5368421,20.3684211 Z" id="Path" fill="#009DDD"></path>
                            <path d="M19.5368421,20.3684211 C21.8947368,18.2421053 23.3894737,15.1473684 23.3894737,11.7052632 C23.3894737,8.27368421 21.9052632,5.17894737 19.5368421,3.02105263 L19.5368421,20.3684211 L19.5368421,20.3684211 Z" id="Path" fill="#009DDD"></path>
                            <path d="M27.4,2.99175889e-15 C24.3789474,2.99175889e-15 21.6210526,1.14736842 19.5368421,3.02105263 C19.1263158,3.41052632 18.7368421,3.82105263 18.3684211,4.26315789 L20.7263158,4.26315789 C21.0421053,4.65263158 21.3473684,5.08421053 21.6210526,5.50526316 L17.4736842,5.50526316 C17.2210526,5.91578947 16.9894737,6.32631579 16.7894737,6.74736842 L22.2842105,6.74736842 C22.4631579,7.15789474 22.6526316,7.56842105 22.7894737,7.98947368 L16.3052632,7.98947368 C16.1684211,8.4 16.0526316,8.81052632 15.9578947,9.25263158 L23.1263158,9.25263158 C23.2842105,10.0315789 23.3789474,10.8842105 23.3789474,11.7263158 C23.3789474,13.0105263 23.1684211,14.2736842 22.7789474,15.4421053 L16.2947368,15.4421053 C16.4315789,15.8526316 16.5894737,16.2631579 16.7789474,16.6842105 L22.2736842,16.6842105 C22.0631579,17.0947368 21.8631579,17.5368421 21.6105263,17.9263158 L17.4631579,17.9263158 C17.7368421,18.3578947 18.0315789,18.7789474 18.3578947,19.1684211 L20.7157895,19.1684211 C20.3473684,19.6 19.9578947,20.0210526 19.5263158,20.4105263 C21.6105263,22.2842105 24.3578947,23.4315789 27.3894737,23.4315789 C33.8526316,23.4315789 39.0737001,18.2105263 39.0737001,11.7473684 C39.0842105,5.24210526 33.8526316,2.99175889e-15 27.4,2.99175889e-15 L27.4,2.99175889e-15 Z" id="Path" fill="#ED1B2E"></path>
                            <path d="M37.5894737,18.3282164 C37.5894737,18.0504386 37.8037594,17.8421053 38.0894737,17.8421053 C38.375188,17.8421053 38.5894737,18.0504386 38.5894737,18.3282164 C38.5894737,18.6059942 38.375188,18.8421053 38.0894737,18.8421053 C37.8037594,18.8421053 37.5894737,18.6059942 37.5894737,18.3282164 L37.5894737,18.3282164 Z M38.0894737,18.7309942 C38.3037594,18.7309942 38.4894737,18.5504386 38.4894737,18.3421053 C38.4894737,18.1337719 38.3037594,17.9809942 38.0894737,17.9809942 C37.875188,17.9809942 37.6894737,18.1337719 37.6894737,18.3421053 C37.6894737,18.5365497 37.875188,18.7309942 38.0894737,18.7309942 L38.0894737,18.7309942 Z M38.0323308,18.5365497 L37.9037594,18.5365497 L37.9037594,18.119883 L38.0894737,18.119883 C38.1466165,18.119883 38.1894737,18.119883 38.2180451,18.1476608 C38.2466165,18.1476608 38.275188,18.2032164 38.275188,18.244883 C38.275188,18.3004386 38.2466165,18.3421053 38.2180451,18.369883 L38.275188,18.5504386 L38.1466165,18.5504386 L38.0894737,18.3976608 L38.0323308,18.3976608 L38.0323308,18.5365497 L38.0323308,18.5365497 Z M38.0323308,18.3004386 L38.0894737,18.3004386 C38.0894737,18.3004386 38.1180451,18.3004386 38.1466165,18.3004386 C38.1466165,18.3004386 38.175188,18.2726608 38.175188,18.244883 L38.1466165,18.2171053 C38.1180451,18.1893275 38.0894737,18.1893275 38.0894737,18.1893275 L38.0323308,18.1893275 L38.0323308,18.3004386 L38.0323308,18.3004386 Z" id="Shape" fill="#ED1B2E"></path>
                            <polygon id="Path" fill="#003473" points="9.86315789 14.9578947 8.4 14.9578947 9.27368421 10.4 7.28421053 14.9578947 6.04210526 14.9578947 5.78947368 10.4210526 4.83157895 14.9578947 3.49473684 14.9578947 4.62105263 9.02105263 6.93684211 9.02105263 6.95789474 12.6947368 8.55789474 9.02105263 11.0105263 9.02105263"></polygon>
                            <path d="M26.1368421,14.8947368 C25.7263158,15.0105263 25.4315789,15.0526316 25.0842105,15.0526316 C24.3473684,15.0526316 23.9368421,14.6842105 23.9368421,14 C23.9368421,13.8631579 23.9578947,13.7052632 23.9789474,13.5684211 L24.0736842,13.0842105 L24.1473684,12.7157895 L24.8105263,9.03157895 L26.2526316,9.03157895 L26.0421053,10.1263158 L26.7789474,10.1263158 L26.6,11.2947368 L25.8421053,11.2947368 L25.4526316,13.3157895 C25.4526316,13.4105263 25.4315789,13.4736842 25.4315789,13.5263158 C25.4315789,13.7789474 25.5894737,13.8736842 25.9368421,13.8736842 C26.0947368,13.8736842 26.2315789,13.8736842 26.3263158,13.8315789 L26.1368421,14.8947368 L26.1368421,14.8947368 Z" id="Path" fill="#003473"></path>
                            <path d="M20.3578947,11.6631579 C20.3578947,12.2631579 20.7052632,12.6947368 21.4526316,12.9894737 C22.0736842,13.2421053 22.1684211,13.3052632 22.1684211,13.5368421 C22.1684211,13.8315789 21.8947368,13.9684211 21.3157895,13.9684211 C20.8526316,13.9684211 20.4631579,13.8947368 19.9894737,13.7578947 L19.7789474,14.8842105 L19.8526316,14.8842105 L20.1263158,14.9263158 C20.2210526,14.9473684 20.3368421,14.9684211 20.5157895,14.9684211 C20.8631579,14.9894737 21.1368421,15.0105263 21.3157895,15.0105263 C22.8736842,15.0105263 23.5789474,14.5052632 23.5789474,13.4105263 C23.5789474,12.7473684 23.2842105,12.3578947 22.5473684,12.0631579 C21.9263158,11.8315789 21.8631579,11.7684211 21.8631579,11.5368421 C21.8631579,11.2842105 22.1157895,11.1473684 22.5684211,11.1473684 C22.8631579,11.1473684 23.2526316,11.1684211 23.6421053,11.2210526 L23.8526316,10.1263158 C23.4631579,10.0526316 22.8947368,10.0105263 22.5473684,10.0105263 C20.9157895,10.0105263 20.3368421,10.7684211 20.3578947,11.6631579 L20.3578947,11.6631579 Z" id="Path" fill="#003473"></path>
                            <path d="M14.5894737,14.9578947 L13.3789474,14.9578947 L13.4,14.4526316 C13.0315789,14.8421053 12.5263158,15.0210526 11.8631579,15.0210526 C11.0842105,15.0210526 10.5368421,14.4947368 10.5368421,13.7157895 C10.5368421,12.5473684 11.4736842,11.8631579 13.1052632,11.8631579 C13.2631579,11.8631579 13.4736842,11.8631579 13.7052632,11.8842105 C13.7473684,11.7263158 13.7473684,11.6526316 13.7473684,11.5894737 C13.7473684,11.2736842 13.4947368,11.1263158 12.8105263,11.1263158 C12.4,11.1263158 11.9368421,11.2 11.6210526,11.2631579 L11.4105263,11.3368421 L11.2736842,11.3578947 L11.4842105,10.2842105 C12.2210526,10.0736842 12.6947368,10.0105263 13.2210526,10.0105263 C14.4842105,10.0105263 15.1473684,10.5157895 15.1473684,11.4315789 C15.1473684,11.6842105 15.1263158,11.8421053 15.0105263,12.3894737 L14.7157895,14.0842105 L14.6736842,14.4105263 L14.6315789,14.6631579 L14.6105263,14.8210526 L14.6105263,14.9578947 L14.5894737,14.9578947 Z M13.6,12.8105263 C13.4421053,12.7894737 13.3684211,12.7894737 13.2526316,12.7894737 C12.4315789,12.7894737 12.0105263,13.0421053 12.0105263,13.5263158 C12.0105263,13.8210526 12.2210526,14.0105263 12.5368421,14.0105263 C13.1473684,14 13.5789474,13.5157895 13.6,12.8105263 L13.6,12.8105263 Z" id="Shape" fill="#003473"></path>
                            <path d="M19.3578947,14.8421053 C18.8736842,14.9789474 18.4,15.0526316 17.8736842,15.0526316 C16.2421053,15.0526316 15.4,14.2947368 15.4,12.8736842 C15.4,11.2210526 16.4736842,10.0105263 17.9473684,10.0105263 C19.1578947,10.0105263 19.9157895,10.6947368 19.9157895,11.7473684 C19.9157895,12.1157895 19.8736842,12.4526316 19.7368421,12.9368421 L16.8526316,12.9368421 C16.8315789,13.0315789 16.8315789,13.0526316 16.8315789,13.0947368 C16.8315789,13.6421053 17.2631579,13.9473684 18.1157895,13.9473684 C18.6421053,13.9473684 19.1052632,13.8526316 19.6315789,13.6315789 L19.3578947,14.8421053 L19.3578947,14.8421053 Z M18.6631579,11.9789474 C18.6631579,11.8631579 18.6631579,11.8 18.6631579,11.7263158 C18.6631579,11.3368421 18.4105263,11.1052632 17.9789474,11.1052632 C17.5157895,11.1052632 17.1789474,11.4 17.0421053,11.9789474 L18.6631579,11.9789474 L18.6631579,11.9789474 Z" id="Shape" fill="#003473"></path>
                            <path d="M34.8842105,12.7578947 C34.6736842,14.3578947 33.5578947,15.0736842 32.0631579,15.0736842 C30.4105263,15.0736842 29.7473684,14.0842105 29.7473684,12.8526316 C29.7473684,11.1578947 30.8736842,9.98947368 32.6105263,9.98947368 C34.1263158,9.98947368 34.9263158,10.9473684 34.9263158,12.1684211 C34.9368421,12.4631579 34.9368421,12.4842105 34.8842105,12.7578947 L34.8842105,12.7578947 Z M33.4210526,12.1894737 C33.4210526,11.6842105 33.2105263,11.2 32.6210526,11.2 C31.8842105,11.2 31.4105263,12.0947368 31.4105263,12.8526316 C31.4105263,13.5157895 31.7263158,13.9473684 32.2631579,13.9473684 C32.5789474,13.9473684 33.2526316,13.5157895 33.3894737,12.7578947 C33.4,12.6 33.4210526,12.3894737 33.4210526,12.1894737 L33.4210526,12.1894737 Z" id="Shape" fill="#003473"></path>
                            <path d="M35.0526316,14.349269 C35.0526316,14.0714912 35.2887427,13.8631579 35.5665205,13.8631579 C35.8442982,13.8631579 36.0526316,14.0714912 36.0526316,14.349269 C36.0526316,14.6270468 35.8442982,14.8631579 35.5665205,14.8631579 C35.2887427,14.8631579 35.0526316,14.6131579 35.0526316,14.349269 L35.0526316,14.349269 Z M35.5665205,14.7381579 C35.7748538,14.7381579 35.9276316,14.5576023 35.9276316,14.349269 C35.9276316,14.1409357 35.7748538,13.9881579 35.5665205,13.9881579 C35.3581871,13.9881579 35.1776316,14.1409357 35.1776316,14.349269 C35.1637427,14.5576023 35.3442982,14.7381579 35.5665205,14.7381579 L35.5665205,14.7381579 Z M35.497076,14.5576023 L35.372076,14.5576023 L35.372076,14.1409357 L35.5526316,14.1409357 C35.6081871,14.1409357 35.6498538,14.1409357 35.6776316,14.1687135 C35.7054094,14.1964912 35.7331871,14.224269 35.7331871,14.2659357 C35.7331871,14.3214912 35.7054094,14.3909357 35.6359649,14.3909357 L35.7331871,14.5714912 L35.6081871,14.5714912 L35.5526316,14.4187135 L35.497076,14.4187135 L35.497076,14.5576023 L35.497076,14.5576023 Z M35.497076,14.3076023 L35.5526316,14.3076023 C35.5526316,14.3076023 35.5804094,14.3076023 35.6081871,14.3076023 C35.6081871,14.3076023 35.6081871,14.2798246 35.6081871,14.2520468 L35.6081871,14.224269 C35.5804094,14.224269 35.5526316,14.224269 35.5109649,14.224269 L35.4831871,14.224269 L35.4831871,14.3076023 L35.497076,14.3076023 Z" id="Shape" fill="#FFFFFF"></path>
                            <polygon id="Path" fill="#FFFFFF" points="10.2315789 14.6210526 8.76842105 14.6210526 9.64210526 10.0526316 7.64210526 14.6210526 6.31578947 14.6210526 6.08421053 10.0842105 5.22105263 14.6210526 3.88421053 14.6210526 5.01052632 8.68421053 7.30526316 8.68421053 7.42105263 12.3473684 9.02105263 8.68421053 11.3789474 8.68421053"></polygon>
                            <path d="M26.5052632,14.5473684 C26.0947368,14.6631579 25.7894737,14.7052632 25.4526316,14.7052632 C24.7157895,14.7052632 24.3052632,14.3368421 24.3052632,13.6526316 C24.3052632,13.5157895 24.3263158,13.3789474 24.3473684,13.2210526 L24.4421053,12.7368421 L24.5157895,12.3684211 L25.1789474,8.68421053 L26.6210526,8.68421053 L26.4105263,9.77894737 L27.1684211,9.77894737 L26.9578947,10.9473684 L26.2,10.9473684 L25.8315789,12.9684211 C25.8105263,13.0631579 25.7894737,13.1263158 25.7894737,13.1789474 C25.7894737,13.4315789 25.9473684,13.5473684 26.2947368,13.5473684 C26.4526316,13.5473684 26.5894737,13.5263158 26.6842105,13.5052632 L26.5052632,14.5473684 L26.5052632,14.5473684 Z" id="Path" fill="#FFFFFF"></path>
                            <path d="M30.2315789,11.1789474 L30.2105263,11.0210526 L30.4842105,10.2631579 C30.4105263,10.2631579 30.3894737,10.2631579 30.3684211,10.2421053 C30.2947368,10.2421053 30.2526316,10.2210526 30.2526316,10.2210526 C30.2105263,10.2210526 30.1578947,10.2210526 30.1157895,10.2210526 C29.6315789,10.2210526 29.2947368,10.4315789 28.8315789,11 L28.9894737,10.1263158 L27.4736842,10.1263158 L26.5894737,14.9578947 L28.0315789,14.9578947 C28.2421053,13.8315789 28.3263158,13.2210526 28.4421053,12.6947368 C28.6210526,11.8210526 29.2631579,11.4315789 29.7473684,11.5263158 C29.7894737,11.5263158 29.8421053,11.5263158 29.9052632,11.5473684 L30,11.5894737 L30.2315789,11.1789474 L30.2315789,11.1789474 Z" id="Path" fill="#003473"></path>
                            <path d="M30.7368421,9.83157895 C30.6210526,9.78947368 30.6,9.78947368 30.5789474,9.78947368 C30.5052632,9.76842105 30.4631579,9.76842105 30.4631579,9.74736842 C30.4210526,9.74736842 30.3684211,9.74736842 30.3052632,9.74736842 C29.8210526,9.74736842 29.4842105,9.95789474 29.0421053,10.5263158 L29.1789474,9.78947368 L27.8526316,9.78947368 L26.9578947,14.6210526 L28.4210526,14.6210526 C28.9473684,11.6631579 29.1578947,11.1368421 29.8631579,11.1368421 C29.9052632,11.1368421 29.9789474,11.1578947 30.0421053,11.1578947 L30.2,11.2 L30.7368421,9.83157895 L30.7368421,9.83157895 Z" id="Path" fill="#FFFFFF"></path>
                            <path d="M20.7263158,11.3157895 C20.7263158,11.9157895 21.0736842,12.3473684 21.8526316,12.6421053 C22.4526316,12.8947368 22.5368421,12.9578947 22.5368421,13.1894737 C22.5368421,13.4842105 22.2631579,13.6210526 21.6842105,13.6210526 C21.2526316,13.6210526 20.8421053,13.5473684 20.3578947,13.4105263 L20.1789474,14.5368421 L20.2526316,14.5368421 L20.5052632,14.6105263 C20.6,14.6105263 20.7368421,14.6315789 20.8947368,14.6315789 C21.2421053,14.6736842 21.5157895,14.6736842 21.7157895,14.6736842 C23.2526316,14.6736842 23.9894737,14.1684211 23.9894737,13.0736842 C23.9894737,12.4105263 23.6947368,12.0210526 22.9368421,11.7263158 C22.3157895,11.4947368 22.2526316,11.4315789 22.2526316,11.2 C22.2526316,10.9473684 22.5052632,10.8105263 22.9894737,10.8105263 C23.2631579,10.8105263 23.6736842,10.8315789 24.0421053,10.8842105 L24.2526316,9.78947368 C23.8631579,9.71578947 23.2947368,9.69473684 22.9684211,9.69473684 C21.3052632,9.69473684 20.7263158,10.4210526 20.7263158,11.3157895 L20.7263158,11.3157895 Z" id="Path" fill="#FFFFFF"></path>
                            <path d="M14.9578947,14.6210526 L13.7684211,14.6210526 L13.7894737,14.1157895 C13.4210526,14.5052632 12.9157895,14.6842105 12.2526316,14.6842105 C11.4736842,14.6842105 10.9263158,14.1578947 10.9263158,13.3789474 C10.9263158,12.2105263 11.8631579,11.5263158 13.4947368,11.5263158 C13.6526316,11.5263158 13.8631579,11.5263158 14.0947368,11.5473684 C14.1368421,11.3894737 14.1368421,11.3157895 14.1368421,11.2526316 C14.1368421,10.9368421 13.8842105,10.8210526 13.2,10.8210526 C12.7894737,10.8210526 12.3263158,10.8631579 12.0105263,10.9368421 L11.8,11.0105263 L11.6631579,11.0315789 L11.8736842,9.95789474 C12.6105263,9.77894737 13.0631579,9.70526316 13.6105263,9.70526316 C14.8736842,9.70526316 15.5157895,10.1894737 15.5157895,11.1052632 C15.5157895,11.3578947 15.4947368,11.5368421 15.4,12.0631579 L15.1052632,13.7789474 L15.0631579,14.0736842 L15.0210526,14.3263158 L15,14.4842105 L14.9578947,14.6210526 L14.9578947,14.6210526 Z M13.9052632,12.4631579 C13.7473684,12.4421053 13.6736842,12.4421053 13.5894737,12.4421053 C12.7684211,12.4421053 12.3473684,12.6947368 12.3473684,13.1789474 C12.3473684,13.4736842 12.5263158,13.6842105 12.8526316,13.6842105 C13.4421053,13.6736842 13.8736842,13.1684211 13.9052632,12.4631579 L13.9052632,12.4631579 Z" id="Shape" fill="#FFFFFF"></path>
                            <path d="M19.7473684,14.5052632 C19.2421053,14.6421053 18.7578947,14.7157895 18.2631579,14.7157895 C16.6315789,14.7157895 15.7894737,13.9578947 15.7894737,12.5368421 C15.7894737,10.8842105 16.8631579,9.67368421 18.3368421,9.67368421 C19.5263158,9.67368421 20.2842105,10.3578947 20.2842105,11.4105263 C20.2842105,11.7789474 20.2421053,12.1157895 20.1263158,12.6 L17.2210526,12.6 C17.2210526,12.6947368 17.2210526,12.7157895 17.2210526,12.7578947 C17.2210526,13.3052632 17.6315789,13.6105263 18.4842105,13.6105263 C19.0105263,13.6105263 19.4947368,13.5157895 20,13.3157895 L19.7473684,14.5052632 L19.7473684,14.5052632 Z M18.9684211,11.6421053 C18.9684211,11.5473684 18.9684211,11.4631579 18.9684211,11.3894737 C18.9684211,11 18.7157895,10.7684211 18.2842105,10.7684211 C17.8210526,10.7684211 17.5052632,11.0842105 17.3684211,11.6421053 L18.9684211,11.6421053 L18.9684211,11.6421053 Z" id="Shape" fill="#FFFFFF"></path>
                            <path d="M35.2736842,12.4210526 C35.0421053,14.0210526 33.9263158,14.7368421 32.4315789,14.7368421 C30.8,14.7368421 30.1368421,13.7473684 30.1368421,12.5157895 C30.1368421,10.8210526 31.2631579,9.65263158 33,9.65263158 C34.5157895,9.65263158 35.3157895,10.6105263 35.3157895,11.8315789 C35.3263158,12.1157895 35.3263158,12.1368421 35.2736842,12.4210526 L35.2736842,12.4210526 Z M33.7684211,11.8 C33.7684211,11.2947368 33.5578947,10.8421053 32.9684211,10.8421053 C32.2315789,10.8421053 31.7789474,11.7157895 31.7789474,12.4947368 C31.7789474,13.1368421 32.0947368,13.5684211 32.6,13.5684211 C32.9157895,13.5684211 33.6105263,13.1368421 33.7263158,12.4 C33.7684211,12.2105263 33.7684211,12 33.7684211,11.8 L33.7684211,11.8 Z" id="Shape" fill="#FFFFFF"></path>
                        </g>
                    </g>
                </g>
            </g>
        </g>
    </g>
</svg>