<?xml version="1.0" encoding="UTF-8"?>
<svg width="55px" height="35px" viewBox="0 0 55 35" version="1.1" xmlns="http://www.w3.org/2000/svg" xmlns:xlink="http://www.w3.org/1999/xlink">
    <title>A5DA55B6-5802-4F71-AB7E-36FBDCDAC98F</title>
    <g id="WEB" stroke="none" stroke-width="1" fill="none" fill-rule="evenodd">
        <g id="SHOP/FILTER" transform="translate(-1369.000000, -3824.000000)">
            <g id="FOOTER/BLACK" transform="translate(-2.000000, 3230.000000)">
                <g id="Group-3" transform="translate(1307.000000, 594.000000)">
                    <g id="2908223_bank_card_credit_debit_mastercard_icon" transform="translate(64.400000, 0.497000)">
                        <path d="M54.398572,32.180923 C54.398572,33.182203 53.5807751,34 52.5793817,34 L1.81907695,34 C0.817683646,34 0,33.182203 0,32.180923 L0,1.81919028 C0,0.817796977 0.817683646,0 1.81907695,0 L52.5794951,0 C53.5808884,0 54.398572,0.817796977 54.398572,1.81919028 L54.398572,32.180923 L54.398572,32.180923 Z" id="Path" fill="#14477C"></path>
                        <polygon id="Path" fill="#FBB230" points="34.2250755 26.7445451 34.7264521 26.7138324 35.216609 26.6418672 35.6970194 26.5601555 36.1671167 26.447731 36.6371006 26.3255602 37.0866849 26.1615701 37.5364959 25.9884002 37.9652274 25.7934708 38.3842123 25.5791618 38.7934508 25.3437731 39.1921495 25.0888916 39.5804217 24.8130437 39.9484077 24.5267695 40.2955408 24.2202089 40.6424472 23.8926821 40.9596608 23.5554089 41.2669013 23.1978494 41.5628087 22.8297501 41.8386566 22.452131 42.083905 22.0533189 42.3296067 21.6448738 42.5336027 21.2258888 42.7381652 20.7866176 42.9120151 20.3466664 43.0655787 19.8872223 43.1984027 19.4269848 43.3101471 18.9571142 43.3925388 18.466164 43.4539643 17.9863203 43.4943101 17.4849436 43.5042832 16.984927 43.4943101 16.4835503 43.4539643 15.9828537 43.3925388 15.5024433 43.3101471 15.0228262 43.1984027 14.552049 43.0655787 14.0927181 42.9120151 13.6323674 42.7381652 13.1932095 42.5336027 12.7636847 42.3296067 12.3448131 42.083905 11.9361413 41.8386566 11.5375559 41.5628087 11.1597101 41.2669013 10.7917242 40.9596608 10.4341647 40.6424472 10.0968914 40.2955408 9.7799044 39.9484077 9.47334387 39.5804217 9.17732312 39.1921495 8.91122178 38.7934508 8.65554689 38.3842123 8.42095158 37.9652274 8.20584922 37.5364959 8.0117131 37.0866849 7.83854323 36.6371006 7.68497963 36.1671167 7.55226895 35.6970194 7.43984454 35.216609 7.35813284 34.7264521 7.2967074 34.2250755 7.25556822 33.7243788 7.24570842 33.2236822 7.25556822 32.7335253 7.2967074 32.2425751 7.35813284 31.7628447 7.43984454 31.2921808 7.55226895 30.8223102 7.68497963 30.3720459 7.83854323 29.932888 8.0117131 29.5034766 8.20584922 29.0844916 8.42095158 28.6760465 8.65554689 28.2772345 8.91122178 27.899502 9.17732312 27.5307227 9.47334387 27.1732765 9.7799044 26.8366833 10.0968914 26.5090432 10.4341647 26.2131357 10.7917242 25.9163217 11.1597101 25.6509003 11.5375559 25.3953388 11.9361413 25.1607435 12.3448131 24.9456411 12.7636847 24.751505 13.1932095 24.5775418 13.6323674 24.4247715 14.0927181 24.2920608 14.552049 24.1789564 15.0228262 24.0979247 15.5024433 24.0363859 15.9828537 23.9952468 16.4835503 23.9848203 16.984927 23.9952468 17.4849436 24.0363859 17.9863203 24.0979247 18.466164 24.1789564 18.9571142 24.2920608 19.4269848 24.4247715 19.8872223 24.5775418 20.3466664 24.751505 20.7866176 24.9456411 21.2258888 25.1607435 21.6448738 25.3953388 22.0533189 25.6509003 22.452131 25.9163217 22.8297501 26.2131357 23.1978494 26.5090432 23.5554089 26.8366833 23.8926821 27.1732765 24.2202089 27.5307227 24.5267695 27.899502 24.8130437 28.2772345 25.0888916 28.6760465 25.3437731 29.0844916 25.5791618 29.5034766 25.7934708 29.932888 25.9884002 30.3720459 26.1615701 30.8223102 26.3255602 31.2921808 26.447731 31.7628447 26.5601555 32.2425751 26.6418672 32.7335253 26.7138324 33.2236822 26.7445451 33.7243788 26.7542916"></polygon>
                        <polygon id="Path" fill="#EB2230" points="20.6740799 26.7542916 21.1747765 26.7445451 21.6649334 26.7138324 22.1558835 26.6418672 22.635614 26.5601555 23.1062779 26.447731 23.5768285 26.3255602 24.0259595 26.1615701 24.4651174 25.9884002 24.8947554 25.7934708 25.3135137 25.5791618 25.7221856 25.3437731 26.1207709 25.0888916 26.4986167 24.8130437 26.867396 24.5267695 27.2249555 24.2202089 27.5614354 23.8926821 27.8890756 23.5554089 28.1857763 23.1978494 28.4819104 22.8297501 28.7472184 22.452131 29.0027799 22.0533189 29.2373753 21.6448738 29.4525909 21.2258888 29.6467271 20.7866176 29.8205769 20.3466664 29.9734605 19.8872223 30.1067379 19.4269848 30.2192756 18.9571142 30.3003073 18.466164 30.3616194 17.9863203 30.4029853 17.4849436 30.4132984 16.984927 30.4029853 16.4835503 30.3616194 15.9828537 30.3003073 15.5024433 30.2192756 15.0228262 30.1067379 14.552049 29.9734605 14.0927181 29.8205769 13.6323674 29.6467271 13.1932095 29.4525909 12.7636847 29.2373753 12.3448131 29.0027799 11.9361413 28.7472184 11.5375559 28.4819104 11.1597101 28.1857763 10.7917242 27.8890756 10.4341647 27.5614354 10.0968914 27.2249555 9.7799044 26.867396 9.47334387 26.4986167 9.17732312 26.1207709 8.91122178 25.7221856 8.65554689 25.3135137 8.42095158 24.8947554 8.20584922 24.4651174 8.0117131 24.0259595 7.83854323 23.5768285 7.68497963 23.1062779 7.55226895 22.635614 7.43984454 22.1558835 7.35813284 21.6649334 7.2967074 21.1747765 7.25556822 20.6740799 7.24570842 20.1733832 7.25556822 19.6720066 7.2967074 19.1817364 7.35813284 18.7014393 7.43984454 18.2321354 7.55226895 17.7614714 7.68497963 17.3117738 7.83854323 16.8619628 8.0117131 16.4332313 8.20584922 16.0143597 8.42095158 15.6050079 8.65554689 15.2071025 8.91122178 14.818717 9.17732312 14.4501643 9.47334387 14.1030313 9.7799044 13.7558982 10.0968914 13.4389112 10.4341647 13.1315574 10.7917242 12.83565 11.1597101 12.5598021 11.5375559 12.3145537 11.9361413 12.068852 12.3448131 11.864856 12.7636847 11.6602935 13.1932095 11.4864436 13.6323674 11.33356 14.0927181 11.200056 14.552049 11.0982847 15.0228262 11.0059199 15.5024433 10.9452878 15.9828537 10.9040353 16.4835503 10.8942888 16.984927 10.9040353 17.4849436 10.9452878 17.9863203 11.0059199 18.466164 11.0982847 18.9571142 11.200056 19.4269848 11.33356 19.8872223 11.4864436 20.3466664 11.6602935 20.7866176 11.864856 21.2258888 12.068852 21.6448738 12.3145537 22.0533189 12.5598021 22.452131 12.83565 22.8297501 13.1315574 23.1978494 13.4389112 23.5554089 13.7558982 23.8926821 14.1030313 24.2202089 14.4501643 24.5267695 14.818717 24.8130437 15.2071025 25.0888916 15.6050079 25.3437731 16.0143597 25.5791618 16.4332313 25.7934708 16.8619628 25.9884002 17.3117738 26.1615701 17.7614714 26.3255602 18.2321354 26.447731 18.7014393 26.5601555 19.1817364 26.6418672 19.6720066 26.7138324 20.1733832 26.7445451"></polygon>
                        <polygon id="Path" fill="#FBB230" points="26.0594588 10.9858603 31.2412952 10.9858603 31.2412952 10.4543376 26.5090432 10.4543376"></polygon>
                        <polygon id="Path" fill="#FBB230" points="25.2829143 12.1611034 31.2412952 12.1611034 31.2412952 11.6295807 25.5894749 11.6295807"></polygon>
                        <polygon id="Path" fill="#FBB230" points="24.700506 13.3363466 31.2412952 13.3363466 31.2412952 12.8048239 24.9357813 12.8048239"></polygon>
                        <polygon id="Path" fill="#FBB230" points="24.3018073 14.5115898 31.2412952 14.5115898 31.2412952 13.9906069 24.4651174 13.9906069"></polygon>
                        <polygon id="Path" fill="#FBB230" points="24.5364026 20.2139557 31.2614681 20.2139557 31.2614681 19.6826597 24.3736592 19.6826597"></polygon>
                        <polygon id="Path" fill="#FBB230" points="25.0273528 21.3891989 31.2614681 21.3891989 31.2614681 20.8577895 24.7822177 20.8577895"></polygon>
                        <polygon id="Path" fill="#FBB230" points="25.732612 22.5645554 31.2614681 22.5645554 31.2614681 22.033146 25.3953388 22.033146"></polygon>
                        <polygon id="Path" fill="#FBB230" points="26.6934328 23.7397985 31.2614681 23.7397985 31.2614681 23.2082758 26.2235622 23.2082758"></polygon>
                        <polygon id="Path" fill="#FBB230" points="24.0670987 15.6868329 31.2412952 15.6868329 31.2412952 15.1652834 24.1692099 15.1652834"></polygon>
                        <polygon id="Path" fill="#FBB230" points="28.4406579 19.0387126 31.1797564 19.0387126 31.1797564 18.5073032 28.5432225 18.5073032"></polygon>
                        <polygon id="Path" fill="#FBB230" points="28.6550802 17.8634694 31.1797564 17.8634694 31.1797564 17.33206 28.7577582 17.33206"></polygon>
                        <polygon id="Path" fill="#FBB230" points="23.882709 17.33206 24.5979414 17.33206 24.5979414 17.8634694 23.9240749 17.8634694"></polygon>
                        <path d="M42.6043266,22.4828437 C42.8823303,22.4828437 43.1047579,22.7159922 43.1047579,22.9824124 C43.1047579,23.2604161 42.8823303,23.4828437 42.6043266,23.4828437 C42.3264461,23.4828437 42.1047579,23.2604161 42.1047579,22.9824124 C42.1047579,22.7159922 42.3264461,22.4828437 42.6043266,22.4828437 L42.6043266,22.4828437 Z M42.6043266,22.5716915 C42.8382145,22.5716915 43.0265078,22.7607241 43.0265078,22.9824124 C43.0265078,23.2163002 42.8383377,23.4053329 42.6043266,23.4053329 C42.3826384,23.4053329 42.1927431,23.2164235 42.1927431,22.9824124 C42.1927431,22.7607241 42.3826384,22.5716915 42.6043266,22.5716915 L42.6043266,22.5716915 Z" id="Shape" fill="#FBB230"></path>
                        <path d="M42.3911455,23.7585782 L42.3911455,22.7585782 L42.8620605,22.7585782 C42.9787272,22.7585782 43.0676161,22.7585782 43.1277468,22.7857235 C43.1842828,22.8108257 43.2163089,22.8376792 43.2444135,22.8630732 C43.2728449,22.917072 43.3029102,22.9693196 43.3029102,23.0212752 C43.3029102,23.1003762 43.2728449,23.1794772 43.2444135,23.2066225 C43.183956,23.25887 43.0973547,23.2857235 43.006505,23.3108257 C43.0672893,23.337971 43.0970279,23.3648245 43.12742,23.3899267 C43.1555246,23.4167801 43.2159821,23.4690277 43.2440867,23.5481287 L43.3911455,23.7585782 L43.1270932,23.7585782 L42.9480083,23.5212752 C42.9172893,23.4421742 42.8610802,23.417072 42.8313416,23.3902186 C42.8313416,23.3648245 42.8009494,23.3648245 42.7725181,23.337971 C42.7424527,23.337971 42.7123873,23.337971 42.6538906,23.337971 L42.6238252,23.337971 L42.6238252,23.7585782 L42.3911455,23.7585782 Z M42.6248056,23.1794772 L42.7734985,23.1794772 C42.8901651,23.1794772 42.9489886,23.1794772 42.979054,23.154375 C43.0071586,23.154375 43.0398383,23.154375 43.0398383,23.1272297 C43.0679429,23.1003762 43.0679429,23.075274 43.0679429,23.0481287 C43.0679429,23.0209833 43.0679429,22.9958811 43.0398383,22.9690277 C43.0071586,22.9415904 42.979054,22.9415904 42.9493154,22.9164883 C42.9493154,22.9164883 42.8904919,22.9164883 42.8022566,22.9164883 L42.6251324,22.9164883 L42.6251324,23.1794772 L42.6248056,23.1794772 Z" id="Shape" fill="#FBB230" fill-rule="nonzero"></path>
                        <path d="M42.5028116,18.6401272 C42.7808977,18.6401272 43.0028733,18.8625548 43.0028733,19.1405585 C43.0028733,19.418439 42.7808977,19.6401272 42.5028116,19.6401272 C42.2247255,19.6401272 42.0028733,19.418439 42.0028733,19.1405585 C42.0028733,18.8624316 42.2247255,18.6401272 42.5028116,18.6401272 L42.5028116,18.6401272 Z M42.5028116,18.7288518 C42.7368725,18.7288518 42.9254285,18.9177612 42.9254285,19.1404353 C42.9254285,19.3734605 42.7369959,19.5626164 42.5028116,19.5626164 C42.268874,19.5626164 42.0803181,19.3734605 42.0803181,19.1404353 C42.0803181,18.9178844 42.2687507,18.7288518 42.5028116,18.7288518 L42.5028116,18.7288518 Z" id="Shape" fill="#FFFFFF"></path>
                        <path d="M42.2884676,19.9158617 L42.2884676,18.9158617 L42.7586339,18.9158617 C42.8766645,18.9158617 42.9653505,18.9158617 43.0237137,18.9434066 C43.0537105,18.9434066 43.1097913,18.9972988 43.1401141,19.0245443 C43.1701109,19.0781371 43.1981513,19.1314305 43.1981513,19.1871192 C43.1981513,19.2682569 43.1701109,19.3215503 43.1097913,19.3748437 C43.0817509,19.4287359 42.993717,19.4559814 42.905357,19.4838258 C42.9353538,19.5095743 42.993717,19.5374186 43.0237137,19.5649635 C43.0537105,19.590712 43.0817509,19.6446042 43.1401141,19.7257419 L43.2884676,19.9158617 L43.0233877,19.9158617 L42.8463417,19.699694 C42.7879785,19.6185563 42.7579817,19.5649635 42.727985,19.5649635 C42.6999446,19.5374186 42.6999446,19.5095743 42.6715781,19.5095743 C42.639299,19.5095743 42.6112586,19.5095743 42.5532214,19.5095743 L42.4948582,19.5095743 L42.4948582,19.9155623 L42.2884676,19.9155623 L42.2884676,19.9158617 Z M42.4951842,19.3493946 L42.6719041,19.3493946 C42.7883045,19.3493946 42.8466678,19.3493946 42.8766645,19.3218497 C42.905357,19.3218497 42.9353538,19.2940054 42.9353538,19.2940054 C42.9653505,19.2682569 42.9653505,19.2404126 42.9653505,19.2128677 C42.9653505,19.1871192 42.9353538,19.1317299 42.9353538,19.1317299 C42.905357,19.1059814 42.8766645,19.0781371 42.8469938,19.0781371 C42.8173231,19.0781371 42.7586339,19.0781371 42.6722302,19.0781371 L42.4955103,19.0781371 L42.4955103,19.3493946 L42.4951842,19.3493946 Z" id="Shape" fill="#FFFFFF" fill-rule="nonzero"></path>
                        <path d="M35.8911555,19.3655594 L36.5551622,15.8915088 L37.382819,15.8915088 L37.4853836,16.248955 C37.6383806,16.0953914 37.8938288,15.8915088 38.4049519,15.8915088 L38.1495037,16.8111904 C37.9246548,16.8111904 37.5768418,16.7700513 37.2913608,17.4444844 C37.0768251,17.9557209 36.9742605,18.8034373 36.8617228,19.3655594 L35.8911555,19.3655594 L35.8911555,19.3655594 Z" id="Path" fill="#FFFFFF"></path>
                        <path d="M23.3619528,15.0228262 L24.280841,15.0228262 L24.0768451,15.9423945 L24.5880816,15.9423945 L24.434518,16.6576268 L23.9749605,16.6576268 L23.7193989,18.0374326 C23.6685133,18.2929941 23.7193989,18.548669 24.2305221,18.4458777 L24.1286374,19.2126757 C23.5769418,19.6316607 22.4723039,19.3251002 22.6461537,18.2929941 L23.3619528,15.0228262 Z" id="Path" fill="#FFFFFF"></path>
                        <path d="M27.4594375,17.8327567 C27.5614354,17.2707479 27.8171103,15.8915088 26.1718832,15.8915088 C24.6391939,15.8915088 24.434518,17.4243115 24.434518,17.6281941 C24.384199,17.8327567 24.384199,19.3655594 26.0188863,19.3655594 C26.4273315,19.3655594 26.9999933,19.3145604 27.2555549,19.2125624 L27.4085518,18.4968767 C27.2555549,18.5485557 26.7340053,18.5994413 26.3254468,18.5994413 C25.9680006,18.5994413 25.3548796,18.5994413 25.4567642,17.8326433 L27.4594375,17.8326433 L27.4594375,17.8327567 Z" id="Path" fill="#FFFFFF"></path>
                        <polygon id="Path" fill="#FFFFFF" points="16.3103805 19.3655594 17.1280641 15.1757098 15.533836 15.1757098 14.4094785 17.7307587 14.2049159 15.1757098 12.7232255 15.1757098 11.9054286 19.3655594 12.8251102 19.3655594 13.4389112 16.350953 13.6944728 19.3655594 14.5631554 19.3655594 15.8913955 16.401952 15.3291601 19.3655594"></polygon>
                        <path d="M17.383059,15.9933935 L17.2300621,16.7601915 C17.4856236,16.7601915 18.0986314,16.6576268 18.4051919,16.6576268 C18.7117524,16.6576268 19.1204243,16.6067412 18.9674273,17.1178643 C18.7117524,17.1178643 17.0252728,16.8621894 16.7697113,18.3439931 C16.6272541,19.3251002 17.7920708,19.682773 18.5070765,19.2126757 L18.6096411,19.4166717 L19.4777571,19.4166717 L19.8358833,17.5261961 C20.2138424,15.8195436 18.5687286,15.7888309 17.383059,15.9933935 L17.383059,15.9933935 Z" id="Path" fill="#FFFFFF"></path>
                        <path d="M32.6008147,16.299954 C32.3655394,16.1567035 32.2222889,16.1567035 31.9262681,16.1567035 C31.6399939,16.1567035 30.965334,16.4429778 30.8731959,17.2090958 C30.7299454,18.1700299 31.3536063,18.5994413 32.2628614,18.3131671 L32.5086765,19.1308507 C30.9555876,19.9073952 29.4727639,18.701326 29.9637141,16.8208236 C30.3617328,15.4004453 32.2425751,14.5423025 33.183223,15.7174323 L32.6008147,16.299954 Z" id="Path" fill="#FFFFFF"></path>
                        <path d="M40.7046659,16.299954 C38.2005027,14.4193383 37.2292554,19.3655594 39.1711832,19.3655594 C39.4777438,19.3655594 39.7849843,19.2125624 39.9889802,19.1099978 L40.0908648,19.3655594 L41.1132244,19.3655594 L41.9310214,14.9711472 L40.9597741,14.9711472 L40.7046659,16.299954 Z" id="Path" fill="#FFFFFF"></path>
                        <path d="M33.3361066,15.9933935 L33.1831097,16.7601915 C33.4378779,16.7601915 34.0517923,16.6576268 34.3576728,16.6576268 C34.6650267,16.6576268 35.0224729,16.6067412 34.9204749,17.1178643 C34.6650267,17.1178643 32.9785471,16.8621894 32.7236655,18.3439931 C32.6201943,19.0591122 33.2341087,19.4166717 33.6942328,19.4166717 C34.1536769,19.4166717 34.3072405,19.3146737 34.4602375,19.2126757 L34.5622354,19.4166717 L35.431598,19.4166717 L35.7890442,17.5261961 C36.1776564,15.8195436 34.531636,15.7888309 33.3361066,15.9933935 L33.3361066,15.9933935 Z" id="Path" fill="#FFFFFF"></path>
                        <path d="M25.4567642,17.1686366 L26.6320074,17.1686366 C26.764718,16.2385286 25.6509003,16.4228049 25.4567642,17.1686366 L25.4567642,17.1686366 Z" id="Path" fill="#EB2230"></path>
                        <path d="M18.8145437,17.8327567 C18.6609801,17.8327567 18.3034206,17.730872 17.9960667,17.9354346 C17.6902995,18.1393172 17.5876216,18.4968767 17.9457478,18.5994413 C18.2516283,18.701326 18.6609801,18.4968767 18.7627514,18.1903162 L18.8145437,17.8327567 Z" id="Path" fill="#EB2230"></path>
                        <path d="M40.2444284,16.8620761 C39.9378679,16.4528376 39.2738612,16.7601915 39.0691853,17.5260828 C38.9163017,18.0373193 39.2228622,18.3948788 39.5294227,18.3948788 C40.1732565,18.3949921 40.5615288,17.3425998 40.2444284,16.8620761 L40.2444284,16.8620761 Z" id="Path" fill="#FBB230"></path>
                        <path d="M34.8179103,17.8327567 C34.66514,17.8327567 34.3074672,17.730872 34.0002267,17.9354346 C33.6944594,18.1393172 33.5917815,18.4968767 33.950021,18.5994413 C34.2559015,18.701326 34.716139,18.4968767 34.7670247,18.1903162 L34.8179103,17.8327567 Z" id="Path" fill="#FBB230"></path>
                        <path d="M27.4594375,19.4165583 L27.5112298,19.0589988 L28.1242375,15.9423945 L28.9413545,15.9423945 L29.0432391,16.299954 C29.1968027,16.1463904 29.4524776,15.9423945 29.9636007,15.9423945 L29.7079258,16.8620761 C29.5137897,16.8620761 29.1046646,16.8209369 28.798104,17.6386206 C28.6242542,18.1086045 28.5222562,18.9061152 28.4301181,19.4165583 L27.4594375,19.4165583 Z" id="Path" fill="#FFFFFF"></path>
                        <path d="M22.5134431,16.7804777 L22.4721906,16.7804777 L22.4317314,16.7804777 L22.3913855,16.7700513 L22.350133,16.7601915 L22.3089938,16.7601915 L22.2684213,16.7496517 C22.084145,16.7294787 21.931148,16.718939 21.7475517,16.7294787 C21.2768878,16.7699379 21.0730052,17.0659587 21.4711372,17.2908075 C21.7881242,17.4751972 22.033826,17.4443711 22.2475684,17.649047 C22.7079192,18.0778918 22.4724172,18.9060019 21.9612941,19.2224222 L21.8698359,19.2635614 L21.767838,19.3047006 L21.6555269,19.3347333 L21.5536423,19.365446 C21.0626921,19.4471577 20.3986854,19.4268715 19.9180483,19.2635614 L20.0508723,18.5784751 C20.4391446,18.6601868 21.0732319,18.8340367 21.3692526,18.6301541 C21.7066392,18.4053052 21.3999653,18.1392039 21.1541503,18.0268928 L21.0319794,17.9863203 L20.9098085,17.9354346 C19.9385612,17.4953701 20.1640901,16.3201269 21.0829783,16.0751052 C21.4509643,15.9933935 21.8190636,15.9933935 22.1974761,16.0241062 L22.268648,16.0241062 C22.3608994,16.033966 22.4426111,16.0445058 22.5243228,16.0646787 L22.564782,16.0646787 L22.5954948,16.0751052 L22.6262075,16.0751052 L22.6463804,16.0855316 L22.6770931,16.0855316 L22.5134431,16.7804777 L22.5134431,16.7804777 Z" id="Path" fill="#FFFFFF"></path>
                    </g>
                </g>
            </g>
        </g>
    </g>
</svg>