<?xml version="1.0" encoding="UTF-8"?>
<svg width="25px" height="37px" viewBox="0 0 25 37" version="1.1" xmlns="http://www.w3.org/2000/svg" xmlns:xlink="http://www.w3.org/1999/xlink">
    <title>40FD959A-14A4-4341-85EB-3CC748F68C50</title>
    <g id="WEB" stroke="none" stroke-width="1" fill="none" fill-rule="evenodd">
        <g id="Style-Guide-TRC" transform="translate(-384, -315)">
            <g id="1075440_mobile_touch_iphone_pink_smartphone_icon-(1)-copy" transform="translate(384, 315)">
                <path d="M23,34.1479167 C23,35.728125 21.7135593,37 20.1152542,37 L2.88474576,37 C1.28644068,37 0,35.728125 0,34.1479167 L0,2.85208333 C0,1.271875 1.28644068,0 2.88474576,0 L20.0762712,0 C21.6745763,0 22.9610169,1.271875 22.9610169,2.85208333 L22.9610169,34.1479167 L23,34.1479167 Z" id="Path" fill="#F4B8D4" fill-rule="nonzero"></path>
                <path d="M23,34.1479167 C23,35.728125 21.7135593,37 20.1152542,37 L2.88474576,37 C1.28644068,37 0,35.728125 0,34.1479167 L0,2.85208333 C0,1.271875 1.28644068,0 2.88474576,0 L20.0762712,0 C21.6745763,0 22.9610169,1.271875 22.9610169,2.85208333 L22.9610169,34.1479167 L23,34.1479167 Z" id="Path" stroke="#3D3D3D" stroke-linejoin="round"></path>
                <path d="M25,34.1479167 C25,35.728125 23.7135593,37 22.1152542,37 L4.88474576,37 C3.28644068,37 2,35.728125 2,34.1479167 L2,2.85208333 C2,1.271875 3.28644068,0 4.88474576,0 L22.0762712,0 C23.6745763,0 24.9610169,1.271875 24.9610169,2.85208333 L24.9610169,34.1479167 L25,34.1479167 Z" id="Path" fill="#FCCFE5" fill-rule="nonzero"></path>
                <path d="M25,34.1479167 C25,35.728125 23.7135593,37 22.1152542,37 L4.88474576,37 C3.28644068,37 2,35.728125 2,34.1479167 L2,2.85208333 C2,1.271875 3.28644068,0 4.88474576,0 L22.0762712,0 C23.6745763,0 24.9610169,1.271875 24.9610169,2.85208333 L24.9610169,34.1479167 L25,34.1479167 Z" id="Path" stroke="#3D3D3D" stroke-linejoin="round"></path>
                <rect id="Rectangle" fill="#FFFFFF" fill-rule="nonzero" x="6" y="7" width="17" height="24"></rect>
                <rect id="Rectangle" stroke="#3D3D3D" stroke-linejoin="round" x="6" y="7" width="17" height="24"></rect>
                <line x1="10" y1="4.5" x2="18" y2="4.5" id="Path" stroke="#3D3D3D" stroke-linejoin="round"></line>
                <circle id="Oval" fill="#3D3D3D" fill-rule="nonzero" cx="13.5" cy="34.5" r="1.5"></circle>
            </g>
        </g>
    </g>
</svg>