<?xml version="1.0" encoding="UTF-8"?>
<svg width="34px" height="34px" viewBox="0 0 34 34" version="1.1" xmlns="http://www.w3.org/2000/svg" xmlns:xlink="http://www.w3.org/1999/xlink">
    <title>0939539D-02A6-4C01-A153-B46C8F19314C</title>
    <g id="WEB" stroke="none" stroke-width="1" fill="none" fill-rule="evenodd">
        <g id="Style-Guide-TRC" transform="translate(-445, -317)" fill-rule="nonzero">
            <g id="4306507_cinema_dessert_fastfood_film_food_icon-(1)" transform="translate(445, 317)">
                <path d="M31.7313213,2.49896826 C31.3751287,1.05824364 30.1259052,0.0371800814 28.6760083,0.00168197227 C27.4524095,0.0225074758 26.3495278,0.762469148 25.8415549,1.90341538 C25.2631417,1.08518939 24.3399886,0.596996058 23.3540906,0.587963421 C22.1481637,0.607055343 21.0572984,1.32582231 20.5398605,2.44224893 C20.1959095,1.00816966 18.9410358,0 17.4999811,0 C16.0589265,0 14.8040527,1.00816966 14.4601017,2.44224893 C13.9426638,1.32582231 12.8517986,0.607055343 11.6458716,0.587963421 C10.6599736,0.596996058 9.73682054,1.08518939 9.15840729,1.90341538 C8.6504344,0.762469148 7.54755276,0.0225074758 6.32395391,0.00168197227 C4.87405705,0.0371800814 3.62483355,1.05824364 3.26864095,2.49896826 C1.88467077,3.0038221 0.97151227,4.35992916 1.00203619,5.86504184 C0.938564275,7.73892551 2.36678913,9.31206504 4.19518682,9.38218516 C4.18830992,10.3667164 4.57255507,11.3117542 5.25957036,12 L5.27393954,11.9760034 C5.3966152,10.4560635 6.45528412,9.18742486 7.90146611,8.82734965 C9.34764809,8.46727444 10.8563239,9.09668708 11.6458716,10.3894985 C12.2768449,9.35557271 13.3829426,8.72753873 14.5729264,8.72753873 C15.7629102,8.72753873 16.8690078,9.35557271 17.4999811,10.3894985 C18.1309544,9.35557271 19.2370521,8.72753873 20.4270359,8.72753873 C21.6170196,8.72753873 22.7231173,9.35557271 23.3540906,10.3894985 C24.1436383,9.09668708 25.6523141,8.46727444 27.0984961,8.82734965 C28.5446781,9.18742486 29.603347,10.4560635 29.7260227,11.9760034 L29.7403919,12 C30.4274072,11.3117542 30.8116523,10.3667164 30.8047754,9.38218516 C32.6336032,9.31206952 34.061999,7.73825382 33.997926,5.86395108 C34.0279868,4.35923609 33.1149136,3.0036951 31.7313213,2.49896826 Z" id="Path" fill="#FCCB7E"></path>
                <path d="M33.9981357,6.86363778 C34.0570168,8.73753965 32.7139004,10.3105122 30.9940611,10.3818188 C30.9994344,11.366253 30.6381129,12.3109751 29.9927029,13 C29.9886923,12.9919733 29.9836326,12.9846238 29.9776825,12.9781818 C29.9158096,12.1105254 29.5586861,11.2993337 28.9763243,10.7036369 C28.9863217,10.5967098 28.9913349,10.4892991 28.9913446,10.3818188 C30.7111839,10.3105122 32.0543004,8.73753965 31.9954193,6.86363778 C32.0251944,5.35805713 31.1653855,4.00137998 29.8625263,3.49818402 C29.6066761,2.45683342 28.9170987,1.60663328 28,1.20182091 C28.3160449,1.06794193 28.6522489,0.999497452 28.9913446,1 C30.3552221,1.03618196 31.5300795,2.05744527 31.8652427,3.49818402 C33.1681019,4.00137998 34.0279109,5.35805713 33.9981357,6.86363778 L33.9981357,6.86363778 Z" id="Path" fill="#FDD598"></path>
                <path d="M12,10.5903767 C11.2582113,9.35363631 9.84079381,8.75152218 8.48208999,9.09598042 C7.12338617,9.44043867 6.12875513,10.6540547 6.0135,12.1080727 C6.0065,12.201983 6,12.2958934 6,12.3918907 C6,12.4205855 8,33 8,33 L13,33 L12.1335,10.396817 C12.0885,10.4615108 12.0405,10.5230743 12,10.5903767 Z" id="Path" fill="#FEBFC2"></path>
                <path d="M14.4378086,10 C13.4724774,10.0013968 12.5661304,10.5204769 12,11.3961739 L12.8073232,34 L17,34 L17,11.5897391 C16.4475129,10.6008478 15.4793801,10 14.4378086,10 L14.4378086,10 Z" id="Path" fill="#FFFFE2"></path>
                <path d="M29.9865,12.1080727 C29.8712449,10.6540547 28.8766138,9.44043867 27.51791,9.09598042 C26.1592062,8.75152218 24.7417887,9.35363631 24,10.5903767 C23.9595,10.5230743 23.9115,10.4609891 23.8665,10.396817 L23,33 L28,33 L30,12.3918907 C30,12.2958934 29.9935,12.201983 29.9865,12.1080727 Z" id="Path" fill="#FFFFE2"></path>
                <path d="M29.9864899,13.1074947 C29.9125627,12.1225046 29.4278686,11.2209395 28.6605845,10.641217 C27.8933004,10.0614944 26.920705,9.86200269 26,10.095497 C27.3648549,10.4353408 28.3667944,11.6495852 28.485364,13.1074947 C28.4923693,13.2014076 28.4988742,13.2953206 28.4988742,13.3913205 L26.497373,34 L27.9984989,34 L30,13.3913205 C30,13.2953206 29.9934951,13.2014076 29.9864899,13.1074947 Z" id="Path" fill="#FFFFAC"></path>
                <path d="M19.5621914,10 C18.5206199,10 17.5524871,10.6008478 17,11.5897391 L17,34 L21.1926768,34 L22,11.3961739 C21.4338696,10.5204769 20.5275226,10.0013968 19.5621914,10 Z" id="Path" fill="#FEBFC2"></path>
                <path d="M31.6323555,2.55531099 C31.1261825,1.05701289 29.7365411,0.0356849419 28.1555429,0 C26.9996554,0.00710141017 25.9165614,0.565458487 25.2402263,1.50290536 C24.5849111,0.905082525 23.7303846,0.57287223 22.843377,0.571093412 C21.8023321,0.577141951 20.814655,1.03266376 20.1341724,1.82059267 C19.4932454,0.695143057 18.2977438,0 17.0026506,0 C15.7075574,0 14.5120558,0.695143057 13.8711288,1.82059267 C13.1894295,1.0312707 12.1995143,0.575610119 11.156612,0.571093412 C10.2696045,0.57287223 9.41507798,0.905082525 8.75976279,1.50290536 C8.08342762,0.565458487 7.00033368,0.00710141017 5.84444615,0 C4.26344794,0.0356849419 2.87380657,1.05701289 2.36763357,2.55531099 C0.904659624,3.19148954 -0.0298832149,4.64762107 0.00106366895,6.24271505 C-0.0436107186,8.16569043 1.32365233,9.83265411 3.21811133,10.1649315 C3.32033887,11.0053472 3.68249125,11.7928455 4.25398368,12.4174301 C4.25398368,12.4402739 4.25079638,12.4620551 4.25079638,12.4843676 C4.25079638,12.5215551 4.25079638,12.5401488 6.37831882,33.5218551 C6.40560027,33.793319 6.63406491,33.9999866 6.90687933,33.9999866 L27.0931097,33.9999866 C27.3669402,34.0013522 27.5969464,33.7943338 27.6243263,33.5218551 L29.7491927,12.5374926 C29.7491927,12.5194301 29.7518488,12.5013676 29.7518488,12.4843676 C29.7518488,12.4673676 29.7491927,12.4402739 29.7486615,12.4174301 C30.3201539,11.7928455 30.6823063,11.0053472 30.7845338,10.1649315 C32.6779337,9.83149217 34.04381,8.16484324 33.9989254,6.24271505 C34.0298723,4.64762107 33.0953294,3.19148954 31.6323555,2.55531099 Z M7.38497426,32.9374805 C7.07102526,29.8323261 5.33235336,12.6899612 5.31322956,12.4843676 C5.31322956,12.4014927 5.31960416,12.3196802 5.32544754,12.2394615 C5.45945804,10.7301152 6.71975199,9.57053572 8.2349208,9.56249099 C9.24032154,9.56097187 10.1751253,10.0791341 10.7066716,10.9325873 C10.7303205,10.9697806 10.7583183,11.0040221 10.7900726,11.0345872 L11.6660488,32.9374805 L7.38497426,32.9374805 Z M12.5850535,9.97686909 C12.6466746,9.93968161 12.7098894,9.90674413 12.7741666,9.8743379 C12.8166639,9.85255666 12.8602236,9.83183792 12.9043146,9.81218168 C12.9574363,9.78827545 13.0105579,9.76596296 13.0673981,9.74577547 C13.1242383,9.72558799 13.1853282,9.70486925 13.2453557,9.68733801 C13.2921027,9.67299427 13.339381,9.65865053 13.3871905,9.64696303 C13.4604984,9.62943179 13.5353999,9.61615055 13.6108327,9.60393181 C13.6490803,9.59755681 13.6867967,9.58958807 13.7261067,9.58480682 C13.8429538,9.57033284 13.9605639,9.56288197 14.0783033,9.56249426 C15.0334724,9.56249426 15.9275155,10.0323732 16.4687779,10.8194311 L16.4687779,32.9374805 L12.7295444,32.9374805 L11.8365693,10.6249937 C12.0310939,10.3895585 12.2610207,10.1857837 12.5181202,10.0209628 C12.5409625,10.0060878 12.5632736,9.99068158 12.5866471,9.97686909 L12.5850535,9.97686909 Z M21.2704447,32.9374805 L17.5312111,32.9374805 L17.5312111,10.8194311 C17.5561783,10.7833061 17.5816767,10.7477124 17.6082375,10.7131812 C17.6417042,10.6690874 17.675702,10.6249937 17.7112935,10.583025 C17.7537909,10.5330875 17.7989443,10.4863375 17.8446289,10.4401188 C17.8903135,10.3939001 17.9216553,10.3604314 17.962559,10.3232439 C18.0034627,10.2860564 18.0597716,10.2403689 18.109706,10.2005252 C18.1596403,10.1606815 18.1957631,10.1304002 18.2409165,10.0985253 C18.2860699,10.0666503 18.3471598,10.0289316 18.4002815,9.99546283 C18.4534031,9.9619941 18.4932444,9.93702536 18.5415851,9.91099413 C18.5989565,9.88018164 18.6584527,9.85415041 18.717949,9.82705668 C18.7662897,9.80527544 18.8140992,9.7813692 18.8635023,9.76171296 C18.9277795,9.73674423 18.9941816,9.71761924 19.0600525,9.69743175 C19.107862,9.68255676 19.1540778,9.66555677 19.2024185,9.65280678 C19.2778513,9.63421304 19.3554089,9.6219943 19.4329665,9.60871306 C19.4738702,9.60180681 19.5142426,9.59118182 19.5562088,9.58586932 C19.7935972,9.55576048 20.0338379,9.55576048 20.2712263,9.58586932 C20.3100051,9.59065057 20.3482527,9.59861931 20.3865003,9.60499431 C20.461933,9.61721305 20.5368346,9.63049429 20.6101425,9.64802553 C20.657952,9.65971302 20.7052302,9.67458802 20.7519773,9.68840051 C20.8120048,9.70593175 20.871501,9.72505674 20.9299349,9.74683797 C20.9883687,9.76861921 21.0393655,9.78933795 21.0930183,9.81324418 C21.1371093,9.83290042 21.1806691,9.85361916 21.2231664,9.8754004 C21.2874436,9.90780663 21.3506584,9.94074411 21.4122795,9.97793159 C21.435653,9.99174408 21.4579641,10.0071503 21.4808065,10.0220253 C21.7382057,10.1864352 21.9684916,10.3898522 22.1634198,10.6249937 L21.2704447,32.9374805 Z M26.6150148,32.9374805 L22.3339403,32.9374805 L23.2099165,11.0345872 C23.2416707,11.0040221 23.2696686,10.9697806 23.2933175,10.9325873 C23.8248638,10.0791341 24.7596675,9.56097187 25.7650683,9.56249099 C27.2796606,9.57075802 28.5395039,10.7296744 28.6740103,12.238399 C28.6798537,12.3117115 28.6856971,12.3844927 28.6867595,12.4593989 L26.6150148,32.9374805 Z M30.2804093,9.13749458 C29.9870264,9.13749458 29.7491927,9.37534317 29.7491927,9.66874427 C29.7496883,10.1255785 29.6488115,10.5768307 29.4538362,10.9899622 C29.4463992,10.9708372 29.4347125,10.9538373 29.4267442,10.9368373 C29.3651889,10.7936032 29.2954855,10.6540104 29.2179761,10.5187438 C29.203102,10.4932438 29.1898216,10.4656188 29.1744163,10.4411813 C29.0861797,10.2964005 28.9889534,10.1572944 28.8833096,10.0246816 C28.8604673,9.99546283 28.8365626,9.96783784 28.8126578,9.93968161 C28.7034937,9.80650741 28.5858504,9.68051655 28.4604612,9.56249937 L28.4572739,9.55930683 C28.3289041,9.44284457 28.1931626,9.33477692 28.0508932,9.23577578 C28.0206139,9.21452579 27.9908658,9.1932758 27.9600552,9.17255706 C27.8191311,9.07746249 27.6722092,8.99157522 27.5202079,8.91543222 C27.4952407,8.90321347 27.4697423,8.89311973 27.4447751,8.88143224 C27.3023491,8.81408092 27.1560001,8.75536029 27.0065214,8.70558859 C26.9794294,8.69655735 26.9533998,8.68593235 26.9252453,8.67743236 C26.7598556,8.62660285 26.5912638,8.58684819 26.4205895,8.55843243 C26.3828731,8.55205743 26.345688,8.54727618 26.3074404,8.54196369 C26.1278503,8.51533577 25.9466167,8.50131193 25.7650683,8.49999496 C25.6213304,8.50027903 25.4777057,8.50808135 25.3347828,8.52336995 C25.2859109,8.52868245 25.2381014,8.53930744 25.1897607,8.54621368 C25.0978602,8.55949493 25.0059597,8.57224492 24.9156529,8.59190116 C24.8582815,8.6041199 24.8025038,8.62218239 24.7456636,8.63705738 C24.6670436,8.65777612 24.5862986,8.67743236 24.5103347,8.70346359 C24.4508384,8.72311983 24.3929358,8.74755732 24.334502,8.7698698 C24.2627877,8.79749479 24.1910735,8.82299477 24.1220153,8.85593225 C24.0630503,8.88302599 24.0062101,8.91383847 23.9488387,8.9430572 C23.8824367,8.97705718 23.8160346,9.01105716 23.7517574,9.04930714 C23.6874802,9.08755711 23.6402019,9.11996334 23.5849554,9.15555707 C23.5297088,9.1911508 23.4627756,9.23630703 23.4032793,9.28040075 C23.343783,9.32449447 23.297036,9.3622132 23.2439143,9.40471318 C23.1907927,9.44721315 23.1307652,9.49874437 23.0765811,9.54868184 C23.022397,9.59861931 22.9798997,9.64165054 22.9326214,9.68999426 C22.9028733,9.72027549 22.8704691,9.74736922 22.8417834,9.77871295 C22.629164,9.55004278 22.3904296,9.34713261 22.1304843,9.17415081 C22.1140166,9.16299457 22.0970177,9.15290083 22.08055,9.14227583 C21.9785564,9.07586962 21.874438,9.01477591 21.7671322,8.95846344 C21.7294158,8.93827595 21.690637,8.91915096 21.6518582,8.90002598 C21.563145,8.857526 21.4733694,8.81768227 21.381469,8.7815573 C21.3310034,8.76136981 21.2805378,8.74171357 21.229541,8.72365108 C21.1434839,8.6939011 21.0568956,8.67052611 20.9687137,8.64502613 C20.915592,8.62961989 20.8587518,8.61315115 20.8024429,8.60040115 C20.7084175,8.57968242 20.6133298,8.56427617 20.5177108,8.54993243 C20.4672452,8.54249494 20.4173108,8.53186994 20.3668453,8.5260262 C20.0625521,8.49011103 19.7550194,8.49135979 19.4510279,8.52974494 C19.4010935,8.53558869 19.3527528,8.54515119 19.3033497,8.55311993 C19.1971063,8.56905742 19.0945815,8.58818241 18.9920567,8.6126199 C18.9389351,8.62590114 18.8826261,8.64077613 18.828442,8.65618237 C18.7312294,8.68380735 18.6361416,8.71515108 18.5421163,8.75021356 C18.4889946,8.7688073 18.4390603,8.78740104 18.3880635,8.80811978 C18.2818202,8.85168225 18.1835451,8.90055722 18.0842076,8.95261969 C18.0480849,8.97121343 18.0108997,8.98715092 17.9779643,9.00574466 C17.846296,9.07951718 17.7189506,9.16075371 17.5965508,9.24905702 C17.5641465,9.272432 17.5343984,9.29952574 17.5025254,9.32396322 C17.4127498,9.39302568 17.3250991,9.46474439 17.2411669,9.54177559 C17.199732,9.57949432 17.1609532,9.61933805 17.1216431,9.65865053 C17.0823331,9.697963 17.0387733,9.73568173 17.0005257,9.77711921 C16.9622781,9.73568173 16.9197808,9.69849425 16.8794084,9.65865053 C16.8390359,9.6188068 16.8013195,9.57949432 16.7598846,9.54177559 C16.6759524,9.46474439 16.5877705,9.39249443 16.4979949,9.32343197 C16.4666531,9.29952574 16.4369049,9.27030701 16.4050319,9.24958827 C16.2825027,9.16104281 16.1549767,9.07962685 16.0230872,9.00574466 C15.9880269,8.98555717 15.9508418,8.96961968 15.9168439,8.95261969 C15.8175064,8.89949473 15.7165752,8.85168225 15.612988,8.80811978 C15.5598664,8.78740104 15.5104632,8.7688073 15.4589352,8.75021356 C15.3649099,8.71515108 15.2698221,8.68380735 15.1726095,8.65618237 C15.1194878,8.64077613 15.0663661,8.62590114 15.0089948,8.6126199 C14.9064699,8.58818241 14.8023515,8.56905742 14.6977018,8.55258868 C14.6482987,8.54515119 14.599958,8.53558869 14.5500236,8.52974494 C14.2460321,8.49135979 13.9384994,8.49011103 13.6342062,8.5260262 C13.5810846,8.53186994 13.5338063,8.54249494 13.4833407,8.54993243 C13.3877217,8.56427617 13.292634,8.57915117 13.1986086,8.60040115 C13.1422997,8.61315115 13.0875843,8.62961989 13.0318066,8.64502613 C12.9441559,8.66893236 12.8570363,8.6939011 12.7715105,8.72365108 C12.7183888,8.74171357 12.6700481,8.76136981 12.6195825,8.7815573 C12.5276821,8.81768227 12.4379065,8.857526 12.3491933,8.90002598 C12.3104145,8.91915096 12.2716357,8.93827595 12.2339193,8.95846344 C12.127676,9.01477591 12.0233804,9.0760467 11.9210327,9.14227583 C11.9040338,9.15290083 11.8870349,9.16299457 11.8679111,9.17415081 C11.6079658,9.34713261 11.3692314,9.55004278 11.156612,9.77871295 C11.1279263,9.74736922 11.0955221,9.72027549 11.065774,9.68999426 C11.0184957,9.64165054 10.9712175,9.59436931 10.9218143,9.54868184 C10.8724112,9.50299437 10.8113213,9.45146315 10.7544811,9.40471318 C10.6976409,9.3579632 10.6514251,9.32024448 10.5977722,9.28040075 C10.5441193,9.24055702 10.477186,9.19593205 10.4155649,9.15555707 C10.3539438,9.1151821 10.3061343,9.08224462 10.2492941,9.04930714 C10.1924539,9.01636966 10.1186148,8.97758843 10.0522128,8.9430572 C9.99484136,8.91383847 9.93800119,8.88302599 9.87903615,8.85593225 C9.80891556,8.82458852 9.73720132,8.79749479 9.66654951,8.7698698 C9.60811569,8.74755732 9.55021308,8.72311983 9.49071682,8.70346359 C9.41369042,8.67743236 9.33400793,8.65777612 9.25485666,8.63705738 C9.19801648,8.62165114 9.14276995,8.6041199 9.08539856,8.59190116 C8.99509174,8.57224492 8.90319127,8.55949493 8.8112908,8.54621368 C8.76241888,8.53930744 8.7151406,8.52868245 8.66626867,8.52336995 C8.52299338,8.50804431 8.37901312,8.50024194 8.2349208,8.49999496 C8.05337238,8.50131193 7.87213878,8.51533577 7.69254867,8.54196369 C7.65430107,8.54727618 7.61711591,8.55205743 7.57939953,8.55843243 C7.40872528,8.58684819 7.24013343,8.62660285 7.07474377,8.67743236 C7.04712051,8.68593235 7.02162211,8.69655735 6.99293642,8.70558859 C6.84375032,8.75568556 6.69759712,8.81439881 6.55521395,8.88143224 C6.53024677,8.89311973 6.50474837,8.90321347 6.47978119,8.91596347 C6.32785255,8.99204277 6.18093773,9.07774842 6.03993386,9.17255706 C6.00912329,9.1932758 5.97937517,9.21452579 5.94909582,9.23577578 C5.80692503,9.33468326 5.67135429,9.4427562 5.54324635,9.55930683 L5.5384654,9.56249937 C5.41349705,9.67888977 5.2960393,9.80309755 5.18680001,9.93436911 C5.16289527,9.9630566 5.13899052,9.99121283 5.11561699,10.0204316 C5.0103248,10.1526946 4.91345228,10.2914474 4.82557273,10.4358688 C4.80963624,10.4619 4.79635582,10.4889938 4.78148176,10.5144938 C4.70377281,10.6496534 4.63406357,10.789258 4.57271364,10.9325873 C4.56474539,10.951181 4.55358984,10.9676497 4.54615281,10.9857122 C4.35179018,10.5738774 4.2509286,10.1241446 4.25079638,9.66874427 C4.25079638,9.37534317 4.01296262,9.13749458 3.71957979,9.13749458 C2.18881174,9.06685502 1.00227807,7.77345274 1.06349685,6.2421838 C1.03935641,5.00806383 1.80038427,3.89439398 2.95887764,3.46852919 C3.12764692,3.41384818 3.25798234,3.2785221 3.30629329,3.10781066 C3.592545,1.93050399 4.63326646,1.09186287 5.84444615,1.06249937 C6.86205582,1.08187323 7.77734407,1.68610454 8.19507956,2.6142797 C8.275757,2.78112368 8.43754548,2.89386204 8.62199546,2.91176566 C8.80644545,2.92966927 8.98689305,2.85015001 9.09814776,2.7019359 C9.57532674,2.03865805 10.3395981,1.64200116 11.156612,1.63359278 C12.1596777,1.65245215 13.0648399,2.23979356 13.4907777,3.14818563 C13.5859186,3.34528232 13.7941613,3.46182908 14.0119012,3.43984171 C14.2288649,3.42085511 14.41226,3.27135039 14.4745909,3.06265443 C14.7504898,1.89080702 15.7961775,1.06268426 16.9999945,1.06268426 C18.2038116,1.06268426 19.2494993,1.89080702 19.5253982,3.06265443 C19.587729,3.27135039 19.7711241,3.42085511 19.9880878,3.43984171 C20.2059614,3.46247501 20.4145511,3.34573408 20.5092113,3.14818563 C20.9351491,2.23979356 21.8403113,1.65245215 22.843377,1.63359278 C23.660203,1.64216947 24.4242416,2.03880789 24.9013101,2.7019359 C25.0134689,2.85010944 25.1944265,2.92953468 25.379405,2.91177952 C25.5631406,2.89322665 25.7240578,2.78057766 25.8043783,2.6142797 C26.2221955,1.68593338 27.1377397,1.08166965 28.1555429,1.06249937 C29.3667226,1.09186287 30.4074441,1.93050399 30.6936958,3.10781066 C30.7420067,3.2785221 30.8723421,3.41384818 31.0411114,3.46852919 C32.1997921,3.89445784 32.9608614,5.00840164 32.9364922,6.24271505 C32.9974109,7.77378055 31.8109618,9.06685331 30.2804093,9.13749458 L30.2804093,9.13749458 Z" id="Shape" fill="#000000"></path>
                <path d="M6.5,5 L5.5,5 C5.22385763,5 5,4.77614237 5,4.5 C5,4.22385763 5.22385763,4 5.5,4 L6.5,4 C6.77614237,4 7,4.22385763 7,4.5 C7,4.77614237 6.77614237,5 6.5,5 Z" id="Path" fill="#D8AE6C"></path>
                <path d="M17.5,5 L16.5,5 C16.2238576,5 16,4.77614237 16,4.5 C16,4.22385763 16.2238576,4 16.5,4 L17.5,4 C17.7761424,4 18,4.22385763 18,4.5 C18,4.77614237 17.7761424,5 17.5,5 Z" id="Path" fill="#D8AE6C"></path>
                <path d="M12.5,7 L11.5,7 C11.2238576,7 11,6.77614237 11,6.5 C11,6.22385763 11.2238576,6 11.5,6 L12.5,6 C12.7761424,6 13,6.22385763 13,6.5 C13,6.77614237 12.7761424,7 12.5,7 Z" id="Path" fill="#D8AE6C"></path>
                <path d="M28.5,5 L27.5,5 C27.2238576,5 27,4.77614237 27,4.5 C27,4.22385763 27.2238576,4 27.5,4 L28.5,4 C28.7761424,4 29,4.22385763 29,4.5 C29,4.77614237 28.7761424,5 28.5,5 Z" id="Path" fill="#D8AE6C"></path>
                <path d="M22.5,7 L21.5,7 C21.2238576,7 21,6.77614237 21,6.5 C21,6.22385763 21.2238576,6 21.5,6 L22.5,6 C22.7761424,6 23,6.22385763 23,6.5 C23,6.77614237 22.7761424,7 22.5,7 Z" id="Path" fill="#D8AE6C"></path>
            </g>
        </g>
    </g>
</svg>