<?xml version="1.0" encoding="UTF-8"?>
<svg width="18px" height="18px" viewBox="0 0 18 18" version="1.1" xmlns="http://www.w3.org/2000/svg" xmlns:xlink="http://www.w3.org/1999/xlink">
    <title>7C762C0D-8DB9-4428-8080-B82BF69FC683</title>
    <g id="WEB" stroke="none" stroke-width="1" fill="none" fill-rule="evenodd">
        <g id="ORDER-HISTORY/ALL" transform="translate(-433.000000, -310.000000)" fill="#A7A7A7" fill-rule="nonzero">
            <path d="M440.249626,310 C436.254586,310 433,313.254704 433,317.249724 C433,321.244745 436.254765,324.499315 440.249626,324.499315 C441.977456,324.499315 443.56457,323.888597 444.812172,322.874396 L449.718025,327.780224 C450.010823,328.07302 450.487586,328.07302 450.780402,327.780224 C451.073199,327.487428 451.073199,327.018524 450.780402,326.725531 L445.874549,321.819703 C446.89072,320.571616 447.499476,318.979287 447.499476,317.24959 C447.499476,313.25457 444.244711,310 440.24985,310 L440.249626,310 Z M440.249626,311.500052 C443.433944,311.500052 445.999238,314.065467 445.999238,317.249635 C445.999238,320.433803 443.43381,322.999218 440.249626,322.999218 C437.065443,322.999218 434.500015,320.433803 434.500015,317.249635 C434.500015,314.065467 437.065443,311.500052 440.249626,311.500052 L440.249626,311.500052 Z" id="Shape"></path>
        </g>
    </g>
</svg>