<?xml version="1.0" encoding="UTF-8"?>
<svg width="22px" height="22px" viewBox="0 0 22 22" version="1.1" xmlns="http://www.w3.org/2000/svg" xmlns:xlink="http://www.w3.org/1999/xlink">
    <title>F3071185-8888-4CA4-8563-73C3A8DA347F</title>
    <g id="WEB" stroke="none" stroke-width="1" fill="none" fill-rule="evenodd">
        <g id="HOMEPAGE" transform="translate(-871.000000, -31.000000)" fill="#FFFFFF" fill-rule="nonzero">
            <g id="Group-44-Copy-3" transform="translate(238.000000, 19.000000)">
                <g id="ICON/search-Copy-2" transform="translate(633.000000, 12.000000)">
                    <path d="M8.86065448,0 C3.97782765,0 -1.77635684e-15,3.97797161 -1.77635684e-15,8.86077422 C-1.77635684e-15,13.7435768 3.97804591,17.7213847 8.86065448,17.7213847 C10.9724465,17.7213847 12.9122527,16.9749524 14.4370994,15.7353727 L20.4331418,21.7313853 C20.7910055,22.0892472 21.3737167,22.0892472 21.7316022,21.7313853 C22.0894659,21.3735234 22.0894659,20.8004183 21.7316022,20.4423162 L15.7355598,14.4463036 C16.9775465,12.9208643 17.7215818,10.9746838 17.7215818,8.86061053 C17.7215818,3.97780792 13.7435359,0 8.8609273,0 L8.86065448,0 Z M8.86065448,1.83339722 C12.7525983,1.83339722 15.8879572,4.96890423 15.8879572,8.86066509 C15.8879572,12.7524259 12.7524346,15.887933 8.86065448,15.887933 C4.96887432,15.887933 1.83335175,12.7524259 1.83335175,8.86066509 C1.83335175,4.96890423 4.96887432,1.83339722 8.86065448,1.83339722 L8.86065448,1.83339722 Z" id="Shape"></path>
                </g>
            </g>
        </g>
    </g>
</svg>