<?xml version="1.0" encoding="UTF-8"?>
<svg width="28px" height="24px" viewBox="0 0 28 24" version="1.1" xmlns="http://www.w3.org/2000/svg" xmlns:xlink="http://www.w3.org/1999/xlink">
    <title>D4B1117C-543C-43B8-B134-2EEE560DFB5E</title>
    <g id="WEB" stroke="none" stroke-width="1" fill="none" fill-rule="evenodd">
        <g id="SHOP/FILTER" transform="translate(-156.000000, -3680.000000)" fill="#FFFFFF" fill-rule="nonzero">
            <g id="FOOTER/BLACK" transform="translate(-2.000000, 3230.000000)">
                <g id="Group-41" transform="translate(158.000000, 441.000000)">
                    <g id="Group-36" transform="translate(0.000000, 4.000000)">
                        <path d="M27.824769,19.0568739 L23.0998613,12.8849512 C22.6064022,12.2410273 21.8215269,11.8571647 20.9999805,11.8571647 L17.4999707,11.8571647 L17.4999707,7.57153243 C17.4999707,6.15337079 16.3226499,5 14.8748657,5 L2.62510498,5 C1.17739888,5 0,6.15329426 0,7.57153243 L0,23.8569351 C0,25.2750968 1.17732076,26.4284676 2.62510498,26.4284676 L3.62422609,26.4284676 C4.0157575,27.9031843 5.37380129,29 7.00001953,29 C8.62623777,29 9.98425812,27.9031843 10.375813,26.4284676 L17.624187,26.4284676 C18.0157184,27.9031843 19.3737622,29 20.9999805,29 C22.6261987,29 23.9842191,27.9031843 24.3757739,26.4284676 L25.374895,26.4281686 C26.8226011,26.4281686 28,25.2748744 28,23.8566362 L27.9996948,19.57131 C27.9996948,19.3856656 27.9380507,19.2051028 27.8248311,19.0568275 L27.824769,19.0568739 Z M6.6315789,27.08 C5.68319381,27.08 4.9122807,26.3264077 4.9122807,25.4 C4.9122807,24.4732923 5.68350086,23.72 6.6315789,23.72 C7.579964,23.72 8.35087719,24.4735923 8.35087719,25.4 C8.35117693,26.3267077 7.579964,27.08 6.6315789,27.08 Z M15.7192982,24.68 L10.2508439,24.68 C9.85243354,23.224906 8.47052972,22.1426845 6.81573979,22.1426845 C5.16094985,22.1426845 3.77906988,23.224906 3.38063564,24.68 L2.36396056,24.68 C1.87300881,24.68 1.47368421,24.3006788 1.47368421,23.834354 L1.47368421,7.76564597 C1.47368421,7.29930608 1.87302471,6.92 2.36396056,6.92 L14.8289424,6.92 C15.3198942,6.92 15.7192982,7.29932118 15.7192982,7.76564597 L15.7192982,24.68 Z M21.3393421,13.9920052 L25.0526316,18.92 L20.6315789,18.92 L20.6315789,13.64 C20.9082026,13.64 21.1731105,13.771672 21.3393263,13.9920445 L21.3393421,13.9920052 Z M20.877193,27.08 C19.9288079,27.08 19.1578947,26.3264077 19.1578947,25.4 C19.1578947,24.4732923 19.9291149,23.72 20.877193,23.72 C21.8255781,23.72 22.5964912,24.4735923 22.5964912,25.4 C22.5964912,26.3267077 21.8252711,27.08 20.877193,27.08 Z M25.1512955,24.68 L24.1415925,24.68 C23.7459143,23.2188023 22.3734873,22.1320977 20.7300456,22.1320977 C19.0866038,22.1320977 17.7142005,23.2188023 17.3184986,24.68 L17.1929825,24.68 L17.1929825,13.64 L18.9613245,13.64 L18.9613245,18.7352738 C18.9613245,19.6720751 19.7545441,20.433572 20.7296666,20.433572 L26.0350877,20.433572 L26.0350877,23.8305476 C26.0353959,24.299115 25.6387935,24.68 25.1512323,24.68 L25.1512955,24.68 Z" id="Shape"></path>
                    </g>
                </g>
            </g>
        </g>
    </g>
</svg>