<?xml version="1.0" encoding="UTF-8"?>
<svg width="16px" height="16px" viewBox="0 0 16 16" version="1.1" xmlns="http://www.w3.org/2000/svg" xmlns:xlink="http://www.w3.org/1999/xlink">
    <title>C709B23B-FCE9-4EC7-AC38-12D62C5DD0EB</title>
    <g id="WEB" stroke="none" stroke-width="1" fill="none" fill-rule="evenodd">
        <g id="Style-Guide-TRC" transform="translate(-668, -326)">
            <g id="Group-32" transform="translate(668, 326)">
                <path d="M10.8620241,8.93212607 L13.1628389,7.03541692 C13.48828,6.7660332 13.3199637,6.23850928 12.8934552,6.21612243 L9.93045468,6.0365286 C9.75086086,6.02533337 9.59373004,5.91306624 9.52640916,5.74473799 L8.43773094,2.96131326 C8.28060613,2.56845114 7.73063123,2.56845114 7.57350241,2.96131326 L6.48482419,5.7335145 C6.4174953,5.90183473 6.2603745,6.01410167 6.08077867,6.02530511 L3.10655466,6.20489894 C2.68004212,6.22736796 2.51170986,6.75486984 2.83717094,7.02419344 L5.13798573,8.90969913 C5.27264353,9.02196607 5.33996841,9.21275332 5.29511054,9.38108558 L4.54313692,12.2655217 C4.44214358,12.6695672 4.87986157,12.9950082 5.23897306,12.7705586 L7.74181062,11.16564 C7.89893543,11.0646467 8.08971867,11.0646467 8.23566408,11.16564 L10.7497251,12.7705586 C11.1089168,12.9950082 11.5466328,12.6695652 11.4455613,12.2655217 L10.6935877,9.39230907 C10.6599232,9.22398883 10.7160567,9.04440102 10.8619861,8.93212607 L10.8620241,8.93212607 Z" id="Path" fill="#FDDD4B" fill-rule="nonzero"></path>
                <circle id="Oval" stroke="#FDDD4B" cx="8" cy="8" r="7.5"></circle>
            </g>
        </g>
    </g>
</svg>