<?xml version="1.0" encoding="UTF-8"?>
<svg width="29px" height="28px" viewBox="0 0 29 28" version="1.1" xmlns="http://www.w3.org/2000/svg" xmlns:xlink="http://www.w3.org/1999/xlink">
    <title>1987C6A4-173C-41FB-8034-566AF5767F0B</title>
    <g id="WEB" stroke="none" stroke-width="1" fill="none" fill-rule="evenodd">
        <g id="SHOP/FILTER" transform="translate(-377.000000, -3678.000000)" fill="#FFFFFF" fill-rule="nonzero">
            <g id="FOOTER/BLACK" transform="translate(-2.000000, 3230.000000)">
                <g id="Group-41" transform="translate(158.000000, 441.000000)">
                    <g id="Group-37" transform="translate(221.047667, 5.000000)">
                        <g id="Group-33" transform="translate(0.000000, 2.000000)">
                            <path d="M23.2637952,24.496988 C26.2542169,21.8557831 28,18.0686747 28,14 C28,6.26807229 21.7319277,0 14,0 C6.26807229,0 0,6.26807229 0,14 C0,21.7319277 6.26807229,28 14,28 C14.2795542,28 14.5059277,27.7736265 14.5059277,27.4940723 C14.5059277,27.2145181 14.2795542,26.9881446 14,26.9881446 C6.82710843,26.9881446 1.01204819,21.1732651 1.01204819,14.0001928 C1.01204819,6.82712048 6.82692771,1.01224096 14,1.01224096 C21.1730723,1.01224096 26.9879518,6.82712048 26.9879518,14.0001928 C26.9879518,17.7753735 25.3687349,21.2881446 22.5936747,23.738747 C22.384241,23.9237048 22.364241,24.2435 22.5492,24.4529036 C22.7343928,24.6623373 23.054188,24.6823373 23.2635976,24.4973783 L23.2637952,24.496988 Z" id="Path"></path>
                            <path d="M23.0974153,24.3870968 L27.4832299,24.3870968 C27.7685352,24.3870968 28,24.185026 28,23.9354839 C28,23.6859417 27.7685352,23.483871 27.4832299,23.483871 L23.0974153,23.483871 C22.81211,23.483871 22.5806452,23.6859417 22.5806452,23.9354839 C22.5806452,24.185026 22.81211,24.3870968 23.0974153,24.3870968 L23.0974153,24.3870968 Z" id="Path"></path>
                            <path d="M23.483871,19.4986854 L23.483871,23.8559067 C23.483871,24.1492836 23.2816375,24.3870968 23.0321532,24.3870968 C22.7828787,24.3870968 22.5806452,24.1492836 22.5806452,23.8559067 L22.5806452,19.4986854 C22.5806452,19.2053085 22.7828787,18.9677419 23.0321532,18.9677419 C23.2816375,18.9677419 23.483871,19.2053085 23.483871,19.4986854 L23.483871,19.4986854 Z" id="Path"></path>
                            <path d="M9.01005377,13.1832627 C8.80846239,12.9758986 8.48182562,12.9758986 8.2802281,13.1832627 C8.07863057,13.3906268 8.07863672,13.7266171 8.2802281,13.9339875 L12.1445748,17.908993 C12.3461662,18.1163572 12.6730426,18.1163572 12.8744005,17.908993 L20.623,9.93850598 C20.8245914,9.73114187 20.8245914,9.39515158 20.623,9.18778115 C20.4216482,8.98041704 20.0947719,8.98041704 19.8931743,9.18778115 L12.5095184,16.7828742 L9.01005377,13.1832627 Z" id="Path"></path>
                        </g>
                    </g>
                </g>
            </g>
        </g>
    </g>
</svg>