<?xml version="1.0" encoding="UTF-8"?>
<svg width="18px" height="20px" viewBox="0 0 18 20" version="1.1" xmlns="http://www.w3.org/2000/svg" xmlns:xlink="http://www.w3.org/1999/xlink">
    <title>6EB88549-5409-4320-A8E8-5BAB60A1D095</title>
    <g id="WEB" stroke="none" stroke-width="1" fill="none" fill-rule="evenodd">
        <g id="Style-Guide-TRC" transform="translate(-525, -215)" fill="#959595" fill-rule="nonzero">
            <g id="Group-13" transform="translate(525, 215)">
                <path d="M5.69677884,10 C5.95806726,10 6.21954638,9.912387 6.41897517,9.73733255 C6.81807589,9.38754168 6.81807589,8.81969327 6.41897517,8.46958438 L3.48785355,5.89667947 L15.9784936,5.89667947 C16.5425963,5.89667947 17,5.49523635 17,5.00012957 C17,4.50503116 16.5426058,4.10357967 15.9784936,4.10357967 L3.48737679,4.10374315 L6.41849841,1.53033612 C6.81759913,1.18021886 6.81759913,0.612236547 6.41849841,0.262587943 C6.01939769,-0.0875293143 5.37224818,-0.0875293143 4.97405808,0.262587943 L0.299186086,4.36606329 C-0.0997286954,4.71618055 -0.0997286954,5.28370258 0.299186086,5.63381147 L4.97439181,9.73728682 C5.1738492,9.91234545 5.43495168,10 5.69658814,10 L5.69677884,10 Z" id="Path"></path>
                <path d="M17.7010456,14.3661286 L13.025735,10.2625617 C12.6268112,9.91247944 11.9803671,9.91247944 11.5812622,10.2625617 C11.1821526,10.6123176 11.1821526,11.1801092 11.5812622,11.530183 L14.5124496,14.1033327 L2.02152929,14.1033327 C1.45741398,14.1033327 1,14.5047356 1,14.9999603 C1,15.4948418 1.45740445,15.8962531 2.02152929,15.8962531 L14.5124496,15.8962531 L11.5810715,18.4697375 C11.1819619,18.8198197 11.1819619,19.3877452 11.5810715,19.7373588 C11.7805334,19.9123999 12.0421996,20 12.3032841,20 C12.5645783,20 12.8266355,19.9123958 13.0254966,19.7373588 L17.7008072,15.6337919 C18.0997309,15.2837096 18.0997309,14.7162444 17.7008072,14.3661705 L17.7010456,14.3661286 Z" id="Path"></path>
            </g>
        </g>
    </g>
</svg>