<?xml version="1.0" encoding="UTF-8"?>
<svg width="31px" height="30px" viewBox="0 0 31 30" version="1.1" xmlns="http://www.w3.org/2000/svg" xmlns:xlink="http://www.w3.org/1999/xlink">
    <title>A0A02A6A-0DB0-4E8F-A743-5E1A7B6E6746</title>
    <g id="WEB" stroke="none" stroke-width="1" fill="none" fill-rule="evenodd">
        <g id="SHOP/FILTER" transform="translate(-873.000000, -3678.000000)" fill="#FFFFFF" fill-rule="nonzero">
            <g id="FOOTER/BLACK" transform="translate(-2.000000, 3230.000000)">
                <g id="Group-41" transform="translate(158.000000, 441.000000)">
                    <g id="Group-40" transform="translate(717.095335, 5.000000)">
                        <g id="Shape-3" transform="translate(0.000000, 2.000000)">
                            <path d="M28.7543947,0.219888069 L25.1280052,3.84629884 L12.6007041,4.4689719 C12.4175041,4.4689719 12.2343041,4.54230336 12.1244417,4.68871116 L1.50187636,15.311339 C0.549573852,16.2636471 0,17.5823181 0,18.9377498 C0,20.2929851 0.549338376,21.6116562 1.50187636,22.5641605 L7.43605734,28.4981148 C8.38835985,29.4504229 9.70702313,30 11.0624468,30 C12.4176742,30 13.7363374,29.4506584 14.6888362,28.4981148 L25.3114015,17.875487 C25.4578084,17.7290792 25.5311394,17.5824163 25.5311394,17.3992217 L26.1538088,4.87184684 L29.7801983,1.24543607 C30.0732672,0.952365353 30.0732672,0.512906455 29.7801983,0.219803036 C29.4868742,-0.0732676785 29.0474113,-0.0732676785 28.7543096,0.219803036 L28.7543947,0.219888069 Z M24.1023782,17.0329438 L13.6629606,27.4724229 C12.966934,28.1684536 12.0511957,28.5345549 11.0621328,28.5345549 C10.0730699,28.5345549 9.15733154,28.1681527 8.46130496,27.4724229 L2.52738562,21.5017081 C1.83135904,20.8056774 1.46525991,19.8899336 1.46525991,18.9008649 C1.46525991,17.9117962 1.83165992,16.9960524 2.52738562,16.3000218 L12.9668032,5.86054269 L23.5893685,5.31120108 L20.2194513,8.68113818 C18.7908994,7.72883006 16.849534,7.91178259 15.6041952,9.15740344 C14.1756433,10.5859637 14.1756433,12.8937035 15.6041952,14.3222638 C16.3002218,15.0182944 17.2524589,15.3843957 18.205023,15.3843957 C19.1573255,15.3843957 20.0730639,15.0179935 20.8058509,14.3222638 C22.0511897,13.0769176 22.1978386,11.1355408 21.2821133,9.70698052 L24.6520306,6.33704342 L24.1023782,17.0329438 Z M19.7436598,13.3699687 C18.9012458,14.2123876 17.5092581,14.2123876 16.6300184,13.3699687 C15.7876045,12.5275499 15.7876045,11.1355539 16.6300184,10.2563091 C17.0694944,9.81683053 17.6190813,9.59710435 18.1684589,9.59710435 C18.7177973,9.59710435 19.3039091,9.81684361 19.7068994,10.2563091 C20.6226378,11.0989896 20.6226378,12.4907239 19.7436925,13.3699687 L19.7436598,13.3699687 Z" id="Shape"></path>
                        </g>
                    </g>
                </g>
            </g>
        </g>
    </g>
</svg>