<?xml version="1.0" encoding="UTF-8"?>
<svg width="23px" height="39px" viewBox="0 0 23 39" version="1.1" xmlns="http://www.w3.org/2000/svg" xmlns:xlink="http://www.w3.org/1999/xlink">
    <title>66A1D478-2022-434E-A8FA-505A745A48FB</title>
    <g id="WEB" stroke="none" stroke-width="1" fill="none" fill-rule="evenodd">
        <g id="Style-Guide-TRC" transform="translate(-257, -314)" fill-rule="nonzero">
            <g id="3405118_bag_luggage_lungage_outline_suitcase_icon-(1)-copy" transform="translate(257, 314)">
                <g id="Group" transform="translate(3, 34)">
                    <g>
                        <path d="M2.09815951,4.3115942 L1.21472393,4.3115942 C0.920245399,4.3115942 0.699386503,4.0942029 0.699386503,3.80434783 L0.699386503,1.19565217 C0.699386503,0.905797101 0.920245399,0.688405797 1.21472393,0.688405797 L2.09815951,0.688405797 C2.39263804,0.688405797 2.61349693,0.905797101 2.61349693,1.19565217 L2.61349693,3.80434783 C2.61349693,4.0942029 2.39263804,4.3115942 2.09815951,4.3115942 Z" id="Path" fill="#FFDA8E"></path>
                        <path d="M1.65644172,5 C0.736196319,5 0,4.27536232 0,3.36956522 L0,1.63043478 C0,0.724637681 0.736196319,0 1.65644172,0 C2.57668712,0 3.31288344,0.724637681 3.31288344,1.63043478 L3.31288344,3.36956522 C3.31288344,4.27536232 2.5398773,5 1.65644172,5 Z M1.65644172,1.37681159 C1.50920245,1.37681159 1.39877301,1.48550725 1.39877301,1.63043478 L1.39877301,3.36956522 C1.39877301,3.51449275 1.50920245,3.62318841 1.65644172,3.62318841 C1.80368098,3.62318841 1.91411043,3.51449275 1.91411043,3.36956522 L1.91411043,1.63043478 C1.91411043,1.52173913 1.80368098,1.37681159 1.65644172,1.37681159 Z" id="Shape" fill="#581166"></path>
                    </g>
                    <g transform="translate(14.6871, 0)">
                        <path d="M2.09815951,4.3115942 L1.21472393,4.3115942 C0.920245399,4.3115942 0.699386503,4.0942029 0.699386503,3.80434783 L0.699386503,1.19565217 C0.699386503,0.905797101 0.920245399,0.688405797 1.21472393,0.688405797 L2.09815951,0.688405797 C2.39263804,0.688405797 2.61349693,0.905797101 2.61349693,1.19565217 L2.61349693,3.80434783 C2.61349693,4.0942029 2.39263804,4.3115942 2.09815951,4.3115942 Z" id="Path" fill="#FFDA8E"></path>
                        <path d="M1.65644172,5 C0.736196319,5 0,4.27536232 0,3.36956522 L0,1.63043478 C0,0.724637681 0.736196319,0 1.65644172,0 C2.57668712,0 3.31288344,0.724637681 3.31288344,1.63043478 L3.31288344,3.36956522 C3.31288344,4.27536232 2.57668712,5 1.65644172,5 Z M1.65644172,1.37681159 C1.50920245,1.37681159 1.39877301,1.48550725 1.39877301,1.63043478 L1.39877301,3.36956522 C1.39877301,3.51449275 1.50920245,3.62318841 1.65644172,3.62318841 C1.80368098,3.62318841 1.91411043,3.51449275 1.91411043,3.36956522 L1.91411043,1.63043478 C1.95092025,1.52173913 1.80368098,1.37681159 1.65644172,1.37681159 Z" id="Shape" fill="#581166"></path>
                    </g>
                </g>
                <path d="M17.4676409,35 L6.53235908,35 C4.5782881,35 3,33.460733 3,31.5549738 L3,3.44502618 C3,1.53926702 4.5782881,0 6.53235908,0 L17.4676409,0 C19.4217119,0 21,1.53926702 21,3.44502618 L21,31.591623 C21,33.460733 19.4217119,35 17.4676409,35 Z M6.53235908,1.35602094 C5.36743215,1.35602094 4.42797495,2.27225131 4.42797495,3.40837696 L4.42797495,31.5549738 C4.42797495,32.6910995 5.36743215,33.6073298 6.53235908,33.6073298 L17.4676409,33.6073298 C18.6325678,33.6073298 19.5720251,32.6910995 19.5720251,31.5549738 L19.5720251,3.44502618 C19.5720251,2.30890052 18.6325678,1.39267016 17.4676409,1.39267016 L6.53235908,1.39267016 L6.53235908,1.35602094 Z" id="Shape" fill="#581166"></path>
                <path d="M20.6046512,36 L2.39534884,36 C1.62790698,36 1,35.3563218 1,34.5696041 L1,9.43039591 C1,8.64367816 1.62790698,8 2.39534884,8 L20.6046512,8 C21.372093,8 22,8.64367816 22,9.43039591 L22,34.5696041 C22,35.3563218 21.372093,36 20.6046512,36 Z" id="Path" fill-opacity="0.430425044" fill="#FF5855"></path>
                <path d="M19.621875,37 L3.378125,37 C1.509375,37 0,35.5164434 0,33.679659 L0,11.320341 C0,9.48355664 1.509375,8 3.378125,8 L19.621875,8 C21.490625,8 23,9.48355664 23,11.320341 L23,33.679659 C23,35.4811206 21.490625,37 19.621875,37 Z M3.378125,9.34226553 C2.2640625,9.34226553 1.365625,10.225335 1.365625,11.320341 L1.365625,33.679659 C1.365625,34.774665 2.2640625,35.6577345 3.378125,35.6577345 L19.621875,35.6577345 C20.7359375,35.6577345 21.634375,34.774665 21.634375,33.679659 L21.634375,11.320341 C21.634375,10.225335 20.7359375,9.34226553 19.621875,9.34226553 L3.378125,9.34226553 Z" id="Shape" fill="#581166"></path>
                <g id="Group" transform="translate(3, 8)">
                    <rect id="Rectangle" fill="#FFDA8E" x="0.711018711" y="0.671132765" width="16.5779626" height="27.6577345"></rect>
                    <path d="M17.2889813,29 L0.711018711,29 C0.336798337,29 0,28.7174178 0,28.3288672 L0,0.671132765 C0,0.317904994 0.299376299,0 0.711018711,0 L17.2889813,0 C17.6632017,0 18,0.282582217 18,0.671132765 L18,28.3288672 C18,28.682095 17.6632017,29 17.2889813,29 Z M1.42203742,27.6577345 L16.6153846,27.6577345 L16.6153846,1.34226553 L1.42203742,1.34226553 L1.42203742,27.6577345 Z" id="Shape" fill="#581166"></path>
                </g>
                <rect id="Rectangle" fill="#FDC0BF" x="6" y="8" width="11" height="28"></rect>
                <path d="M17.3467049,37 L6.65329513,37 C6.30945559,37 6,36.7174178 6,36.3288672 L6,8.67113276 C6,8.31790499 6.27507163,8 6.65329513,8 L17.3467049,8 C17.6905444,8 18,8.28258222 18,8.67113276 L18,36.3288672 C17.965616,36.682095 17.6905444,37 17.3467049,37 Z M7.30659026,35.6577345 L16.6934097,35.6577345 L16.6934097,9.34226553 L7.30659026,9.34226553 L7.30659026,35.6577345 Z" id="Shape" fill="#581166"></path>
                <g id="Group" transform="translate(7, 11)">
                    <rect id="Rectangle" fill="#FFDA8E" x="0.692307692" y="0.698529412" width="7.57894737" height="3.60294118"></rect>
                    <path d="M8.30769231,5 L0.692307692,5 C0.327935223,5 0,4.70588235 0,4.30147059 L0,0.698529412 C0,0.330882353 0.291497976,0 0.692307692,0 L8.30769231,0 C8.67206478,0 9,0.294117647 9,0.698529412 L9,4.30147059 C8.96356275,4.66911765 8.67206478,5 8.30769231,5 Z M1.38461538,3.60294118 L7.61538462,3.60294118 L7.61538462,1.36029412 L1.38461538,1.36029412 L1.38461538,3.60294118 Z" id="Shape" fill="#581166"></path>
                </g>
            </g>
        </g>
    </g>
</svg>