<?xml version="1.0" encoding="UTF-8"?>
<svg width="29px" height="28px" viewBox="0 0 29 28" version="1.1" xmlns="http://www.w3.org/2000/svg" xmlns:xlink="http://www.w3.org/1999/xlink">
    <title>14A640F4-24C1-4B77-92EC-847A19C0769C</title>
    <g id="WEB" stroke="none" stroke-width="1" fill="none" fill-rule="evenodd">
        <g id="SHOP/FILTER" transform="translate(-620.000000, -3679.000000)" fill="#FFFFFF" fill-rule="nonzero">
            <g id="FOOTER/BLACK" transform="translate(-2.000000, 3230.000000)">
                <g id="Group-41" transform="translate(158.000000, 441.000000)">
                    <g id="Group-38" transform="translate(464.047667, 5.000000)">
                        <g id="Group-39" transform="translate(0.000000, 3.000000)">
                            <path d="M18.2432467,11.033692 L12.8911555,16.3857832 L9.75732169,13.2519493 C9.65062197,13.1452496 9.47730664,13.1452496 9.37060166,13.2519493 C9.26390194,13.3586491 9.26390194,13.5319644 9.37060166,13.6386694 L12.6979087,16.9659764 C12.7511559,17.0192236 12.8214715,17.0461551 12.8911661,17.0461551 C12.9610659,17.0461551 13.0311762,17.0194284 13.0844235,16.9659764 L18.629672,11.4207278 C18.7363717,11.3140281 18.7363717,11.1407128 18.629672,11.0340078 C18.5231776,10.9271028 18.3498622,10.9271028 18.2431573,11.0338022 L18.2432467,11.033692 Z" id="Path"></path>
                            <path d="M26.2611204,11.1721127 C25.6805429,10.5991142 25.1322286,10.0577998 24.8959661,9.48748556 C24.6443246,8.88059242 24.6451457,8.04712093 24.6457615,7.24075463 C24.6465838,6.0645472 24.6476118,4.84807672 23.9000792,4.10055237 C23.1525549,3.35302802 21.9354528,3.35423854 20.7598769,3.35487012 C19.9535633,3.3550757 19.1198813,3.35610364 18.513146,3.10425499 C17.9428317,2.86782403 17.4017279,2.31930969 16.8285189,1.73910069 C15.9839421,0.884260831 15.1112076,0 14,0 C12.8887924,0 12.0160579,0.884260831 11.1721127,1.73889016 C10.5989037,2.31946758 10.0577998,2.86778193 9.48748556,3.10404446 C8.88059242,3.35568591 8.04712093,3.35465959 7.24075463,3.35465959 C6.06417878,3.35342607 4.84807672,3.35280928 4.10055237,4.10034184 C3.35302802,4.8478744 3.35402802,6.06412615 3.35487012,7.2405441 C3.35548685,8.04685777 3.35610364,8.88053979 3.10425499,9.48727503 C2.86782403,10.0575893 2.31930969,10.5986932 1.73910069,11.1719022 C0.884260831,12.0160579 0,12.8887924 0,14 C0,15.1112076 0.884260831,15.9839421 1.73889016,16.8278873 C2.31946758,17.4010963 2.86778193,17.9422002 3.10404446,18.5125144 C3.35568591,19.1194076 3.35507012,19.9528791 3.35465959,20.7590348 C3.35383723,21.9352423 3.35280928,23.1517128 4.10034184,23.8992371 C4.84786619,24.6467615 6.0645472,24.646972 7.2405441,24.6449194 C8.04685777,24.6451249 8.88053979,24.6436858 9.48727503,24.8955345 C10.0575893,25.1319654 10.5986932,25.6804798 11.1719022,26.2606888 C12.0160579,27.1157392 12.8887924,28 14,28 C15.1112076,28 15.9839421,27.1157392 16.8278873,26.2611098 C17.4010963,25.6805324 17.9422002,25.1322181 18.5125144,24.8959555 C19.1194076,24.6445194 19.9528791,24.6445194 20.7590348,24.6457509 C21.9344002,24.6459566 23.1517128,24.6476013 23.8992371,23.9000687 C24.6467615,23.1525443 24.6457615,21.9362844 24.6449194,20.7598664 C24.6443026,19.9537633 24.6436858,19.1198707 24.8955345,18.5131355 C25.1319654,17.9428212 25.6804798,17.4017174 26.2606888,16.8285083 C27.1157392,15.9839316 28,15.1111971 28,13.9999895 C28,12.8887819 27.1157392,12.0160473 26.2611098,11.1721022 L26.2611204,11.1721127 Z M25.8766635,16.438941 C25.2831387,17.0248868 24.6692456,17.6307799 24.3902463,18.3032518 C24.0970734,19.0108816 24.097484,19.8998792 24.0980997,20.7598769 C24.0989221,21.8737688 24.0995389,22.9259765 23.5127855,23.512975 C22.9256291,24.1001313 21.8734214,24.0980787 20.7596875,24.0982892 C19.8999003,24.0970556 19.0107447,24.0970556 18.3030624,24.3904358 C17.630801,24.6692193 17.0246973,25.2831177 16.4387515,25.876853 C15.673543,26.6519562 14.8826503,27.4533225 13.9998105,27.4533225 C13.1170234,27.4533225 12.3260781,26.6519035 11.5608696,25.876853 C10.9749238,25.2833282 10.3686622,24.6694351 9.69655869,24.3904358 C9.0216131,24.1104208 8.18198373,24.098084 7.35961747,24.098084 L7.24017042,24.098084 C6.12669967,24.0995231 5.07407086,24.0999343 4.4870724,23.5127697 C3.89991605,22.9256134 3.90091605,21.8734056 3.9013371,20.7596717 C3.90195389,19.8998845 3.90257068,19.0107289 3.6091905,18.3030466 C3.33040703,17.6307852 2.71650864,17.0246815 2.12277336,16.4387357 C1.34767014,15.6735272 0.546303826,14.8826345 0.546303826,13.9997947 C0.546303826,13.1170076 1.34772277,12.3260623 2.12277336,11.5608538 C2.71629812,10.974908 3.33019124,10.3686464 3.6091905,9.6965429 C3.90236341,8.98891319 3.90195289,8.09991553 3.9013371,7.23991779 C3.90051474,6.12602598 3.89989795,5.07381823 4.4870724,4.48681977 C5.07422875,3.89966342 6.12606809,3.90008447 7.24017042,3.90108447 C8.09953658,3.90129005 8.98911319,3.90231799 9.69679553,3.60893787 C10.3690569,3.33015439 10.9751606,2.71646654 11.5611064,2.12252073 C12.3263149,1.34741751 13.1172076,0.546051195 14.0000474,0.546051195 C14.8828872,0.546051195 15.6737798,1.34747014 16.4389883,2.12252073 C17.0249341,2.71604548 17.6308273,3.32993861 18.3032992,3.60893787 C19.0109289,3.90211078 19.9015582,3.90128973 20.7599243,3.90108447 C21.8754477,3.90046768 22.9260239,3.89964532 23.5130223,4.48681977 C24.1001787,5.07397612 24.0991787,6.12618388 24.0983366,7.23991779 C24.0977198,8.099705 24.097103,8.98886056 24.3904832,9.6965429 C24.6692667,10.3688043 25.283165,10.974908 25.8769003,11.5608538 C26.6520035,12.3260623 27.4533699,13.116955 27.4533699,13.9997947 C27.4533699,14.882424 26.6519509,15.6737377 25.8766898,16.4389462 L25.8766635,16.438941 Z" id="Shape"></path>
                            <path d="M14.0001,3.90155289 C8.4464304,3.90155289 3.92802124,8.41985679 3.92802124,13.9736316 C3.92802124,19.5273012 8.44632514,24.0457104 14.0001,24.0457104 C19.5538749,24.0457104 24.0721788,19.5274065 24.0721788,13.9736316 C24.0721788,8.41996205 19.5538749,3.90155289 14.0001,3.90155289 Z M14.0001,23.4983434 C8.74785066,23.4983434 4.47486191,19.225302 4.47486191,13.9731053 C4.47486191,8.72127705 8.74769277,4.44786724 14.0001,4.44786724 C19.2525072,4.44786724 23.5253381,8.7206981 23.5253381,13.9731053 C23.5253381,19.2253547 19.2525072,23.4983434 14.0001,23.4983434 Z" id="Shape"></path>
                        </g>
                    </g>
                </g>
            </g>
        </g>
    </g>
</svg>