<?xml version="1.0" encoding="UTF-8"?>
<svg width="56px" height="35px" viewBox="0 0 56 35" version="1.1" xmlns="http://www.w3.org/2000/svg" xmlns:xlink="http://www.w3.org/1999/xlink">
    <title>0BE4E766-F0A5-4BC9-8E4E-AF899DD5A2FF</title>
    <g id="WEB" stroke="none" stroke-width="1" fill="none" fill-rule="evenodd">
        <g id="SHOP/FILTER" transform="translate(-1497.000000, -3824.000000)">
            <g id="FOOTER/BLACK" transform="translate(-2.000000, 3230.000000)">
                <g id="Group-3" transform="translate(1307.000000, 594.000000)">
                    <g id="2908235_card_cover_credit_electron_visa_icon" transform="translate(192.693309, 0.500000)">
                        <path d="M54.3878056,32.180923 C54.3878056,33.1829963 53.5805484,34 52.5791551,34 L1.80865049,34 C0.807257188,34 3.22106265e-15,33.1829963 3.22106265e-15,32.180923 L3.22106265e-15,1.80865049 C3.22106265e-15,0.807257188 0.807257188,0 1.80865049,0 L52.5791551,0 C53.5805484,0 54.3878056,0.807257188 54.3878056,1.80865049 L54.3878056,32.180923 L54.3878056,32.180923 Z" id="Path" fill="#075FA0"></path>
                        <path d="M18.3131671,19.1415038 C22.4317314,17.383059 28.2057226,15.7790844 35.8602161,17.383059 L35.9315014,15.4416978 C27.8684493,14.5625887 22.0738319,17.1379239 18.3131671,18.9571142 L18.3131671,19.1415038 L18.3131671,19.1415038 Z" id="Path" fill="#FBAA28"></path>
                        <polygon id="Path" fill="#FFFFFF" points="10.883409 20.5723086 14.7671513 20.5723086 14.7671513 21.7370119 12.3551262 21.7370119 12.3450398 22.8200036 14.7465251 22.8200036 14.7465251 23.9339347 12.3349533 23.9339347 12.3450398 25.0169263 14.715699 25.0169263 14.715699 26.1823097 10.8939488 26.1823097"></polygon>
                        <polygon id="Path" fill="#FFFFFF" points="15.7377186 20.1016446 17.1483504 20.1016446 17.1584368 26.1823097 15.747805 26.1823097"></polygon>
                        <path d="M22.0126331,25.7222989 C21.532336,26.1307441 20.7967041,26.3353066 20.1527569,26.3353066 C18.6709532,26.3353066 17.9964067,25.2830277 17.9964067,24.2299554 C17.9964067,22.9939668 18.9160883,21.9514343 20.1936695,21.9514343 C21.7470984,21.9514343 22.2372553,23.0555056 22.2372553,24.4555976 L19.4065852,24.4555976 C19.4065852,24.7720179 19.6112611,25.3138537 20.3876922,25.3138537 C20.8783024,25.3138537 21.1541503,25.1602901 21.5423092,24.9046152 L22.0126331,25.7222989 L22.0126331,25.7222989 Z M20.9701006,23.6273741 C20.9701006,23.2083892 20.7657647,22.8306567 20.2956674,22.8306567 C19.8463097,22.8306567 19.5090365,23.2294687 19.416785,23.6273741 L20.9701006,23.6273741 L20.9701006,23.6273741 Z" id="Shape" fill="#FFFFFF"></path>
                        <path d="M26.5192429,25.9065752 C26.1309707,26.1517103 25.4872503,26.3353066 25.017153,26.3353066 C23.719059,26.3353066 22.7892909,25.5895882 22.7892909,24.2404952 C22.7892909,22.8612561 23.7088592,21.9514343 25.1090645,21.9514343 C25.5995613,21.9514343 26.1819697,22.1051112 26.49907,22.3089938 L26.0391725,23.2293554 C25.83461,23.1468504 25.5995613,23.0757918 25.3748258,23.0757918 C24.6697933,23.0757918 24.1995827,23.4946634 24.1995827,24.1692099 C24.1995827,24.7517316 24.6594801,25.2117424 25.252315,25.2117424 C25.517963,25.2117424 25.7936975,25.0888916 26.0186596,24.9764671 L26.5192429,25.9065752 L26.5192429,25.9065752 Z" id="Path" fill="#FFFFFF"></path>
                        <path d="M27.0404525,22.0944581 L27.6843996,22.0944581 L27.6741998,20.7146524 L29.0334927,20.7146524 L29.0028933,22.0944581 L30.1675966,22.0944581 L30.1369973,23.116251 L28.9820404,23.116251 C28.9820404,23.6889129 28.9413545,24.2913808 28.9413545,24.6391939 C28.9413545,24.9967534 29.0334927,25.1602901 29.3501397,25.1602901 C29.5442758,25.1602901 29.7080392,25.0680386 29.8610361,24.9660407 L30.1780231,25.9269748 C29.7590382,26.1825363 29.2581148,26.33542 28.7779311,26.33542 C27.6332873,26.33542 27.5717486,25.6099878 27.5717486,24.6700199 C27.5717486,24.1693233 27.6126611,23.6686266 27.6126611,23.1163643 L27.0096265,23.1163643 L27.0404525,22.0944581 L27.0404525,22.0944581 Z" id="Path" fill="#FFFFFF"></path>
                        <path d="M30.8931421,22.0944581 L32.3037739,22.0944581 L32.3037739,22.6768665 L32.3135204,22.6768665 C32.5280561,22.3291667 32.8044706,21.982147 33.3560529,21.982147 C33.5096165,21.982147 33.6732665,22.0024333 33.8162903,22.033146 L33.6321274,23.433238 C33.4888769,23.3920988 33.3359933,23.3515263 33.1314307,23.3515263 C32.6615601,23.3515263 32.2933475,23.7397985 32.2933475,23.8213969 L32.2626347,26.1823097 L30.8529096,26.1823097 L30.8931421,22.0944581 L30.8931421,22.0944581 Z" id="Path" fill="#FFFFFF"></path>
                        <path d="M36.3706593,21.951321 C37.8834023,21.951321 38.6598335,22.9122551 38.6598335,24.1383839 C38.6598335,25.3750525 37.883289,26.3353066 36.3706593,26.3353066 C34.868796,26.3353066 34.0817117,25.3750525 34.0817117,24.1383839 C34.0815984,22.9122551 34.868796,21.951321 36.3706593,21.951321 L36.3706593,21.951321 Z M36.3706593,25.2627414 C37.0453191,25.2627414 37.2498817,24.6796531 37.2498817,24.1383839 C37.2498817,23.6070879 37.0453191,23.0245662 36.3706593,23.0245662 C35.6962261,23.0245662 35.50209,23.6072012 35.50209,24.1383839 C35.50209,24.6797664 35.6961127,25.2627414 36.3706593,25.2627414 L36.3706593,25.2627414 Z" id="Shape" fill="#FFFFFF"></path>
                        <path d="M39.4266315,22.0944581 L40.8372633,22.0944581 L40.8372633,22.5442691 C41.1639967,22.2272821 41.6646934,21.9514343 42.16539,21.9514343 C43.0339593,21.9514343 43.5039433,22.4318447 43.5039433,23.5456624 C43.5039433,24.3837457 43.4941968,25.2830277 43.4837703,26.182423 L42.0731385,26.182423 C42.0837917,25.3955654 42.0935381,24.6084812 42.0935381,23.7599715 C42.0935381,23.4228115 42.00208,23.16725 41.583095,23.16725 C41.3478197,23.16725 41.031286,23.3620661 40.8373766,23.5457758 L40.8373766,26.1825363 L39.3959187,26.1825363 L39.4266315,22.0944581 L39.4266315,22.0944581 Z" id="Path" fill="#FFFFFF"></path>
                        <polygon id="Path" fill="#FFFFFF" points="22.5032433 13.6735065 24.281181 7.79740405 25.8757492 7.79740405 24.0870449 13.6735065"></polygon>
                        <path d="M21.7878976,7.79740405 L19.682433,11.6808064 L19.6517203,11.6808064 C19.682433,11.1597101 19.6112611,10.5159897 19.6007213,10.1577502 L19.4473844,7.79751738 L16.7701646,7.79751738 L16.7394519,7.95108098 C17.4241982,7.95108098 17.8326433,8.29821404 17.9451811,9.00335993 L18.466504,13.6736199 L20.1220442,13.6736199 L23.4536376,7.79740405 L21.7878976,7.79740405 L21.7878976,7.79740405 Z" id="Path" fill="#FFFFFF"></path>
                        <path d="M34.1633101,13.6735065 L34.1228509,12.7943974 L32.1298107,12.7943974 L31.731112,13.6735065 L30.0041732,13.6735065 L33.1314307,7.80771718 L35.2570682,7.80771718 L35.7883642,13.6735065 L34.1633101,13.6735065 L34.1633101,13.6735065 Z M33.9798271,10.2093158 C33.9691739,9.76936461 33.9491144,9.17732312 33.9798271,8.81965027 L33.9587475,8.81965027 C33.8567495,9.11567102 33.4483044,9.99489344 33.2639147,10.4236249 L32.6711932,11.7112924 L34.0615388,11.7112924 L33.9798271,10.2093158 L33.9798271,10.2093158 Z" id="Shape" fill="#FFFFFF"></path>
                        <path d="M27.551349,13.8370433 C26.4274448,13.8370433 25.681613,13.4899102 25.1498637,13.1624968 L25.9062352,12.0075398 C26.3764458,12.2736412 26.7541782,12.5802017 27.6233142,12.5802017 C27.899162,12.5802017 28.1649234,12.5082365 28.318147,12.2533549 C28.5429958,11.8650827 28.266808,11.6605201 27.6434871,11.3127071 L27.3369266,11.1088245 C26.4170183,10.4747372 26.0185463,9.88258235 26.448071,8.83993653 C26.733892,8.16539003 27.4595508,7.66469337 28.66562,7.66469337 C29.5034766,7.66469337 30.2803611,8.02225289 30.7403719,8.3798124 L29.8611494,9.40217196 C29.4217649,9.04393245 29.0538923,8.86033613 28.6349073,8.86033613 C28.2975207,8.86033613 28.0422992,8.983187 27.9502743,9.16689666 C27.7867376,9.49442344 28.0016133,9.71847896 28.4916568,10.015293 L28.8597561,10.2505683 C29.9735739,10.9552609 30.2392219,11.6912328 29.9633741,12.3860656 C29.4828503,13.5709419 28.5326827,13.8370433 27.551349,13.8370433 L27.551349,13.8370433 Z" id="Path" fill="#FFFFFF"></path>
                    </g>
                </g>
            </g>
        </g>
    </g>
</svg>