<?xml version="1.0" encoding="UTF-8"?>
<svg width="55px" height="35px" viewBox="0 0 55 35" version="1.1" xmlns="http://www.w3.org/2000/svg" xmlns:xlink="http://www.w3.org/1999/xlink">
    <title>663B7577-BFC3-4F2C-8CE9-834937BA6F7B</title>
    <defs>
        <path d="M0,2.55 C0,1.1475 1.1475,0 2.55,0 L51.85,0 C53.2525,0 54.4,1.1475 54.4,2.55 L54.4,31.45 C54.4,32.8525 53.2525,34 51.85,34 L2.55,34 C1.1475,34 0,32.8525 0,31.45 L0,2.55 Z" id="path-1"></path>
        <rect id="path-3" x="1.50990331e-15" y="0" width="49.8525" height="4.5475"></rect>
        <rect id="path-5" x="1.50990331e-15" y="1.50990331e-15" width="49.8525" height="4.5475"></rect>
        <path d="M19.3375,0.255 L16.745,12.4525 L13.6,12.4525 L16.1925,0.255 L19.3375,0.255 L19.3375,0.255 Z M32.6825,8.1175 L34.34,3.5275 L35.3175,8.1175 L32.6825,8.1175 Z M36.21,12.4525 L39.1425,12.4525 L36.5925,0.255 L33.8725,0.255 C33.2775,0.255 32.725,0.595 32.5125,1.1475 L27.7525,12.4525 L31.0675,12.4525 L31.705,10.625 L35.785,10.625 L36.21,12.4525 Z M27.965,8.4575 C27.965,5.2275 23.5025,5.0575 23.545,3.6125 C23.545,3.145 23.97,2.72 24.905,2.5925 C25.9675,2.5075 27.0725,2.6775 28.05,3.145 L28.6025,0.5525 C27.6675,0.17 26.6475,3.55271368e-16 25.6275,3.55271368e-16 C22.4825,3.55271368e-16 20.315,1.6575 20.2725,4.0375 C20.23,5.8225 21.845,6.7575 23.035,7.3525 C24.225,7.9475 24.6925,8.3725 24.6925,8.8825 C24.6925,9.69 23.6725,10.0725 22.78,10.0725 C21.6325,10.115 20.5275,9.8175 19.5075,9.3075 L18.9125,11.985 C20.0175,12.4525 21.2075,12.665 22.44,12.6225 C25.755,12.665 27.9225,11.0075 27.965,8.4575 Z M14.8325,0.255 L9.7325,12.4525 L6.375,12.4525 L3.8675,2.6775 C3.6975,2.0825 3.57,1.87 3.145,1.615 C2.1675,1.1475 1.105,0.8075 3.01980663e-15,0.595 L0.085,0.255 L5.4825,0.255 C6.205,0.255 6.8425,0.8075 6.9275,1.53 L8.2025,8.5425 L11.475,0.2125 L14.8325,0.2125 L14.8325,0.255 Z" id="path-7"></path>
    </defs>
    <g id="WEB" stroke="none" stroke-width="1" fill="none" fill-rule="evenodd">
        <g id="SHOP/FILTER" transform="translate(-1305.000000, -3824.000000)">
            <g id="FOOTER/BLACK" transform="translate(-2.000000, 3230.000000)">
                <g id="Group-3" transform="translate(1307.000000, 594.000000)">
                    <g id="1933702_charge_credit-card_debit_payment_visa_icon" transform="translate(0.000000, 0.500000)">
                        <g id="Group">
                            <g id="SVGID_1_-link" fill="#FFFFFF">
                                <path d="M0,2.55 C0,1.1475 1.1475,0 2.55,0 L51.85,0 C53.2525,0 54.4,1.1475 54.4,2.55 L54.4,31.45 C54.4,32.8525 53.2525,34 51.85,34 L2.55,34 C1.1475,34 0,32.8525 0,31.45 L0,2.55 Z" id="SVGID_1_"></path>
                            </g>
                            <g id="Clipped">
                                <mask id="mask-2" fill="white">
                                    <use xlink:href="#path-1"></use>
                                </mask>
                                <g id="SVGID_1_"></g>
                                <path d="M0,2.55 C0,1.1475 1.1475,0 2.55,0 L51.85,0 C53.2525,0 54.4,1.1475 54.4,2.55 L54.4,31.45 C54.4,32.8525 53.2525,34 51.85,34 L2.55,34 C1.1475,34 0,32.8525 0,31.45 L0,2.55 Z" id="Path" stroke="#CBCBCB" stroke-width="2" fill="#FFFFFF" fill-rule="nonzero" mask="url(#mask-2)"></path>
                            </g>
                        </g>
                        <g id="Clipped" transform="translate(2.252500, 27.200000)">
                            <mask id="mask-4" fill="white">
                                <use xlink:href="#path-3"></use>
                            </mask>
                            <g id="SVGID_3_"></g>
                            <rect id="Rectangle" fill="#F7B600" fill-rule="nonzero" mask="url(#mask-4)" x="-2.125" y="-2.125" width="54.1025" height="8.7975"></rect>
                        </g>
                        <g id="Clipped" transform="translate(2.252500, 2.252500)">
                            <mask id="mask-6" fill="white">
                                <use xlink:href="#path-5"></use>
                            </mask>
                            <g id="SVGID_5_"></g>
                            <rect id="Rectangle" fill="#1A1F71" fill-rule="nonzero" mask="url(#mask-6)" x="-2.125" y="-2.125" width="54.1025" height="8.7975"></rect>
                        </g>
                        <g id="Clipped" transform="translate(7.947500, 10.752500)">
                            <mask id="mask-8" fill="white">
                                <use xlink:href="#path-7"></use>
                            </mask>
                            <g id="SVGID_7_"></g>
                            <rect id="Rectangle" fill="#1A1F71" fill-rule="nonzero" mask="url(#mask-8)" x="-2.125" y="-2.125" width="43.3925" height="16.8725"></rect>
                        </g>
                    </g>
                </g>
            </g>
        </g>
    </g>
</svg>