<?xml version="1.0" encoding="UTF-8"?>
<svg width="26px" height="23px" viewBox="0 0 26 23" version="1.1" xmlns="http://www.w3.org/2000/svg" xmlns:xlink="http://www.w3.org/1999/xlink">
    <title>3765CE3C-B771-4769-B5D7-03206E77EB76</title>
    <g id="WEB" stroke="none" stroke-width="1" fill="none" fill-rule="evenodd" fill-opacity="0.4" stroke-opacity="0.615353884">
        <g id="SHOP" transform="translate(-755.000000, -2729.000000)" fill="#FAFAFA" fill-rule="nonzero" stroke="#959595">
            <g id="Group-9-Copy-5" transform="translate(160.000000, 2674.000000)">
                <g id="CARD/GIFTING-Copy-10" transform="translate(326.000000, 46.000000)">
                    <g id="ICON/wishlist" transform="translate(270.000000, 10.200000)">
                        <path d="M17.7445715,-1.77635684e-15 C21.1917138,-1.77635684e-15 24.0003562,2.80842294 24,6.22989612 C24,7.04684048 23.8468423,7.86396723 23.5405087,8.60431451 C22.9532644,10.0085944 19.8638031,13.0979645 15.8808003,16.978929 C14.3744366,18.4598059 13.0467083,19.7620931 12.3829125,20.5024404 C12.2808651,20.6301387 12.1531668,20.6812535 12,20.6812535 C11.8468377,20.6812535 11.7191395,20.6044923 11.6170875,20.5024404 C10.9532917,19.7619107 9.65123251,18.4598059 8.11919965,16.978929 C7.09796366,15.9838683 6.13378399,15.040828 5.25507099,14.165308 L4.73832647,13.6482224 C2.46117366,11.3589142 0.848495072,9.5844275 0.459491313,8.62984687 C0.153166811,7.86401282 0,7.07255522 0,6.25542848 C0,2.80865091 2.80865091,-1.77635684e-15 6.25542848,-1.77635684e-15 C9.03841025,-1.77635684e-15 11.0299344,2.19578306 12.0002097,3.47240111 C14.5745757,0.16938542 16.7562462,0.00826270342 17.6219011,0.000403058704 Z" id="Combined-Shape-Copy"></path>
                    </g>
                </g>
            </g>
        </g>
    </g>
</svg>